{"glyphs":{"0":{"ha":933,"x_min":56,"x_max":878,"o":"m 467 -14 q 244 46 336 -14 q 104 217 153 106 q 56 486 56 329 q 104 755 56 643 q 244 926 153 867 q 467 986 336 986 q 689 926 597 986 q 829 755 781 867 q 878 486 878 643 q 829 217 878 329 q 689 46 781 106 q 467 -14 597 -14 m 467 188 q 603 265 556 188 q 651 486 651 343 q 603 714 651 635 q 467 793 556 793 q 329 714 378 793 q 281 486 281 635 q 329 265 281 343 q 467 188 378 188 z "},"1":{"ha":782,"x_min":99,"x_max":710,"o":"m 294 69 l 294 854 l 347 738 l 140 640 l 99 850 l 376 986 l 528 986 l 528 69 l 294 69 m 118 0 l 118 210 l 710 210 l 710 0 l 118 0 z "},"2":{"ha":761,"x_min":38,"x_max":749,"o":"m 85 0 l 38 117 l 317 425 q 369 485 342 451 q 423 553 397 518 q 465 622 449 589 q 481 682 481 656 q 469 731 481 710 q 434 763 457 751 q 375 775 411 775 q 315 758 344 775 q 260 709 286 742 q 213 626 235 676 l 38 724 q 120 865 67 804 q 246 961 174 926 q 400 994 318 996 q 555 958 486 994 q 665 859 624 922 q 706 711 706 796 q 695 633 706 674 q 662 548 685 593 q 601 451 639 503 q 510 340 564 400 l 294 106 l 265 210 l 749 210 l 749 0 l 85 0 z "},"3":{"ha":818,"x_min":31,"x_max":765,"o":"m 397 -14 q 192 35 279 -14 q 31 206 104 85 l 203 314 q 265 238 232 267 q 333 195 297 208 q 406 182 368 182 q 476 199 444 182 q 528 248 508 217 q 547 321 547 279 q 531 392 547 364 q 482 436 514 421 q 404 451 450 451 q 360 447 385 451 q 310 433 336 442 q 256 414 283 425 l 204 551 l 438 808 l 501 772 l 99 779 l 99 981 l 696 981 l 740 894 l 419 551 l 365 617 q 401 626 376 621 q 449 631 426 631 q 569 607 513 631 q 671 542 626 583 q 740 444 715 500 q 765 324 765 389 q 716 150 765 226 q 583 30 667 74 q 397 -14 500 -14 z "},"4":{"ha":918,"x_min":26,"x_max":869,"o":"m 482 0 l 482 782 l 606 778 l 261 357 l 229 399 l 869 399 l 869 203 l 122 203 l 26 386 l 518 981 l 711 981 l 711 0 l 482 0 z "},"5":{"ha":826,"x_min":44,"x_max":754,"o":"m 392 -10 q 192 34 282 -10 q 44 161 103 78 l 172 303 q 277 217 229 239 q 383 194 325 194 q 463 213 428 194 q 517 263 497 231 q 536 333 536 294 q 516 408 536 375 q 462 459 496 440 q 385 478 428 478 q 327 473 354 478 q 269 455 300 468 q 194 417 239 442 l 93 553 l 153 981 l 711 981 l 711 779 l 267 779 l 326 857 l 282 553 l 200 582 q 263 622 225 604 q 345 650 301 639 q 432 661 389 661 q 597 619 525 661 q 712 502 669 576 q 754 331 754 428 q 706 158 754 235 q 576 35 658 81 q 392 -10 494 -10 z "},"6":{"ha":801,"x_min":46,"x_max":765,"o":"m 407 0 q 266 27 332 0 q 151 102 200 54 q 74 214 101 150 q 46 351 46 278 q 66 483 47 418 q 119 615 85 547 q 201 761 154 683 l 336 988 l 554 988 l 561 974 l 374 678 q 311 567 338 619 q 263 465 285 515 q 221 360 242 415 l 176 461 q 242 576 196 526 q 349 653 289 625 q 464 681 408 681 q 615 637 546 681 q 724 521 683 593 q 765 363 765 449 q 719 177 765 260 q 592 47 672 94 q 407 0 511 0 m 410 196 q 487 215 453 196 q 540 270 521 235 q 560 350 560 306 q 540 424 560 389 q 486 479 519 458 q 411 500 453 500 q 332 480 367 500 q 278 426 297 460 q 258 350 258 392 q 278 272 258 307 q 331 216 297 236 q 410 196 365 196 z "},"7":{"ha":771,"x_min":67,"x_max":722,"o":"m 118 0 l 508 883 l 572 774 l 67 774 l 67 981 l 701 981 l 722 867 l 357 0 l 118 0 z "},"8":{"ha":831,"x_min":56,"x_max":775,"o":"m 414 -4 q 234 34 315 -4 q 104 138 153 72 q 56 285 56 203 q 69 382 56 339 q 111 459 83 425 q 179 517 139 493 q 272 558 219 542 l 256 501 q 167 555 204 522 q 108 630 129 588 q 88 722 88 672 q 131 858 88 799 q 249 953 175 918 q 414 988 324 988 q 580 953 506 988 q 698 858 654 918 q 742 722 742 799 q 722 631 742 672 q 665 557 703 589 q 571 501 628 525 l 558 553 q 671 500 622 536 q 747 410 719 464 q 775 285 775 356 q 726 137 775 203 q 597 33 678 71 q 414 -4 515 -4 m 414 183 q 483 199 453 183 q 531 240 514 214 q 549 300 549 267 q 531 362 549 335 q 484 405 514 389 q 414 421 454 421 q 347 405 378 421 q 299 362 317 389 q 281 300 281 335 q 299 240 281 267 q 347 199 317 214 q 414 183 378 183 m 414 610 q 475 623 449 610 q 517 659 501 636 q 532 711 532 682 q 517 765 532 742 q 475 801 501 788 q 415 815 449 815 q 354 801 381 815 q 313 765 328 788 q 297 711 297 742 q 313 659 297 682 q 354 623 328 636 q 414 610 381 610 z "},"9":{"ha":800,"x_min":40,"x_max":763,"o":"m 288 0 l 282 14 l 588 631 l 626 543 q 560 429 608 479 q 450 351 511 379 q 333 322 389 322 q 188 366 254 322 q 81 481 121 410 q 40 636 40 553 q 88 819 40 738 q 218 948 136 900 q 404 996 300 996 q 543 969 478 996 q 658 897 608 943 q 735 790 707 850 q 763 660 763 729 q 754 563 763 611 q 728 465 746 515 q 687 360 711 415 q 631 240 663 306 l 508 0 l 288 0 m 390 511 q 466 530 433 511 q 517 581 499 549 q 536 653 536 613 q 518 729 536 696 q 467 782 500 763 q 392 801 435 801 q 319 783 350 801 q 270 731 288 764 q 253 653 253 697 q 272 584 253 617 q 322 531 290 551 q 390 511 353 511 z "},"A":{"ha":968,"x_min":0,"x_max":968,"o":"m 0 0 l 385 972 l 586 972 l 968 0 l 729 0 l 544 493 q 523 556 535 522 q 500 625 511 589 q 479 694 489 661 q 463 757 469 728 l 503 758 q 485 690 494 724 q 464 624 475 657 q 441 558 453 590 q 417 490 429 525 l 233 0 l 0 0 m 183 186 l 258 367 l 703 367 l 778 186 l 183 186 z "},"Á":{"ha":968,"x_min":0,"x_max":968,"o":"m 0 0 l 385 972 l 586 972 l 968 0 l 729 0 l 544 493 q 523 556 535 522 q 500 625 511 589 q 479 694 489 661 q 463 757 469 728 l 503 758 q 485 690 494 724 q 464 624 475 657 q 441 558 453 590 q 417 490 429 525 l 233 0 l 0 0 m 183 186 l 258 367 l 703 367 l 778 186 l 183 186 m 363 1039 l 311 1150 l 601 1311 l 678 1147 l 363 1039 z "},"Ă":{"ha":968,"x_min":0,"x_max":968,"o":"m 0 0 l 385 972 l 586 972 l 968 0 l 729 0 l 544 493 q 523 556 535 522 q 500 625 511 589 q 479 694 489 661 q 463 757 469 728 l 503 758 q 485 690 494 724 q 464 624 475 657 q 441 558 453 590 q 417 490 429 525 l 233 0 l 0 0 m 183 186 l 258 367 l 703 367 l 778 186 l 183 186 m 485 1050 q 370 1077 422 1050 q 283 1152 318 1104 q 235 1261 249 1200 l 379 1278 q 422 1220 393 1243 q 485 1197 450 1197 q 549 1220 521 1197 q 590 1278 576 1243 l 735 1261 q 687 1152 722 1200 q 600 1077 651 1104 q 485 1050 549 1050 z "},"Ắ":{"ha":968,"x_min":0,"x_max":968,"o":"m 0 0 l 385 972 l 586 972 l 968 0 l 729 0 l 544 493 q 523 556 535 522 q 500 625 511 589 q 479 694 489 661 q 463 757 469 728 l 503 758 q 485 690 494 724 q 464 624 475 657 q 441 558 453 590 q 417 490 429 525 l 233 0 l 0 0 m 183 186 l 258 367 l 703 367 l 778 186 l 183 186 m 485 1035 q 322 1088 390 1035 q 235 1233 254 1140 l 371 1250 q 419 1187 388 1204 q 485 1169 450 1169 q 551 1187 521 1169 q 599 1250 582 1204 l 735 1233 q 647 1088 715 1140 q 485 1035 579 1035 m 497 1235 l 411 1297 l 543 1528 l 683 1425 l 497 1235 z "},"Ặ":{"ha":968,"x_min":0,"x_max":968,"o":"m 0 0 l 385 972 l 586 972 l 968 0 l 729 0 l 544 493 q 523 556 535 522 q 500 625 511 589 q 479 694 489 661 q 463 757 469 728 l 503 758 q 485 690 494 724 q 464 624 475 657 q 441 558 453 590 q 417 490 429 525 l 233 0 l 0 0 m 183 186 l 258 367 l 703 367 l 778 186 l 183 186 m 485 -312 q 385 -281 421 -312 q 350 -194 350 -250 q 385 -108 350 -142 q 485 -75 421 -75 q 586 -106 550 -75 q 622 -194 622 -137 q 585 -280 622 -247 q 485 -312 549 -312 m 485 1050 q 370 1077 422 1050 q 283 1152 318 1104 q 235 1261 249 1200 l 379 1278 q 422 1220 393 1243 q 485 1197 450 1197 q 549 1220 521 1197 q 590 1278 576 1243 l 735 1261 q 687 1152 722 1200 q 600 1077 651 1104 q 485 1050 549 1050 z "},"Ằ":{"ha":968,"x_min":0,"x_max":968,"o":"m 0 0 l 385 972 l 586 972 l 968 0 l 729 0 l 544 493 q 523 556 535 522 q 500 625 511 589 q 479 694 489 661 q 463 757 469 728 l 503 758 q 485 690 494 724 q 464 624 475 657 q 441 558 453 590 q 417 490 429 525 l 233 0 l 0 0 m 183 186 l 258 367 l 703 367 l 778 186 l 183 186 m 485 1035 q 322 1088 390 1035 q 235 1233 254 1140 l 371 1250 q 419 1187 389 1204 q 485 1169 449 1169 q 551 1187 521 1169 q 599 1250 582 1204 l 735 1233 q 647 1088 715 1140 q 485 1035 579 1035 m 481 1235 l 296 1425 l 435 1528 l 568 1297 l 481 1235 z "},"Ẳ":{"ha":968,"x_min":0,"x_max":968,"o":"m 0 0 l 385 972 l 586 972 l 968 0 l 729 0 l 544 493 q 523 556 535 522 q 500 625 511 589 q 479 694 489 661 q 463 757 469 728 l 503 758 q 485 690 494 724 q 464 624 475 657 q 441 558 453 590 q 417 490 429 525 l 233 0 l 0 0 m 183 186 l 258 367 l 703 367 l 778 186 l 183 186 m 485 1035 q 322 1088 390 1035 q 235 1233 254 1140 l 371 1250 q 418 1187 386 1204 q 485 1169 450 1169 q 552 1187 521 1169 q 599 1250 583 1204 l 735 1233 q 647 1088 715 1140 q 485 1035 579 1035 m 450 1229 q 431 1256 438 1242 q 424 1285 424 1271 q 430 1313 424 1300 q 458 1340 436 1326 q 484 1360 474 1351 q 496 1379 494 1369 q 483 1399 496 1392 q 451 1406 471 1406 q 394 1398 424 1406 q 336 1376 365 1390 l 306 1496 q 378 1522 336 1511 q 467 1533 421 1533 q 596 1498 547 1533 q 644 1406 644 1463 q 624 1344 644 1365 q 579 1308 603 1322 q 543 1284 557 1294 q 529 1263 529 1274 q 529 1257 529 1260 q 529 1250 529 1254 l 450 1229 z "},"Ẵ":{"ha":968,"x_min":0,"x_max":968,"o":"m 0 0 l 385 972 l 586 972 l 968 0 l 729 0 l 544 493 q 523 556 535 522 q 500 625 511 589 q 479 694 489 661 q 463 757 469 728 l 503 758 q 485 690 494 724 q 464 624 475 657 q 441 558 453 590 q 417 490 429 525 l 233 0 l 0 0 m 183 186 l 258 367 l 703 367 l 778 186 l 183 186 m 485 1035 q 322 1086 390 1035 q 235 1226 254 1138 l 371 1244 q 419 1185 388 1201 q 485 1169 450 1169 q 551 1185 521 1169 q 599 1244 582 1201 l 735 1226 q 647 1086 715 1138 q 485 1035 579 1035 m 594 1322 q 540 1330 567 1322 q 482 1351 514 1338 q 439 1370 456 1364 q 408 1376 422 1376 q 374 1362 386 1376 q 356 1324 361 1347 l 228 1329 q 276 1462 231 1411 q 392 1513 321 1513 q 446 1504 421 1513 q 500 1482 471 1496 q 539 1465 522 1472 q 569 1458 556 1458 q 600 1472 590 1458 q 615 1513 610 1486 l 743 1507 q 701 1376 742 1431 q 594 1322 661 1322 z "},"Ǎ":{"ha":968,"x_min":0,"x_max":968,"o":"m 0 0 l 385 972 l 586 972 l 968 0 l 729 0 l 544 493 q 523 556 535 522 q 500 625 511 589 q 479 694 489 661 q 463 757 469 728 l 503 758 q 485 690 494 724 q 464 624 475 657 q 441 558 453 590 q 417 490 429 525 l 233 0 l 0 0 m 183 186 l 258 367 l 703 367 l 778 186 l 183 186 m 418 1047 l 232 1199 l 301 1276 l 506 1178 l 464 1178 l 668 1276 l 738 1199 l 551 1047 l 418 1047 z "},"Â":{"ha":968,"x_min":0,"x_max":968,"o":"m 0 0 l 385 972 l 586 972 l 968 0 l 729 0 l 544 493 q 523 556 535 522 q 500 625 511 589 q 479 694 489 661 q 463 757 469 728 l 503 758 q 485 690 494 724 q 464 624 475 657 q 441 558 453 590 q 417 490 429 525 l 233 0 l 0 0 m 183 186 l 258 367 l 703 367 l 778 186 l 183 186 m 301 1046 l 231 1126 l 421 1275 l 547 1275 l 736 1126 l 667 1046 l 464 1144 l 504 1144 l 301 1046 z "},"Ấ":{"ha":968,"x_min":0,"x_max":968,"o":"m 0 0 l 385 972 l 586 972 l 968 0 l 729 0 l 544 493 q 523 556 535 522 q 500 625 511 589 q 479 694 489 661 q 463 757 469 728 l 503 758 q 485 690 494 724 q 464 624 475 657 q 441 558 453 590 q 417 490 429 525 l 233 0 l 0 0 m 183 186 l 258 367 l 703 367 l 778 186 l 183 186 m 299 1042 l 233 1118 l 422 1260 l 547 1260 l 733 1118 l 671 1042 l 464 1131 l 504 1131 l 299 1042 m 735 1221 l 644 1285 l 776 1513 l 917 1411 l 735 1221 z "},"Ậ":{"ha":968,"x_min":0,"x_max":968,"o":"m 0 0 l 385 972 l 586 972 l 968 0 l 729 0 l 544 493 q 523 556 535 522 q 500 625 511 589 q 479 694 489 661 q 463 757 469 728 l 503 758 q 485 690 494 724 q 464 624 475 657 q 441 558 453 590 q 417 490 429 525 l 233 0 l 0 0 m 183 186 l 258 367 l 703 367 l 778 186 l 183 186 m 485 -312 q 385 -281 421 -312 q 350 -194 350 -250 q 385 -108 350 -142 q 485 -75 421 -75 q 586 -106 550 -75 q 622 -194 622 -137 q 585 -280 622 -247 q 485 -312 549 -312 m 301 1046 l 231 1126 l 421 1275 l 547 1275 l 736 1126 l 667 1046 l 464 1144 l 504 1144 l 301 1046 z "},"Ầ":{"ha":968,"x_min":0,"x_max":968,"o":"m 0 0 l 385 972 l 586 972 l 968 0 l 729 0 l 544 493 q 523 556 535 522 q 500 625 511 589 q 479 694 489 661 q 463 757 469 728 l 503 758 q 485 690 494 724 q 464 624 475 657 q 441 558 453 590 q 417 490 429 525 l 233 0 l 0 0 m 183 186 l 258 367 l 703 367 l 778 186 l 183 186 m 297 1042 l 235 1118 l 421 1260 l 546 1260 l 735 1118 l 669 1042 l 464 1131 l 504 1131 l 297 1042 m 719 1222 l 535 1413 l 675 1515 l 807 1286 l 719 1222 z "},"Ẩ":{"ha":968,"x_min":0,"x_max":968,"o":"m 0 0 l 385 972 l 586 972 l 968 0 l 729 0 l 544 493 q 523 556 535 522 q 500 625 511 589 q 479 694 489 661 q 463 757 469 728 l 503 758 q 485 690 494 724 q 464 624 475 657 q 441 558 453 590 q 417 490 429 525 l 233 0 l 0 0 m 183 186 l 258 367 l 703 367 l 778 186 l 183 186 m 296 1042 l 233 1118 l 419 1260 l 546 1260 l 733 1118 l 669 1042 l 463 1131 l 504 1131 l 296 1042 m 693 1215 q 675 1242 682 1228 q 668 1271 668 1257 q 674 1298 668 1286 q 703 1325 681 1310 q 730 1346 719 1336 q 742 1365 740 1356 q 729 1385 742 1378 q 697 1392 717 1392 q 641 1383 671 1392 q 582 1363 611 1374 l 551 1482 q 624 1508 581 1497 q 711 1519 668 1519 q 842 1484 793 1519 q 890 1390 890 1449 q 869 1330 890 1351 q 825 1294 849 1308 q 788 1270 803 1281 q 774 1247 774 1260 q 776 1236 774 1242 l 693 1215 z "},"Ẫ":{"ha":968,"x_min":0,"x_max":968,"o":"m 0 0 l 385 972 l 586 972 l 968 0 l 729 0 l 544 493 q 523 556 535 522 q 500 625 511 589 q 479 694 489 661 q 463 757 469 728 l 503 758 q 485 690 494 724 q 464 624 475 657 q 441 558 453 590 q 417 490 429 525 l 233 0 l 0 0 m 183 186 l 258 367 l 703 367 l 778 186 l 183 186 m 297 1042 l 233 1118 l 421 1260 l 547 1260 l 733 1118 l 671 1042 l 464 1131 l 504 1131 l 297 1042 m 597 1324 q 538 1332 567 1324 q 481 1351 510 1340 q 438 1369 456 1363 q 407 1375 421 1375 q 372 1361 385 1375 q 354 1324 360 1347 l 226 1331 q 274 1460 229 1410 q 390 1511 319 1511 q 442 1504 419 1511 q 497 1482 465 1497 q 535 1466 517 1472 q 568 1460 554 1460 q 599 1474 589 1460 q 614 1513 608 1489 l 742 1507 q 701 1377 740 1431 q 597 1324 661 1324 z "},"Ȁ":{"ha":968,"x_min":0,"x_max":968,"o":"m 0 0 l 385 972 l 586 972 l 968 0 l 729 0 l 544 493 q 523 556 535 522 q 500 625 511 589 q 479 694 489 661 q 463 757 469 728 l 503 758 q 485 690 494 724 q 464 624 475 657 q 441 558 453 590 q 417 490 429 525 l 233 0 l 0 0 m 183 186 l 258 367 l 703 367 l 778 186 l 183 186 m 657 1032 l 419 1203 l 538 1335 l 735 1124 l 657 1032 m 346 1026 l 99 1194 l 215 1333 l 422 1124 l 346 1026 z "},"Ä":{"ha":968,"x_min":0,"x_max":968,"o":"m 0 0 l 385 972 l 586 972 l 968 0 l 729 0 l 544 493 q 523 556 535 522 q 500 625 511 589 q 479 694 489 661 q 463 757 469 728 l 503 758 q 485 690 494 724 q 464 624 475 657 q 441 558 453 590 q 417 490 429 525 l 233 0 l 0 0 m 183 186 l 258 367 l 703 367 l 778 186 l 183 186 m 653 1047 q 563 1078 593 1047 q 532 1165 532 1108 q 563 1249 532 1214 q 653 1283 594 1283 q 744 1252 714 1283 q 774 1165 774 1221 q 742 1081 774 1115 q 653 1047 711 1047 m 314 1047 q 224 1078 254 1047 q 193 1165 193 1108 q 224 1249 193 1214 q 314 1283 256 1283 q 406 1252 375 1283 q 436 1165 436 1221 q 404 1081 436 1115 q 314 1047 372 1047 z "},"Ạ":{"ha":968,"x_min":0,"x_max":968,"o":"m 0 0 l 385 972 l 586 972 l 968 0 l 729 0 l 544 493 q 523 556 535 522 q 500 625 511 589 q 479 694 489 661 q 463 757 469 728 l 503 758 q 485 690 494 724 q 464 624 475 657 q 441 558 453 590 q 417 490 429 525 l 233 0 l 0 0 m 183 186 l 258 367 l 703 367 l 778 186 l 183 186 m 485 -312 q 385 -281 421 -312 q 350 -194 350 -250 q 385 -108 350 -142 q 485 -75 421 -75 q 586 -106 550 -75 q 622 -194 622 -137 q 585 -280 622 -247 q 485 -312 549 -312 z "},"À":{"ha":968,"x_min":0,"x_max":968,"o":"m 0 0 l 385 972 l 586 972 l 968 0 l 729 0 l 544 493 q 523 556 535 522 q 500 625 511 589 q 479 694 489 661 q 463 757 469 728 l 503 758 q 485 690 494 724 q 464 624 475 657 q 441 558 453 590 q 417 490 429 525 l 233 0 l 0 0 m 183 186 l 258 367 l 703 367 l 778 186 l 183 186 m 619 1039 l 304 1147 l 383 1311 l 674 1150 l 619 1039 z "},"Ả":{"ha":968,"x_min":0,"x_max":968,"o":"m 0 0 l 385 972 l 586 972 l 968 0 l 729 0 l 544 493 q 523 556 535 522 q 500 625 511 589 q 479 694 489 661 q 463 757 469 728 l 503 758 q 485 690 494 724 q 464 624 475 657 q 441 558 453 590 q 417 490 429 525 l 233 0 l 0 0 m 183 186 l 258 367 l 703 367 l 778 186 l 183 186 m 449 1036 q 430 1065 438 1050 q 422 1097 422 1079 q 431 1129 422 1114 q 465 1163 439 1144 q 495 1185 483 1176 q 507 1207 507 1194 q 495 1226 507 1219 q 464 1232 483 1232 q 407 1224 438 1232 q 347 1204 376 1215 l 314 1321 q 390 1351 344 1339 q 482 1363 435 1363 q 606 1328 560 1363 q 653 1236 653 1293 q 634 1167 653 1190 q 594 1129 615 1143 q 556 1103 572 1115 q 540 1076 540 1090 q 542 1067 540 1072 q 544 1058 543 1063 l 449 1036 z "},"Ȃ":{"ha":968,"x_min":0,"x_max":968,"o":"m 0 0 l 385 972 l 586 972 l 968 0 l 729 0 l 544 493 q 523 556 535 522 q 500 625 511 589 q 479 694 489 661 q 463 757 469 728 l 503 758 q 485 690 494 724 q 464 624 475 657 q 441 558 453 590 q 417 490 429 525 l 233 0 l 0 0 m 183 186 l 258 367 l 703 367 l 778 186 l 183 186 m 379 1051 l 235 1069 q 283 1179 249 1132 q 370 1253 318 1226 q 485 1279 422 1279 q 600 1253 549 1279 q 687 1179 651 1226 q 735 1069 722 1132 l 590 1051 q 549 1110 576 1088 q 485 1133 521 1133 q 422 1110 450 1133 q 379 1051 393 1088 z "},"Ā":{"ha":968,"x_min":0,"x_max":968,"o":"m 0 0 l 385 972 l 586 972 l 968 0 l 729 0 l 544 493 q 523 556 535 522 q 500 625 511 589 q 479 694 489 661 q 463 757 469 728 l 503 758 q 485 690 494 724 q 464 624 475 657 q 441 558 453 590 q 417 490 429 525 l 233 0 l 0 0 m 183 186 l 258 367 l 703 367 l 778 186 l 183 186 m 233 1093 l 233 1236 l 735 1236 l 735 1093 l 233 1093 z "},"Ą":{"ha":968,"x_min":0,"x_max":968,"o":"m 0 0 l 385 972 l 586 972 l 968 0 l 729 0 l 544 493 q 523 556 535 522 q 500 625 511 589 q 479 694 489 661 q 463 757 469 728 l 503 758 q 485 690 494 724 q 464 624 475 657 q 441 558 453 590 q 417 490 429 525 l 233 0 l 0 0 m 183 186 l 258 367 l 703 367 l 778 186 l 183 186 m 793 -292 q 709 -273 747 -292 q 648 -220 671 -254 q 625 -143 625 -186 q 641 -75 625 -107 q 687 -16 657 -43 q 760 33 717 11 q 857 71 803 56 l 910 0 q 819 -41 856 -10 q 782 -107 782 -72 q 792 -136 782 -125 q 817 -147 801 -147 q 842 -139 832 -147 q 863 -114 853 -131 l 961 -187 q 897 -262 940 -232 q 793 -292 853 -292 z "},"Å":{"ha":968,"x_min":0,"x_max":968,"o":"m 0 0 l 385 972 l 586 972 l 968 0 l 729 0 l 544 493 q 523 556 535 522 q 500 625 511 589 q 479 694 489 661 q 463 757 469 728 l 503 758 q 485 690 494 724 q 464 624 475 657 q 441 558 453 590 q 417 490 429 525 l 233 0 l 0 0 m 183 186 l 258 367 l 703 367 l 778 186 l 183 186 m 483 935 q 393 958 435 935 q 326 1021 351 982 q 300 1106 300 1060 q 325 1194 300 1154 q 392 1259 350 1235 q 483 1283 435 1283 q 575 1259 533 1283 q 642 1194 617 1235 q 668 1106 668 1154 q 642 1021 668 1060 q 575 958 617 982 q 483 935 533 935 m 483 1050 q 524 1066 507 1050 q 540 1106 540 1082 q 524 1145 540 1129 q 483 1161 507 1161 q 444 1145 461 1161 q 428 1106 428 1129 q 444 1066 428 1082 q 483 1050 461 1050 z "},"Ǻ":{"ha":968,"x_min":0,"x_max":968,"o":"m 0 0 l 385 972 l 586 972 l 968 0 l 729 0 l 544 493 q 523 556 535 522 q 500 625 511 589 q 479 694 489 661 q 463 757 469 728 l 503 758 q 485 690 494 724 q 464 624 475 657 q 441 558 453 590 q 417 490 429 525 l 233 0 l 0 0 m 183 186 l 258 367 l 703 367 l 778 186 l 183 186 m 483 935 q 393 958 435 935 q 326 1021 351 982 q 300 1106 300 1060 q 325 1194 300 1154 q 392 1259 350 1235 q 483 1283 435 1283 q 575 1259 533 1283 q 642 1194 617 1235 q 668 1106 668 1154 q 642 1021 668 1060 q 575 958 617 982 q 483 935 533 935 m 483 1050 q 524 1066 507 1050 q 540 1106 540 1082 q 524 1145 540 1129 q 483 1161 507 1161 q 444 1145 461 1161 q 428 1106 428 1129 q 444 1066 428 1082 q 483 1050 461 1050 m 363 1307 l 311 1418 l 601 1579 l 678 1415 l 363 1307 z "},"Ã":{"ha":968,"x_min":0,"x_max":968,"o":"m 0 0 l 385 972 l 586 972 l 968 0 l 729 0 l 544 493 q 523 556 535 522 q 500 625 511 589 q 479 694 489 661 q 463 757 469 728 l 503 758 q 485 690 494 724 q 464 624 475 657 q 441 558 453 590 q 417 490 429 525 l 233 0 l 0 0 m 183 186 l 258 367 l 703 367 l 778 186 l 183 186 m 592 1065 q 535 1074 564 1065 q 474 1097 507 1083 q 432 1114 449 1108 q 401 1119 415 1119 q 370 1106 382 1119 q 358 1065 358 1092 l 219 1065 q 270 1211 219 1158 q 399 1264 321 1264 q 448 1257 424 1264 q 508 1233 472 1250 q 547 1217 531 1224 q 575 1211 563 1211 q 603 1226 593 1211 q 611 1264 613 1240 l 749 1264 q 729 1165 749 1210 q 674 1092 710 1119 q 592 1065 639 1065 z "},"Æ":{"ha":1489,"x_min":-11,"x_max":1407,"o":"m -11 0 l 667 972 l 1407 972 l 1407 776 l 953 776 l 953 586 l 1344 586 l 1344 397 l 953 397 l 953 196 l 1407 196 l 1407 0 l 726 0 l 726 196 l 356 196 l 483 382 l 726 382 l 726 769 l 763 758 l 244 0 l -11 0 z "},"Ǽ":{"ha":1490,"x_min":-11,"x_max":1407,"o":"m -11 0 l 667 972 l 1407 972 l 1407 776 l 953 776 l 953 586 l 1344 586 l 1344 397 l 953 397 l 953 196 l 1407 196 l 1407 0 l 726 0 l 726 196 l 356 196 l 483 382 l 726 382 l 726 769 l 763 758 l 244 0 l -11 0 m 874 1039 l 822 1150 l 1113 1311 l 1189 1147 l 874 1039 z "},"B":{"ha":974,"x_min":121,"x_max":914,"o":"m 121 0 l 121 972 l 551 972 q 722 944 653 972 q 826 862 790 915 q 863 732 863 808 q 822 594 863 650 q 704 517 781 539 l 703 546 q 813 495 765 531 q 888 409 861 460 q 914 294 914 358 q 888 165 914 221 q 816 73 863 110 q 706 18 769 36 q 567 0 643 0 l 121 0 m 346 199 l 557 199 q 648 226 615 199 q 681 306 681 254 q 665 360 681 338 q 619 393 649 382 q 550 404 590 404 l 346 404 l 346 199 m 346 583 l 519 583 q 581 595 556 583 q 619 628 606 607 q 632 679 632 650 q 601 749 632 724 q 510 774 571 774 l 346 774 l 346 583 z "},"C":{"ha":963,"x_min":60,"x_max":932,"o":"m 563 -14 q 360 23 453 -14 q 201 127 268 60 q 97 287 133 194 q 60 489 60 379 q 98 689 60 597 q 206 849 136 781 q 369 954 275 917 q 572 992 463 992 q 708 974 642 992 q 833 920 775 956 q 932 835 890 885 l 786 669 q 690 743 743 717 q 571 769 636 769 q 466 750 515 769 q 381 693 417 731 q 324 604 344 656 q 303 488 303 553 q 323 372 303 424 q 381 283 343 319 q 473 226 419 246 q 592 207 526 207 q 674 219 635 207 q 749 253 714 231 q 808 303 783 275 l 924 119 q 833 51 890 82 q 705 3 775 21 q 563 -14 635 -14 z "},"Ć":{"ha":963,"x_min":60,"x_max":932,"o":"m 563 -14 q 360 23 453 -14 q 201 127 268 60 q 97 287 133 194 q 60 489 60 379 q 98 689 60 597 q 206 849 136 781 q 369 954 275 917 q 572 992 463 992 q 708 974 642 992 q 833 920 775 956 q 932 835 890 885 l 786 669 q 690 743 743 717 q 571 769 636 769 q 466 750 515 769 q 381 693 417 731 q 324 604 344 656 q 303 488 303 553 q 323 372 303 424 q 381 283 343 319 q 473 226 419 246 q 592 207 526 207 q 674 219 635 207 q 749 253 714 231 q 808 303 783 275 l 924 119 q 833 51 890 82 q 705 3 775 21 q 563 -14 635 -14 m 447 1039 l 396 1150 l 686 1311 l 763 1147 l 447 1039 z "},"Č":{"ha":963,"x_min":60,"x_max":932,"o":"m 563 -14 q 360 23 453 -14 q 201 127 268 60 q 97 287 133 194 q 60 489 60 379 q 98 689 60 597 q 206 849 136 781 q 369 954 275 917 q 572 992 463 992 q 708 974 642 992 q 833 920 775 956 q 932 835 890 885 l 786 669 q 690 743 743 717 q 571 769 636 769 q 466 750 515 769 q 381 693 417 731 q 324 604 344 656 q 303 488 303 553 q 323 372 303 424 q 381 283 343 319 q 473 226 419 246 q 592 207 526 207 q 674 219 635 207 q 749 253 714 231 q 808 303 783 275 l 924 119 q 833 51 890 82 q 705 3 775 21 q 563 -14 635 -14 m 503 1047 l 317 1199 l 386 1276 l 590 1178 l 549 1178 l 753 1276 l 822 1199 l 636 1047 l 503 1047 z "},"Ç":{"ha":963,"x_min":60,"x_max":932,"o":"m 563 -14 q 360 23 453 -14 q 201 127 268 60 q 97 287 133 194 q 60 489 60 379 q 98 689 60 597 q 206 849 136 781 q 369 954 275 917 q 572 992 463 992 q 708 974 642 992 q 833 920 775 956 q 932 835 890 885 l 786 669 q 690 743 743 717 q 571 769 636 769 q 466 750 515 769 q 381 693 417 731 q 324 604 344 656 q 303 488 303 553 q 323 372 303 424 q 381 283 343 319 q 473 226 419 246 q 592 207 526 207 q 674 219 635 207 q 749 253 714 231 q 808 303 783 275 l 924 119 q 833 51 890 82 q 705 3 775 21 q 563 -14 635 -14 m 413 -342 l 399 -237 q 459 -231 428 -237 q 512 -210 490 -224 q 533 -182 533 -197 q 517 -156 533 -165 q 479 -141 501 -146 q 436 -136 457 -136 l 411 -118 l 507 35 l 622 35 l 560 -58 q 666 -104 631 -68 q 701 -193 701 -140 q 675 -264 701 -235 q 605 -311 649 -293 q 511 -336 561 -329 q 413 -342 461 -343 z "},"Ḉ":{"ha":963,"x_min":60,"x_max":932,"o":"m 563 -14 q 360 23 453 -14 q 201 127 268 60 q 97 287 133 194 q 60 489 60 379 q 98 689 60 597 q 206 849 136 781 q 369 954 275 917 q 572 992 463 992 q 708 974 642 992 q 833 920 775 956 q 932 835 890 885 l 786 669 q 690 743 743 717 q 571 769 636 769 q 466 750 515 769 q 381 693 417 731 q 324 604 344 656 q 303 488 303 553 q 323 372 303 424 q 381 283 343 319 q 473 226 419 246 q 592 207 526 207 q 674 219 635 207 q 749 253 714 231 q 808 303 783 275 l 924 119 q 833 51 890 82 q 705 3 775 21 q 563 -14 635 -14 m 413 -342 l 399 -237 q 459 -231 428 -237 q 512 -210 490 -224 q 533 -182 533 -197 q 517 -156 533 -165 q 479 -141 501 -146 q 436 -136 457 -136 l 411 -118 l 507 35 l 622 35 l 560 -58 q 666 -104 631 -68 q 701 -193 701 -140 q 675 -264 701 -235 q 605 -311 649 -293 q 511 -336 561 -329 q 413 -342 461 -343 m 447 1039 l 396 1150 l 686 1311 l 763 1147 l 447 1039 z "},"Ĉ":{"ha":963,"x_min":60,"x_max":932,"o":"m 563 -14 q 360 23 453 -14 q 201 127 268 60 q 97 287 133 194 q 60 489 60 379 q 98 689 60 597 q 206 849 136 781 q 369 954 275 917 q 572 992 463 992 q 708 974 642 992 q 833 920 775 956 q 932 835 890 885 l 786 669 q 690 743 743 717 q 571 769 636 769 q 466 750 515 769 q 381 693 417 731 q 324 604 344 656 q 303 488 303 553 q 323 372 303 424 q 381 283 343 319 q 473 226 419 246 q 592 207 526 207 q 674 219 635 207 q 749 253 714 231 q 808 303 783 275 l 924 119 q 833 51 890 82 q 705 3 775 21 q 563 -14 635 -14 m 386 1046 l 315 1126 l 506 1275 l 632 1275 l 821 1126 l 751 1046 l 549 1144 l 589 1144 l 386 1046 z "},"Ċ":{"ha":963,"x_min":60,"x_max":932,"o":"m 563 -14 q 360 23 453 -14 q 201 127 268 60 q 97 287 133 194 q 60 489 60 379 q 98 689 60 597 q 206 849 136 781 q 369 954 275 917 q 572 992 463 992 q 708 974 642 992 q 833 920 775 956 q 932 835 890 885 l 786 669 q 690 743 743 717 q 571 769 636 769 q 466 750 515 769 q 381 693 417 731 q 324 604 344 656 q 303 488 303 553 q 323 372 303 424 q 381 283 343 319 q 473 226 419 246 q 592 207 526 207 q 674 219 635 207 q 749 253 714 231 q 808 303 783 275 l 924 119 q 833 51 890 82 q 705 3 775 21 q 563 -14 635 -14 m 569 1050 q 471 1081 506 1050 q 436 1165 436 1111 q 471 1247 436 1214 q 569 1281 506 1281 q 669 1250 635 1281 q 703 1165 703 1219 q 667 1083 703 1117 q 569 1050 632 1050 z "},"D":{"ha":1072,"x_min":121,"x_max":1013,"o":"m 121 0 l 121 972 l 531 972 q 726 937 638 972 q 879 837 815 901 q 978 683 943 772 q 1013 486 1013 593 q 978 289 1013 378 q 879 135 943 200 q 727 35 815 71 q 531 0 639 0 l 121 0 m 358 164 l 328 210 l 524 210 q 626 229 581 210 q 705 285 672 249 q 755 373 738 322 q 772 486 772 424 q 755 599 772 549 q 705 687 738 650 q 626 743 672 724 q 524 763 581 763 l 324 763 l 358 806 l 358 164 z "},"Ǳ":{"ha":1958,"x_min":121,"x_max":1878,"o":"m 121 0 l 121 972 l 531 972 q 726 937 638 972 q 879 837 815 901 q 978 683 943 772 q 1013 486 1013 593 q 978 289 1013 378 q 879 135 943 200 q 727 35 815 71 q 531 0 639 0 l 121 0 m 358 164 l 328 210 l 524 210 q 626 229 581 210 q 705 285 672 249 q 755 373 738 322 q 772 486 772 424 q 755 599 772 549 q 705 687 738 650 q 626 743 672 724 q 524 763 581 763 l 324 763 l 358 806 l 358 164 m 1093 0 l 1093 158 l 1613 849 l 1693 756 l 1129 756 l 1129 972 l 1863 972 l 1863 815 l 1347 124 l 1264 208 l 1878 208 l 1878 0 l 1093 0 z "},"ǳ":{"ha":1958,"x_min":121,"x_max":1878,"o":"m 121 0 l 121 972 l 531 972 q 726 937 638 972 q 879 837 815 901 q 978 683 943 772 q 1013 486 1013 593 q 978 289 1013 378 q 879 135 943 200 q 727 35 815 71 q 531 0 639 0 l 121 0 m 358 164 l 328 210 l 524 210 q 626 229 581 210 q 705 285 672 249 q 755 373 738 322 q 772 486 772 424 q 755 599 772 549 q 705 687 738 650 q 626 743 672 724 q 524 763 581 763 l 324 763 l 358 806 l 358 164 m 1093 0 l 1093 158 l 1613 849 l 1693 756 l 1129 756 l 1129 972 l 1863 972 l 1863 815 l 1347 124 l 1264 208 l 1878 208 l 1878 0 l 1093 0 z "},"Ǆ":{"ha":1958,"x_min":121,"x_max":1878,"o":"m 121 0 l 121 972 l 531 972 q 726 937 638 972 q 879 837 815 901 q 978 683 943 772 q 1013 486 1013 593 q 978 289 1013 378 q 879 135 943 200 q 727 35 815 71 q 531 0 639 0 l 121 0 m 358 164 l 328 210 l 524 210 q 626 229 581 210 q 705 285 672 249 q 755 373 738 322 q 772 486 772 424 q 755 599 772 549 q 705 687 738 650 q 626 743 672 724 q 524 763 581 763 l 324 763 l 358 806 l 358 164 m 1093 0 l 1093 158 l 1613 849 l 1693 756 l 1129 756 l 1129 972 l 1863 972 l 1863 815 l 1347 124 l 1264 208 l 1878 208 l 1878 0 l 1093 0 m 1418 1047 l 1232 1199 l 1301 1276 l 1506 1178 l 1464 1178 l 1668 1276 l 1738 1199 l 1551 1047 l 1418 1047 z "},"Ð":{"ha":1072,"x_min":50,"x_max":1013,"o":"m 50 403 l 50 569 l 500 569 l 500 403 l 50 403 m 121 0 l 121 972 l 531 972 q 726 937 638 972 q 879 837 815 901 q 978 683 943 772 q 1013 486 1013 593 q 978 289 1013 378 q 879 135 943 200 q 727 35 815 71 q 531 0 639 0 l 121 0 m 358 164 l 328 210 l 524 210 q 626 229 581 210 q 705 285 672 249 q 755 373 738 322 q 772 486 772 424 q 755 599 772 549 q 705 687 738 650 q 626 743 672 724 q 524 763 581 763 l 324 763 l 358 806 l 358 164 z "},"Ď":{"ha":1072,"x_min":121,"x_max":1013,"o":"m 121 0 l 121 972 l 531 972 q 726 937 638 972 q 879 837 815 901 q 978 683 943 772 q 1013 486 1013 593 q 978 289 1013 378 q 879 135 943 200 q 727 35 815 71 q 531 0 639 0 l 121 0 m 358 164 l 328 210 l 524 210 q 626 229 581 210 q 705 285 672 249 q 755 373 738 322 q 772 486 772 424 q 755 599 772 549 q 705 687 738 650 q 626 743 672 724 q 524 763 581 763 l 324 763 l 358 806 l 358 164 m 469 1047 l 283 1199 l 353 1276 l 557 1178 l 515 1178 l 719 1276 l 789 1199 l 603 1047 l 469 1047 z "},"Đ":{"ha":1072,"x_min":50,"x_max":1013,"o":"m 50 403 l 50 569 l 500 569 l 500 403 l 50 403 m 121 0 l 121 972 l 531 972 q 726 937 638 972 q 879 837 815 901 q 978 683 943 772 q 1013 486 1013 593 q 978 289 1013 378 q 879 135 943 200 q 727 35 815 71 q 531 0 639 0 l 121 0 m 358 164 l 328 210 l 524 210 q 626 229 581 210 q 705 285 672 249 q 755 373 738 322 q 772 486 772 424 q 755 599 772 549 q 705 687 738 650 q 626 743 672 724 q 524 763 581 763 l 324 763 l 358 806 l 358 164 z "},"Ḍ":{"ha":1072,"x_min":121,"x_max":1013,"o":"m 121 0 l 121 972 l 531 972 q 726 937 638 972 q 879 837 815 901 q 978 683 943 772 q 1013 486 1013 593 q 978 289 1013 378 q 879 135 943 200 q 727 35 815 71 q 531 0 639 0 l 121 0 m 358 164 l 328 210 l 524 210 q 626 229 581 210 q 705 285 672 249 q 755 373 738 322 q 772 486 772 424 q 755 599 772 549 q 705 687 738 650 q 626 743 672 724 q 524 763 581 763 l 324 763 l 358 806 l 358 164 m 536 -312 q 437 -281 472 -312 q 401 -194 401 -250 q 437 -108 401 -142 q 536 -75 472 -75 q 638 -106 601 -75 q 674 -194 674 -137 q 637 -280 674 -247 q 536 -312 600 -312 z "},"Ḏ":{"ha":1072,"x_min":121,"x_max":1013,"o":"m 121 0 l 121 972 l 531 972 q 726 937 638 972 q 879 837 815 901 q 978 683 943 772 q 1013 486 1013 593 q 978 289 1013 378 q 879 135 943 200 q 727 35 815 71 q 531 0 639 0 l 121 0 m 358 164 l 328 210 l 524 210 q 626 229 581 210 q 705 285 672 249 q 755 373 738 322 q 772 486 772 424 q 755 599 772 549 q 705 687 738 650 q 626 743 672 724 q 524 763 581 763 l 324 763 l 358 806 l 358 164 m 324 -276 l 324 -112 l 749 -112 l 749 -276 l 324 -276 z "},"ǲ":{"ha":1833,"x_min":121,"x_max":1763,"o":"m 121 0 l 121 972 l 531 972 q 726 937 638 972 q 879 837 815 901 q 978 683 943 772 q 1013 486 1013 593 q 978 289 1013 378 q 879 135 943 200 q 727 35 815 71 q 531 0 639 0 l 121 0 m 358 164 l 328 210 l 524 210 q 626 229 581 210 q 705 285 672 249 q 755 373 738 322 q 772 486 772 424 q 755 599 772 549 q 705 687 738 650 q 626 743 672 724 q 524 763 581 763 l 324 763 l 358 806 l 358 164 m 1140 0 l 1140 131 l 1531 626 l 1531 556 l 1140 556 l 1140 738 l 1751 738 l 1751 603 l 1383 119 l 1378 182 l 1763 182 l 1763 0 l 1140 0 z "},"ǅ":{"ha":1833,"x_min":121,"x_max":1763,"o":"m 121 0 l 121 972 l 531 972 q 726 937 638 972 q 879 837 815 901 q 978 683 943 772 q 1013 486 1013 593 q 978 289 1013 378 q 879 135 943 200 q 727 35 815 71 q 531 0 639 0 l 121 0 m 358 164 l 328 210 l 524 210 q 626 229 581 210 q 705 285 672 249 q 755 373 738 322 q 772 486 772 424 q 755 599 772 549 q 705 687 738 650 q 626 743 672 724 q 524 763 581 763 l 324 763 l 358 806 l 358 164 m 1140 0 l 1140 131 l 1531 626 l 1531 556 l 1140 556 l 1140 738 l 1751 738 l 1751 603 l 1383 119 l 1378 182 l 1763 182 l 1763 0 l 1140 0 m 1386 843 l 1193 1022 l 1274 1092 l 1474 974 l 1432 974 l 1632 1092 l 1713 1022 l 1519 843 l 1386 843 z "},"E":{"ha":896,"x_min":121,"x_max":814,"o":"m 121 0 l 121 972 l 799 972 l 799 769 l 353 769 l 353 203 l 814 203 l 814 0 l 121 0 m 233 397 l 233 592 l 738 592 l 738 397 l 233 397 z "},"É":{"ha":896,"x_min":121,"x_max":814,"o":"m 121 0 l 121 972 l 799 972 l 799 769 l 353 769 l 353 203 l 814 203 l 814 0 l 121 0 m 233 397 l 233 592 l 738 592 l 738 397 l 233 397 m 353 1039 l 301 1150 l 592 1311 l 668 1147 l 353 1039 z "},"Ĕ":{"ha":896,"x_min":121,"x_max":814,"o":"m 121 0 l 121 972 l 799 972 l 799 769 l 353 769 l 353 203 l 814 203 l 814 0 l 121 0 m 233 397 l 233 592 l 738 592 l 738 397 l 233 397 m 475 1050 q 360 1077 413 1050 q 274 1152 308 1104 q 225 1261 239 1200 l 369 1278 q 412 1220 383 1243 q 475 1197 440 1197 q 539 1220 511 1197 q 581 1278 567 1243 l 725 1261 q 677 1152 713 1200 q 590 1077 642 1104 q 475 1050 539 1050 z "},"Ě":{"ha":896,"x_min":121,"x_max":814,"o":"m 121 0 l 121 972 l 799 972 l 799 769 l 353 769 l 353 203 l 814 203 l 814 0 l 121 0 m 233 397 l 233 592 l 738 592 l 738 397 l 233 397 m 408 1047 l 222 1199 l 292 1276 l 496 1178 l 454 1178 l 658 1276 l 728 1199 l 542 1047 l 408 1047 z "},"Ḝ":{"ha":896,"x_min":121,"x_max":814,"o":"m 121 0 l 121 972 l 799 972 l 799 769 l 353 769 l 353 203 l 814 203 l 814 0 l 121 0 m 233 397 l 233 592 l 738 592 l 738 397 l 233 397 m 311 -342 l 297 -237 q 358 -231 326 -237 q 410 -210 389 -224 q 432 -182 432 -197 q 416 -156 432 -165 q 378 -141 400 -146 q 335 -136 356 -136 l 310 -118 l 406 35 l 521 35 l 458 -58 q 565 -104 529 -68 q 600 -193 600 -140 q 574 -264 600 -235 q 503 -311 547 -293 q 410 -336 460 -329 q 311 -342 360 -343 m 475 1050 q 360 1077 413 1050 q 274 1152 308 1104 q 225 1261 239 1200 l 369 1278 q 412 1220 383 1243 q 475 1197 440 1197 q 539 1220 511 1197 q 581 1278 567 1243 l 725 1261 q 677 1152 713 1200 q 590 1077 642 1104 q 475 1050 539 1050 z "},"Ê":{"ha":896,"x_min":121,"x_max":814,"o":"m 121 0 l 121 972 l 799 972 l 799 769 l 353 769 l 353 203 l 814 203 l 814 0 l 121 0 m 233 397 l 233 592 l 738 592 l 738 397 l 233 397 m 293 1046 l 222 1126 l 413 1275 l 539 1275 l 728 1126 l 658 1046 l 456 1144 l 496 1144 l 293 1046 z "},"Ế":{"ha":896,"x_min":121,"x_max":908,"o":"m 121 0 l 121 972 l 799 972 l 799 769 l 353 769 l 353 203 l 814 203 l 814 0 l 121 0 m 233 397 l 233 592 l 738 592 l 738 397 l 233 397 m 290 1042 l 225 1118 l 414 1260 l 539 1260 l 725 1118 l 663 1042 l 456 1131 l 496 1131 l 290 1042 m 726 1221 l 636 1285 l 768 1513 l 908 1411 l 726 1221 z "},"Ệ":{"ha":896,"x_min":121,"x_max":814,"o":"m 121 0 l 121 972 l 799 972 l 799 769 l 353 769 l 353 203 l 814 203 l 814 0 l 121 0 m 233 397 l 233 592 l 738 592 l 738 397 l 233 397 m 447 -312 q 348 -281 383 -312 q 313 -194 313 -250 q 348 -108 313 -142 q 447 -75 383 -75 q 549 -106 513 -75 q 585 -194 585 -137 q 548 -280 585 -247 q 447 -312 511 -312 m 293 1046 l 222 1126 l 413 1275 l 539 1275 l 728 1126 l 658 1046 l 456 1144 l 496 1144 l 293 1046 z "},"Ề":{"ha":896,"x_min":121,"x_max":814,"o":"m 121 0 l 121 972 l 799 972 l 799 769 l 353 769 l 353 203 l 814 203 l 814 0 l 121 0 m 233 397 l 233 592 l 738 592 l 738 397 l 233 397 m 288 1042 l 225 1118 l 411 1260 l 536 1260 l 725 1118 l 660 1042 l 454 1131 l 494 1131 l 288 1042 m 710 1222 l 525 1413 l 665 1515 l 797 1286 l 710 1222 z "},"Ể":{"ha":896,"x_min":121,"x_max":882,"o":"m 121 0 l 121 972 l 799 972 l 799 769 l 353 769 l 353 203 l 814 203 l 814 0 l 121 0 m 233 397 l 233 592 l 738 592 l 738 397 l 233 397 m 288 1042 l 225 1118 l 411 1260 l 538 1260 l 725 1118 l 661 1042 l 454 1131 l 496 1131 l 288 1042 m 685 1215 q 667 1242 674 1228 q 660 1271 660 1257 q 666 1298 660 1286 q 694 1325 672 1310 q 722 1346 711 1336 q 733 1365 732 1356 q 721 1385 733 1378 q 689 1392 708 1392 q 633 1383 663 1392 q 574 1363 603 1374 l 543 1482 q 616 1508 572 1497 q 703 1519 660 1519 q 833 1484 785 1519 q 882 1390 882 1449 q 861 1330 882 1351 q 817 1294 840 1308 q 780 1270 794 1281 q 765 1247 765 1260 q 768 1236 765 1242 l 685 1215 z "},"Ễ":{"ha":896,"x_min":121,"x_max":814,"o":"m 121 0 l 121 972 l 799 972 l 799 769 l 353 769 l 353 203 l 814 203 l 814 0 l 121 0 m 233 397 l 233 592 l 738 592 l 738 397 l 233 397 m 289 1042 l 225 1118 l 413 1260 l 539 1260 l 725 1118 l 663 1042 l 456 1131 l 496 1131 l 289 1042 m 589 1324 q 530 1332 558 1324 q 472 1351 501 1340 q 430 1369 447 1363 q 399 1375 413 1375 q 364 1361 376 1375 q 346 1324 351 1347 l 218 1331 q 266 1460 221 1410 q 382 1511 311 1511 q 434 1504 411 1511 q 489 1482 457 1497 q 527 1466 508 1472 q 560 1460 546 1460 q 590 1474 581 1460 q 606 1513 600 1489 l 733 1507 q 692 1377 732 1431 q 589 1324 653 1324 z "},"Ȅ":{"ha":896,"x_min":90,"x_max":814,"o":"m 121 0 l 121 972 l 799 972 l 799 769 l 353 769 l 353 203 l 814 203 l 814 0 l 121 0 m 233 397 l 233 592 l 738 592 l 738 397 l 233 397 m 649 1032 l 411 1203 l 529 1335 l 726 1124 l 649 1032 m 338 1026 l 90 1194 l 207 1333 l 414 1124 l 338 1026 z "},"Ë":{"ha":896,"x_min":121,"x_max":814,"o":"m 121 0 l 121 972 l 799 972 l 799 769 l 353 769 l 353 203 l 814 203 l 814 0 l 121 0 m 233 397 l 233 592 l 738 592 l 738 397 l 233 397 m 644 1047 q 554 1078 585 1047 q 524 1165 524 1108 q 555 1249 524 1214 q 644 1283 586 1283 q 735 1252 706 1283 q 765 1165 765 1221 q 734 1081 765 1115 q 644 1047 703 1047 m 306 1047 q 215 1078 246 1047 q 185 1165 185 1108 q 216 1249 185 1214 q 306 1283 247 1283 q 397 1252 367 1283 q 428 1165 428 1221 q 396 1081 428 1115 q 306 1047 364 1047 z "},"Ė":{"ha":896,"x_min":121,"x_max":814,"o":"m 121 0 l 121 972 l 799 972 l 799 769 l 353 769 l 353 203 l 814 203 l 814 0 l 121 0 m 233 397 l 233 592 l 738 592 l 738 397 l 233 397 m 475 1050 q 376 1081 411 1050 q 342 1165 342 1111 q 376 1247 342 1214 q 475 1281 411 1281 q 574 1250 540 1281 q 608 1165 608 1219 q 573 1083 608 1117 q 475 1050 538 1050 z "},"Ẹ":{"ha":896,"x_min":121,"x_max":814,"o":"m 121 0 l 121 972 l 799 972 l 799 769 l 353 769 l 353 203 l 814 203 l 814 0 l 121 0 m 233 397 l 233 592 l 738 592 l 738 397 l 233 397 m 447 -312 q 348 -281 383 -312 q 313 -194 313 -250 q 348 -108 313 -142 q 447 -75 383 -75 q 549 -106 513 -75 q 585 -194 585 -137 q 548 -280 585 -247 q 447 -312 511 -312 z "},"È":{"ha":896,"x_min":121,"x_max":814,"o":"m 121 0 l 121 972 l 799 972 l 799 769 l 353 769 l 353 203 l 814 203 l 814 0 l 121 0 m 233 397 l 233 592 l 738 592 l 738 397 l 233 397 m 611 1039 l 296 1147 l 375 1311 l 665 1150 l 611 1039 z "},"Ẻ":{"ha":896,"x_min":121,"x_max":814,"o":"m 121 0 l 121 972 l 799 972 l 799 769 l 353 769 l 353 203 l 814 203 l 814 0 l 121 0 m 233 397 l 233 592 l 738 592 l 738 397 l 233 397 m 440 1036 q 422 1065 429 1050 q 414 1097 414 1079 q 422 1129 414 1114 q 457 1163 431 1144 q 487 1185 475 1176 q 499 1207 499 1194 q 487 1226 499 1219 q 456 1232 475 1232 q 399 1224 429 1232 q 339 1204 368 1215 l 306 1321 q 381 1351 336 1339 q 474 1363 426 1363 q 598 1328 551 1363 q 644 1236 644 1293 q 626 1167 644 1190 q 586 1129 607 1143 q 548 1103 564 1115 q 532 1076 532 1090 q 533 1067 532 1072 q 536 1058 535 1063 l 440 1036 z "},"Ȇ":{"ha":896,"x_min":121,"x_max":814,"o":"m 121 0 l 121 972 l 799 972 l 799 769 l 353 769 l 353 203 l 814 203 l 814 0 l 121 0 m 233 397 l 233 592 l 738 592 l 738 397 l 233 397 m 369 1051 l 225 1069 q 274 1179 239 1132 q 360 1253 308 1226 q 475 1279 413 1279 q 590 1253 539 1279 q 677 1179 642 1226 q 725 1069 713 1132 l 581 1051 q 539 1110 567 1088 q 475 1133 511 1133 q 412 1110 440 1133 q 369 1051 383 1088 z "},"Ē":{"ha":896,"x_min":121,"x_max":814,"o":"m 121 0 l 121 972 l 799 972 l 799 769 l 353 769 l 353 203 l 814 203 l 814 0 l 121 0 m 233 397 l 233 592 l 738 592 l 738 397 l 233 397 m 224 1093 l 224 1236 l 725 1236 l 725 1093 l 224 1093 z "},"Ḗ":{"ha":896,"x_min":121,"x_max":814,"o":"m 121 0 l 121 972 l 799 972 l 799 769 l 353 769 l 353 203 l 814 203 l 814 0 l 121 0 m 233 397 l 233 592 l 738 592 l 738 397 l 233 397 m 224 1093 l 224 1236 l 725 1236 l 725 1093 l 224 1093 m 353 1301 l 301 1413 l 592 1574 l 668 1410 l 353 1301 z "},"Ḕ":{"ha":896,"x_min":121,"x_max":814,"o":"m 121 0 l 121 972 l 799 972 l 799 769 l 353 769 l 353 203 l 814 203 l 814 0 l 121 0 m 233 397 l 233 592 l 738 592 l 738 397 l 233 397 m 224 1093 l 224 1236 l 725 1236 l 725 1093 l 224 1093 m 610 1301 l 294 1410 l 374 1574 l 664 1413 l 610 1301 z "},"Ę":{"ha":896,"x_min":121,"x_max":814,"o":"m 121 0 l 121 972 l 799 972 l 799 769 l 353 769 l 353 203 l 814 203 l 814 0 l 121 0 m 233 397 l 233 592 l 738 592 l 738 397 l 233 397 m 640 -292 q 556 -273 594 -292 q 495 -220 518 -254 q 472 -143 472 -186 q 488 -75 472 -107 q 534 -16 504 -43 q 607 33 564 11 q 704 71 650 56 l 757 0 q 666 -41 703 -10 q 629 -107 629 -72 q 639 -136 629 -125 q 664 -147 649 -147 q 690 -139 679 -147 q 710 -114 700 -131 l 808 -187 q 744 -262 788 -232 q 640 -292 700 -292 z "},"Ẽ":{"ha":896,"x_min":121,"x_max":814,"o":"m 121 0 l 121 972 l 799 972 l 799 769 l 353 769 l 353 203 l 814 203 l 814 0 l 121 0 m 233 397 l 233 592 l 738 592 l 738 397 l 233 397 m 582 1065 q 526 1074 554 1065 q 464 1097 497 1083 q 422 1114 439 1108 q 392 1119 406 1119 q 360 1106 372 1119 q 349 1065 349 1092 l 210 1065 q 260 1211 210 1158 q 389 1264 311 1264 q 438 1257 414 1264 q 499 1233 463 1250 q 537 1217 521 1224 q 565 1211 553 1211 q 593 1226 583 1211 q 601 1264 603 1240 l 739 1264 q 719 1165 739 1210 q 665 1092 700 1119 q 582 1065 629 1065 z "},"F":{"ha":858,"x_min":121,"x_max":793,"o":"m 121 0 l 121 972 l 358 972 l 358 0 l 121 0 m 232 372 l 232 571 l 738 571 l 738 372 l 232 372 m 232 763 l 232 972 l 793 972 l 793 763 l 232 763 z "},"G":{"ha":1085,"x_min":60,"x_max":1028,"o":"m 572 -14 q 362 24 456 -14 q 200 129 268 61 q 96 289 132 197 q 60 489 60 381 q 99 689 60 597 q 208 849 138 781 q 374 954 278 917 q 586 992 471 992 q 737 971 665 992 q 867 914 808 950 q 965 832 926 878 l 819 679 q 712 753 769 726 q 582 781 654 781 q 472 759 522 781 q 383 698 421 738 q 324 605 344 658 q 303 489 303 551 q 325 374 303 426 q 387 281 347 321 q 479 219 426 242 q 593 197 532 197 q 673 210 636 197 q 738 247 710 224 q 783 301 767 269 q 799 368 799 332 l 799 404 l 829 357 l 564 357 l 564 544 l 1021 544 q 1025 503 1024 529 q 1027 452 1026 476 q 1028 414 1028 428 q 994 241 1028 319 q 898 106 960 163 q 753 17 836 49 q 572 -14 669 -14 z "},"Ğ":{"ha":1085,"x_min":60,"x_max":1028,"o":"m 572 -14 q 362 24 456 -14 q 200 129 268 61 q 96 289 132 197 q 60 489 60 381 q 99 689 60 597 q 208 849 138 781 q 374 954 278 917 q 586 992 471 992 q 737 971 665 992 q 867 914 808 950 q 965 832 926 878 l 819 679 q 712 753 769 726 q 582 781 654 781 q 472 759 522 781 q 383 698 421 738 q 324 605 344 658 q 303 489 303 551 q 325 374 303 426 q 387 281 347 321 q 479 219 426 242 q 593 197 532 197 q 673 210 636 197 q 738 247 710 224 q 783 301 767 269 q 799 368 799 332 l 799 404 l 829 357 l 564 357 l 564 544 l 1021 544 q 1025 503 1024 529 q 1027 452 1026 476 q 1028 414 1028 428 q 994 241 1028 319 q 898 106 960 163 q 753 17 836 49 q 572 -14 669 -14 m 571 1050 q 456 1077 508 1050 q 369 1152 404 1104 q 321 1261 335 1200 l 465 1278 q 508 1220 479 1243 q 571 1197 536 1197 q 635 1220 607 1197 q 676 1278 663 1243 l 821 1261 q 773 1152 808 1200 q 686 1077 738 1104 q 571 1050 635 1050 z "},"Ǧ":{"ha":1085,"x_min":60,"x_max":1028,"o":"m 572 -14 q 362 24 456 -14 q 200 129 268 61 q 96 289 132 197 q 60 489 60 381 q 99 689 60 597 q 208 849 138 781 q 374 954 278 917 q 586 992 471 992 q 737 971 665 992 q 867 914 808 950 q 965 832 926 878 l 819 679 q 712 753 769 726 q 582 781 654 781 q 472 759 522 781 q 383 698 421 738 q 324 605 344 658 q 303 489 303 551 q 325 374 303 426 q 387 281 347 321 q 479 219 426 242 q 593 197 532 197 q 673 210 636 197 q 738 247 710 224 q 783 301 767 269 q 799 368 799 332 l 799 404 l 829 357 l 564 357 l 564 544 l 1021 544 q 1025 503 1024 529 q 1027 452 1026 476 q 1028 414 1028 428 q 994 241 1028 319 q 898 106 960 163 q 753 17 836 49 q 572 -14 669 -14 m 504 1047 l 318 1199 l 388 1276 l 592 1178 l 550 1178 l 754 1276 l 824 1199 l 638 1047 l 504 1047 z "},"Ĝ":{"ha":1085,"x_min":60,"x_max":1028,"o":"m 572 -14 q 362 24 456 -14 q 200 129 268 61 q 96 289 132 197 q 60 489 60 381 q 99 689 60 597 q 208 849 138 781 q 374 954 278 917 q 586 992 471 992 q 737 971 665 992 q 867 914 808 950 q 965 832 926 878 l 819 679 q 712 753 769 726 q 582 781 654 781 q 472 759 522 781 q 383 698 421 738 q 324 605 344 658 q 303 489 303 551 q 325 374 303 426 q 387 281 347 321 q 479 219 426 242 q 593 197 532 197 q 673 210 636 197 q 738 247 710 224 q 783 301 767 269 q 799 368 799 332 l 799 404 l 829 357 l 564 357 l 564 544 l 1021 544 q 1025 503 1024 529 q 1027 452 1026 476 q 1028 414 1028 428 q 994 241 1028 319 q 898 106 960 163 q 753 17 836 49 q 572 -14 669 -14 m 389 1046 l 318 1126 l 508 1275 l 635 1275 l 824 1126 l 754 1046 l 551 1144 l 592 1144 l 389 1046 z "},"Ģ":{"ha":1085,"x_min":60,"x_max":1028,"o":"m 572 -14 q 362 24 456 -14 q 200 129 268 61 q 96 289 132 197 q 60 489 60 381 q 99 689 60 597 q 208 849 138 781 q 374 954 278 917 q 586 992 471 992 q 737 971 665 992 q 867 914 808 950 q 965 832 926 878 l 819 679 q 712 753 769 726 q 582 781 654 781 q 472 759 522 781 q 383 698 421 738 q 324 605 344 658 q 303 489 303 551 q 325 374 303 426 q 387 281 347 321 q 479 219 426 242 q 593 197 532 197 q 673 210 636 197 q 738 247 710 224 q 783 301 767 269 q 799 368 799 332 l 799 404 l 829 357 l 564 357 l 564 544 l 1021 544 q 1025 503 1024 529 q 1027 452 1026 476 q 1028 414 1028 428 q 994 241 1028 319 q 898 106 960 163 q 753 17 836 49 q 572 -14 669 -14 m 465 -407 l 410 -331 q 453 -312 429 -325 q 494 -283 476 -300 q 511 -250 511 -267 q 503 -233 511 -239 q 476 -219 494 -226 q 435 -190 447 -208 q 424 -144 424 -172 q 456 -78 424 -100 q 536 -56 488 -56 q 635 -89 594 -56 q 676 -190 676 -122 q 662 -263 676 -229 q 619 -324 647 -297 q 552 -372 590 -351 q 465 -407 514 -393 z "},"Ġ":{"ha":1085,"x_min":60,"x_max":1028,"o":"m 572 -14 q 362 24 456 -14 q 200 129 268 61 q 96 289 132 197 q 60 489 60 381 q 99 689 60 597 q 208 849 138 781 q 374 954 278 917 q 586 992 471 992 q 737 971 665 992 q 867 914 808 950 q 965 832 926 878 l 819 679 q 712 753 769 726 q 582 781 654 781 q 472 759 522 781 q 383 698 421 738 q 324 605 344 658 q 303 489 303 551 q 325 374 303 426 q 387 281 347 321 q 479 219 426 242 q 593 197 532 197 q 673 210 636 197 q 738 247 710 224 q 783 301 767 269 q 799 368 799 332 l 799 404 l 829 357 l 564 357 l 564 544 l 1021 544 q 1025 503 1024 529 q 1027 452 1026 476 q 1028 414 1028 428 q 994 241 1028 319 q 898 106 960 163 q 753 17 836 49 q 572 -14 669 -14 m 571 1050 q 472 1081 507 1050 q 438 1165 438 1111 q 472 1247 438 1214 q 571 1281 507 1281 q 670 1250 636 1281 q 704 1165 704 1219 q 669 1083 704 1117 q 571 1050 633 1050 z "},"Ḡ":{"ha":1085,"x_min":60,"x_max":1028,"o":"m 572 -14 q 362 24 456 -14 q 200 129 268 61 q 96 289 132 197 q 60 489 60 381 q 99 689 60 597 q 208 849 138 781 q 374 954 278 917 q 586 992 471 992 q 737 971 665 992 q 867 914 808 950 q 965 832 926 878 l 819 679 q 712 753 769 726 q 582 781 654 781 q 472 759 522 781 q 383 698 421 738 q 324 605 344 658 q 303 489 303 551 q 325 374 303 426 q 387 281 347 321 q 479 219 426 242 q 593 197 532 197 q 673 210 636 197 q 738 247 710 224 q 783 301 767 269 q 799 368 799 332 l 799 404 l 829 357 l 564 357 l 564 544 l 1021 544 q 1025 503 1024 529 q 1027 452 1026 476 q 1028 414 1028 428 q 994 241 1028 319 q 898 106 960 163 q 753 17 836 49 q 572 -14 669 -14 m 319 1093 l 319 1236 l 821 1236 l 821 1093 l 319 1093 z "},"H":{"ha":1083,"x_min":121,"x_max":963,"o":"m 725 0 l 725 972 l 963 972 l 963 0 l 725 0 m 121 0 l 121 972 l 358 972 l 358 0 l 121 0 m 215 378 l 215 592 l 850 592 l 850 378 l 215 378 z "},"Ħ":{"ha":1146,"x_min":49,"x_max":1100,"o":"m 49 663 l 49 857 l 178 857 l 285 842 l 828 842 l 944 857 l 1100 857 l 1100 663 l 949 663 l 846 676 l 271 676 l 172 663 l 49 663 m 757 0 l 757 972 l 994 972 l 994 0 l 757 0 m 153 0 l 153 972 l 390 972 l 390 0 l 153 0 m 247 378 l 247 592 l 882 592 l 882 378 l 247 378 z "},"Ḫ":{"ha":1083,"x_min":121,"x_max":963,"o":"m 725 0 l 725 972 l 963 972 l 963 0 l 725 0 m 121 0 l 121 972 l 358 972 l 358 0 l 121 0 m 215 378 l 215 592 l 850 592 l 850 378 l 215 378 m 543 -329 q 382 -269 450 -329 q 293 -106 314 -210 l 438 -89 q 482 -157 453 -132 q 543 -182 511 -182 q 605 -157 575 -182 q 649 -89 635 -132 l 793 -106 q 705 -269 772 -210 q 543 -329 638 -329 z "},"Ĥ":{"ha":1083,"x_min":121,"x_max":963,"o":"m 725 0 l 725 972 l 963 972 l 963 0 l 725 0 m 121 0 l 121 972 l 358 972 l 358 0 l 121 0 m 215 378 l 215 592 l 850 592 l 850 378 l 215 378 m 360 1046 l 289 1126 l 479 1275 l 606 1275 l 794 1126 l 725 1046 l 522 1144 l 563 1144 l 360 1046 z "},"Ḥ":{"ha":1083,"x_min":121,"x_max":963,"o":"m 725 0 l 725 972 l 963 972 l 963 0 l 725 0 m 121 0 l 121 972 l 358 972 l 358 0 l 121 0 m 215 378 l 215 592 l 850 592 l 850 378 l 215 378 m 543 -312 q 444 -281 479 -312 q 408 -194 408 -250 q 444 -108 408 -142 q 543 -75 479 -75 q 644 -106 608 -75 q 681 -194 681 -137 q 644 -280 681 -247 q 543 -312 607 -312 z "},"I":{"ha":771,"x_min":103,"x_max":668,"o":"m 103 0 l 103 200 l 267 200 l 267 772 l 103 772 l 103 972 l 668 972 l 668 772 l 504 772 l 504 200 l 668 200 l 668 0 l 103 0 z "},"Ĳ":{"ha":1697,"x_min":103,"x_max":1606,"o":"m 103 0 l 103 200 l 267 200 l 267 772 l 103 772 l 103 972 l 668 972 l 668 772 l 504 772 l 504 200 l 668 200 l 668 0 l 103 0 m 1136 -14 q 1037 -2 1083 -14 q 951 33 990 10 q 881 88 913 56 q 829 161 850 121 l 965 303 q 1015 242 992 265 q 1063 210 1039 219 q 1113 200 1086 200 q 1172 216 1146 200 q 1211 260 1197 232 q 1225 322 1225 288 l 1225 765 l 1046 765 l 1046 972 l 1606 972 l 1606 765 l 1456 765 l 1456 296 q 1431 168 1456 225 q 1364 71 1407 111 q 1263 8 1321 31 q 1136 -14 1204 -14 z "},"Í":{"ha":771,"x_min":103,"x_max":668,"o":"m 103 0 l 103 200 l 267 200 l 267 772 l 103 772 l 103 972 l 668 972 l 668 772 l 504 772 l 504 200 l 668 200 l 668 0 l 103 0 m 263 1039 l 211 1150 l 501 1311 l 578 1147 l 263 1039 z "},"Ĭ":{"ha":771,"x_min":103,"x_max":668,"o":"m 103 0 l 103 200 l 267 200 l 267 772 l 103 772 l 103 972 l 668 972 l 668 772 l 504 772 l 504 200 l 668 200 l 668 0 l 103 0 m 386 1050 q 272 1077 324 1050 q 185 1152 219 1104 q 136 1261 150 1200 l 281 1278 q 323 1220 294 1243 q 386 1197 351 1197 q 450 1220 422 1197 q 492 1278 478 1243 l 636 1261 q 588 1152 624 1200 q 501 1077 553 1104 q 386 1050 450 1050 z "},"Ǐ":{"ha":771,"x_min":103,"x_max":668,"o":"m 103 0 l 103 200 l 267 200 l 267 772 l 103 772 l 103 972 l 668 972 l 668 772 l 504 772 l 504 200 l 668 200 l 668 0 l 103 0 m 319 1047 l 133 1199 l 203 1276 l 407 1178 l 365 1178 l 569 1276 l 639 1199 l 453 1047 l 319 1047 z "},"Î":{"ha":771,"x_min":103,"x_max":668,"o":"m 103 0 l 103 200 l 267 200 l 267 772 l 103 772 l 103 972 l 668 972 l 668 772 l 504 772 l 504 200 l 668 200 l 668 0 l 103 0 m 203 1046 l 132 1126 l 322 1275 l 449 1275 l 638 1126 l 568 1046 l 365 1144 l 406 1144 l 203 1046 z "},"Ȉ":{"ha":771,"x_min":0,"x_max":668,"o":"m 103 0 l 103 200 l 267 200 l 267 772 l 103 772 l 103 972 l 668 972 l 668 772 l 504 772 l 504 200 l 668 200 l 668 0 l 103 0 m 558 1032 l 321 1203 l 439 1335 l 636 1124 l 558 1032 m 247 1026 l 0 1194 l 117 1333 l 324 1124 l 247 1026 z "},"Ï":{"ha":771,"x_min":94,"x_max":675,"o":"m 103 0 l 103 200 l 267 200 l 267 772 l 103 772 l 103 972 l 668 972 l 668 772 l 504 772 l 504 200 l 668 200 l 668 0 l 103 0 m 554 1047 q 464 1078 494 1047 q 433 1165 433 1108 q 465 1249 433 1214 q 554 1283 496 1283 q 645 1252 615 1283 q 675 1165 675 1221 q 644 1081 675 1115 q 554 1047 613 1047 m 215 1047 q 125 1078 156 1047 q 94 1165 94 1108 q 126 1249 94 1214 q 215 1283 157 1283 q 307 1252 276 1283 q 338 1165 338 1221 q 306 1081 338 1115 q 215 1047 274 1047 z "},"Ḯ":{"ha":771,"x_min":94,"x_max":675,"o":"m 103 0 l 103 200 l 267 200 l 267 772 l 103 772 l 103 972 l 668 972 l 668 772 l 504 772 l 504 200 l 668 200 l 668 0 l 103 0 m 263 1324 l 213 1436 l 503 1597 l 579 1432 l 263 1324 m 215 1047 q 125 1078 156 1047 q 94 1165 94 1108 q 126 1249 94 1214 q 215 1283 157 1283 q 307 1252 276 1283 q 338 1165 338 1221 q 306 1081 338 1115 q 215 1047 274 1047 m 554 1047 q 464 1078 494 1047 q 433 1165 433 1108 q 465 1249 433 1214 q 554 1283 496 1283 q 645 1252 615 1283 q 675 1165 675 1221 q 644 1081 675 1115 q 554 1047 613 1047 z "},"İ":{"ha":771,"x_min":103,"x_max":668,"o":"m 103 0 l 103 200 l 267 200 l 267 772 l 103 772 l 103 972 l 668 972 l 668 772 l 504 772 l 504 200 l 668 200 l 668 0 l 103 0 m 386 1050 q 288 1081 322 1050 q 253 1165 253 1111 q 288 1247 253 1214 q 386 1281 322 1281 q 485 1250 451 1281 q 519 1165 519 1219 q 484 1083 519 1117 q 386 1050 449 1050 z "},"Ị":{"ha":771,"x_min":103,"x_max":668,"o":"m 103 0 l 103 200 l 267 200 l 267 772 l 103 772 l 103 972 l 668 972 l 668 772 l 504 772 l 504 200 l 668 200 l 668 0 l 103 0 m 386 -312 q 287 -281 322 -312 q 251 -194 251 -250 q 287 -108 251 -142 q 386 -75 322 -75 q 488 -106 451 -75 q 524 -194 524 -137 q 487 -280 524 -247 q 386 -312 450 -312 z "},"Ì":{"ha":771,"x_min":103,"x_max":668,"o":"m 103 0 l 103 200 l 267 200 l 267 772 l 103 772 l 103 972 l 668 972 l 668 772 l 504 772 l 504 200 l 668 200 l 668 0 l 103 0 m 521 1039 l 206 1147 l 285 1311 l 575 1150 l 521 1039 z "},"Ỉ":{"ha":771,"x_min":103,"x_max":668,"o":"m 103 0 l 103 200 l 267 200 l 267 772 l 103 772 l 103 972 l 668 972 l 668 772 l 504 772 l 504 200 l 668 200 l 668 0 l 103 0 m 350 1036 q 331 1065 339 1050 q 324 1097 324 1079 q 332 1129 324 1114 q 367 1163 340 1144 q 397 1185 385 1176 q 408 1207 408 1194 q 397 1226 408 1219 q 365 1232 385 1232 q 308 1224 339 1232 q 249 1204 278 1215 l 215 1321 q 291 1351 246 1339 q 383 1363 336 1363 q 508 1328 461 1363 q 554 1236 554 1293 q 535 1167 554 1190 q 496 1129 517 1143 q 458 1103 474 1115 q 442 1076 442 1090 q 443 1067 442 1072 q 446 1058 444 1063 l 350 1036 z "},"Ȋ":{"ha":771,"x_min":103,"x_max":668,"o":"m 103 0 l 103 200 l 267 200 l 267 772 l 103 772 l 103 972 l 668 972 l 668 772 l 504 772 l 504 200 l 668 200 l 668 0 l 103 0 m 281 1051 l 136 1069 q 185 1179 150 1132 q 272 1253 219 1226 q 386 1279 324 1279 q 501 1253 450 1279 q 588 1179 553 1226 q 636 1069 624 1132 l 492 1051 q 450 1110 478 1088 q 386 1133 422 1133 q 323 1110 351 1133 q 281 1051 294 1088 z "},"Ī":{"ha":771,"x_min":103,"x_max":668,"o":"m 103 0 l 103 200 l 267 200 l 267 772 l 103 772 l 103 972 l 668 972 l 668 772 l 504 772 l 504 200 l 668 200 l 668 0 l 103 0 m 135 1093 l 135 1236 l 636 1236 l 636 1093 l 135 1093 z "},"Į":{"ha":771,"x_min":103,"x_max":668,"o":"m 103 0 l 103 200 l 267 200 l 267 772 l 103 772 l 103 972 l 668 972 l 668 772 l 504 772 l 504 200 l 668 200 l 668 0 l 103 0 m 436 -292 q 352 -273 390 -292 q 291 -220 314 -254 q 268 -143 268 -186 q 284 -75 268 -107 q 330 -16 300 -43 q 403 33 360 11 q 500 71 446 56 l 553 0 q 462 -41 499 -10 q 425 -107 425 -72 q 435 -136 425 -125 q 460 -147 444 -147 q 485 -139 475 -147 q 506 -114 496 -131 l 604 -187 q 540 -262 583 -232 q 436 -292 496 -292 z "},"Ĩ":{"ha":771,"x_min":103,"x_max":668,"o":"m 103 0 l 103 200 l 267 200 l 267 772 l 103 772 l 103 972 l 668 972 l 668 772 l 504 772 l 504 200 l 668 200 l 668 0 l 103 0 m 493 1065 q 437 1074 465 1065 q 375 1097 408 1083 q 333 1114 350 1108 q 303 1119 317 1119 q 272 1106 283 1119 q 260 1065 260 1092 l 121 1065 q 172 1211 121 1158 q 300 1264 222 1264 q 349 1257 325 1264 q 410 1233 374 1250 q 448 1217 432 1224 q 476 1211 464 1211 q 504 1226 494 1211 q 513 1264 514 1240 l 650 1264 q 631 1165 650 1210 q 576 1092 611 1119 q 493 1065 540 1065 z "},"J":{"ha":926,"x_min":57,"x_max":833,"o":"m 364 -14 q 265 -2 311 -14 q 179 33 218 10 q 109 88 140 56 q 57 161 78 121 l 193 303 q 243 242 219 265 q 290 210 267 219 q 340 200 314 200 q 399 216 374 200 q 439 260 425 232 q 453 322 453 288 l 453 765 l 274 765 l 274 972 l 833 972 l 833 765 l 683 765 l 683 296 q 659 168 683 225 q 592 71 635 111 q 490 8 549 31 q 364 -14 432 -14 z "},"Ĵ":{"ha":926,"x_min":57,"x_max":833,"o":"m 364 -14 q 265 -2 311 -14 q 179 33 218 10 q 109 88 140 56 q 57 161 78 121 l 193 303 q 243 242 219 265 q 290 210 267 219 q 340 200 314 200 q 399 216 374 200 q 439 260 425 232 q 453 322 453 288 l 453 765 l 274 765 l 274 972 l 833 972 l 833 765 l 683 765 l 683 296 q 659 168 683 225 q 592 71 635 111 q 490 8 549 31 q 364 -14 432 -14 m 383 1046 l 313 1126 l 503 1275 l 629 1275 l 818 1126 l 749 1046 l 546 1144 l 586 1144 l 383 1046 z "},"K":{"ha":1031,"x_min":121,"x_max":1024,"o":"m 297 285 l 236 486 l 717 972 l 999 972 l 297 285 m 121 0 l 121 972 l 358 972 l 358 0 l 121 0 m 746 0 l 386 475 l 546 613 l 1024 0 l 746 0 z "},"Ķ":{"ha":1031,"x_min":121,"x_max":1024,"o":"m 297 285 l 236 486 l 717 972 l 999 972 l 297 285 m 121 0 l 121 972 l 358 972 l 358 0 l 121 0 m 746 0 l 386 475 l 546 613 l 1024 0 l 746 0 m 438 -407 l 382 -331 q 425 -312 401 -325 q 466 -283 449 -300 q 483 -250 483 -267 q 475 -233 483 -239 q 449 -219 467 -226 q 408 -190 419 -208 q 396 -144 396 -172 q 428 -78 396 -100 q 508 -56 460 -56 q 608 -89 567 -56 q 649 -190 649 -122 q 634 -263 649 -229 q 591 -324 619 -297 q 524 -372 563 -351 q 438 -407 486 -393 z "},"L":{"ha":847,"x_min":121,"x_max":792,"o":"m 121 0 l 121 972 l 358 972 l 358 210 l 792 210 l 792 0 l 121 0 z "},"Ǉ":{"ha":1774,"x_min":121,"x_max":1681,"o":"m 121 0 l 121 972 l 358 972 l 358 210 l 792 210 l 792 0 l 121 0 m 1211 -14 q 1112 -2 1158 -14 q 1026 33 1065 10 q 956 88 988 56 q 904 161 925 121 l 1040 303 q 1090 242 1067 265 q 1138 210 1114 219 q 1188 200 1161 200 q 1247 216 1221 200 q 1286 260 1272 232 q 1300 322 1300 288 l 1300 765 l 1121 765 l 1121 972 l 1681 972 l 1681 765 l 1531 765 l 1531 296 q 1506 168 1531 225 q 1439 71 1482 111 q 1338 8 1396 31 q 1211 -14 1279 -14 z "},"Ĺ":{"ha":847,"x_min":68,"x_max":792,"o":"m 121 0 l 121 972 l 358 972 l 358 210 l 792 210 l 792 0 l 121 0 m 119 1039 l 68 1150 l 358 1311 l 435 1147 l 119 1039 z "},"Ľ":{"ha":847,"x_min":121,"x_max":792,"o":"m 121 0 l 121 972 l 358 972 l 358 210 l 792 210 l 792 0 l 121 0 m 547 621 l 492 697 q 535 715 511 703 q 576 744 558 728 q 593 778 593 760 q 585 795 593 789 q 558 807 576 801 q 517 837 529 819 q 506 882 506 854 q 538 949 506 926 q 618 972 569 972 q 717 938 676 972 q 758 838 758 904 q 744 763 758 797 q 701 702 729 729 q 634 655 672 675 q 547 621 596 635 z "},"Ļ":{"ha":847,"x_min":121,"x_max":792,"o":"m 121 0 l 121 972 l 358 972 l 358 210 l 792 210 l 792 0 l 121 0 m 347 -407 l 292 -331 q 335 -312 311 -325 q 376 -283 358 -300 q 393 -250 393 -267 q 385 -233 393 -239 q 358 -219 376 -226 q 317 -190 329 -208 q 306 -144 306 -172 q 338 -78 306 -100 q 418 -56 369 -56 q 517 -89 476 -56 q 558 -190 558 -122 q 544 -263 558 -229 q 501 -324 529 -297 q 434 -372 472 -351 q 347 -407 396 -393 z "},"Ŀ":{"ha":847,"x_min":121,"x_max":792,"o":"m 121 0 l 121 972 l 358 972 l 358 210 l 792 210 l 792 0 l 121 0 m 665 414 q 577 447 608 414 q 546 539 546 479 q 578 630 546 594 q 665 665 611 665 q 754 633 722 665 q 786 539 786 600 q 752 449 786 483 q 665 414 718 414 z "},"Ḷ":{"ha":847,"x_min":121,"x_max":792,"o":"m 121 0 l 121 972 l 358 972 l 358 210 l 792 210 l 792 0 l 121 0 m 425 -312 q 326 -281 361 -312 q 290 -194 290 -250 q 326 -108 290 -142 q 425 -75 361 -75 q 526 -106 490 -75 q 563 -194 563 -137 q 526 -280 563 -247 q 425 -312 489 -312 z "},"ǈ":{"ha":1289,"x_min":121,"x_max":1211,"o":"m 121 0 l 121 972 l 358 972 l 358 210 l 792 210 l 792 0 l 121 0 m 881 -292 l 794 -119 q 926 -81 889 -119 q 963 57 963 -43 l 963 738 l 1186 738 l 1186 4 q 1151 -162 1186 -96 q 1047 -260 1115 -228 q 881 -292 979 -292 m 1078 883 q 980 913 1014 883 q 946 999 946 943 q 981 1082 946 1050 q 1078 1114 1015 1114 q 1176 1084 1140 1114 q 1211 999 1211 1054 q 1175 915 1211 947 q 1078 883 1139 883 z "},"Ḻ":{"ha":847,"x_min":121,"x_max":792,"o":"m 121 0 l 121 972 l 358 972 l 358 210 l 792 210 l 792 0 l 121 0 m 211 -276 l 211 -112 l 636 -112 l 636 -276 l 211 -276 z "},"Ł":{"ha":875,"x_min":-7,"x_max":818,"o":"m 60 328 l -7 501 l 488 718 l 556 543 l 60 328 m 147 0 l 147 972 l 385 972 l 385 210 l 818 210 l 818 0 l 147 0 z "},"M":{"ha":1219,"x_min":121,"x_max":1099,"o":"m 121 0 l 121 972 l 333 972 l 686 399 l 536 400 l 893 972 l 1099 972 l 1099 0 l 868 0 l 868 294 q 874 524 868 422 q 896 725 881 626 l 922 653 l 654 238 l 560 238 l 297 650 l 324 725 q 347 533 340 632 q 353 294 353 433 l 353 0 l 121 0 z "},"Ṃ":{"ha":1219,"x_min":121,"x_max":1099,"o":"m 121 0 l 121 972 l 333 972 l 686 399 l 536 400 l 893 972 l 1099 972 l 1099 0 l 868 0 l 868 294 q 874 524 868 422 q 896 725 881 626 l 922 653 l 654 238 l 560 238 l 297 650 l 324 725 q 347 533 340 632 q 353 294 353 433 l 353 0 l 121 0 m 610 -312 q 510 -281 546 -312 q 475 -194 475 -250 q 510 -108 475 -142 q 610 -75 546 -75 q 711 -106 675 -75 q 747 -194 747 -137 q 710 -280 747 -247 q 610 -312 674 -312 z "},"N":{"ha":1122,"x_min":121,"x_max":1001,"o":"m 121 0 l 121 972 l 333 972 l 844 279 l 799 285 q 782 430 789 363 q 773 571 775 497 q 771 740 771 644 l 771 972 l 1001 972 l 1001 0 l 786 0 l 256 714 l 324 704 q 339 564 333 619 q 347 469 344 508 q 351 395 350 429 q 353 319 353 361 l 353 0 l 121 0 z "},"Ǌ":{"ha":2049,"x_min":121,"x_max":1957,"o":"m 121 0 l 121 972 l 333 972 l 844 279 l 799 285 q 782 430 789 363 q 773 571 775 497 q 771 740 771 644 l 771 972 l 1001 972 l 1001 0 l 786 0 l 256 714 l 324 704 q 339 564 333 619 q 347 469 344 508 q 351 395 350 429 q 353 319 353 361 l 353 0 l 121 0 m 1488 -14 q 1388 -2 1435 -14 q 1303 33 1342 10 q 1233 88 1264 56 q 1181 161 1201 121 l 1317 303 q 1367 242 1343 265 q 1414 210 1390 219 q 1464 200 1438 200 q 1523 216 1497 200 q 1563 260 1549 232 q 1576 322 1576 288 l 1576 765 l 1397 765 l 1397 972 l 1957 972 l 1957 765 l 1807 765 l 1807 296 q 1783 168 1807 225 q 1715 71 1758 111 q 1614 8 1672 31 q 1488 -14 1556 -14 z "},"Ń":{"ha":1122,"x_min":121,"x_max":1001,"o":"m 121 0 l 121 972 l 333 972 l 844 279 l 799 285 q 782 430 789 363 q 773 571 775 497 q 771 740 771 644 l 771 972 l 1001 972 l 1001 0 l 786 0 l 256 714 l 324 704 q 339 564 333 619 q 347 469 344 508 q 351 395 350 429 q 353 319 353 361 l 353 0 l 121 0 m 439 1039 l 388 1150 l 678 1311 l 754 1147 l 439 1039 z "},"Ň":{"ha":1122,"x_min":121,"x_max":1001,"o":"m 121 0 l 121 972 l 333 972 l 844 279 l 799 285 q 782 430 789 363 q 773 571 775 497 q 771 740 771 644 l 771 972 l 1001 972 l 1001 0 l 786 0 l 256 714 l 324 704 q 339 564 333 619 q 347 469 344 508 q 351 395 350 429 q 353 319 353 361 l 353 0 l 121 0 m 496 1047 l 310 1199 l 379 1276 l 583 1178 l 542 1178 l 746 1276 l 815 1199 l 629 1047 l 496 1047 z "},"Ņ":{"ha":1122,"x_min":121,"x_max":1001,"o":"m 121 0 l 121 972 l 333 972 l 844 279 l 799 285 q 782 430 789 363 q 773 571 775 497 q 771 740 771 644 l 771 972 l 1001 972 l 1001 0 l 786 0 l 256 714 l 324 704 q 339 564 333 619 q 347 469 344 508 q 351 395 350 429 q 353 319 353 361 l 353 0 l 121 0 m 485 -407 l 429 -331 q 472 -312 449 -325 q 513 -283 496 -300 q 531 -250 531 -267 q 522 -233 531 -239 q 496 -219 514 -226 q 455 -190 467 -208 q 443 -144 443 -172 q 475 -78 443 -100 q 556 -56 507 -56 q 655 -89 614 -56 q 696 -190 696 -122 q 681 -263 696 -229 q 638 -324 667 -297 q 572 -372 610 -351 q 485 -407 533 -393 z "},"Ṅ":{"ha":1122,"x_min":121,"x_max":1001,"o":"m 121 0 l 121 972 l 333 972 l 844 279 l 799 285 q 782 430 789 363 q 773 571 775 497 q 771 740 771 644 l 771 972 l 1001 972 l 1001 0 l 786 0 l 256 714 l 324 704 q 339 564 333 619 q 347 469 344 508 q 351 395 350 429 q 353 319 353 361 l 353 0 l 121 0 m 563 1050 q 464 1081 499 1050 q 429 1165 429 1111 q 464 1247 429 1214 q 563 1281 499 1281 q 662 1250 628 1281 q 696 1165 696 1219 q 660 1083 696 1117 q 563 1050 625 1050 z "},"Ṇ":{"ha":1122,"x_min":121,"x_max":1001,"o":"m 121 0 l 121 972 l 333 972 l 844 279 l 799 285 q 782 430 789 363 q 773 571 775 497 q 771 740 771 644 l 771 972 l 1001 972 l 1001 0 l 786 0 l 256 714 l 324 704 q 339 564 333 619 q 347 469 344 508 q 351 395 350 429 q 353 319 353 361 l 353 0 l 121 0 m 563 -312 q 463 -281 499 -312 q 428 -194 428 -250 q 463 -108 428 -142 q 563 -75 499 -75 q 664 -106 628 -75 q 700 -194 700 -137 q 663 -280 700 -247 q 563 -312 626 -312 z "},"Ɲ":{"ha":1107,"x_min":-69,"x_max":986,"o":"m 24 -282 l -69 -108 q 64 -67 19 -108 q 108 57 108 -25 l 108 972 l 319 972 l 831 279 l 785 285 q 767 430 774 363 q 758 571 761 497 q 756 740 756 644 l 756 972 l 986 972 l 986 0 l 772 0 l 240 714 l 310 704 q 324 577 318 633 q 333 473 329 521 q 338 379 336 425 q 339 283 339 333 l 339 4 q 302 -157 339 -93 q 195 -251 265 -221 q 24 -282 125 -282 z "},"ǋ":{"ha":1564,"x_min":121,"x_max":1488,"o":"m 121 0 l 121 972 l 333 972 l 844 279 l 799 285 q 782 430 789 363 q 773 571 775 497 q 771 740 771 644 l 771 972 l 1001 972 l 1001 0 l 786 0 l 256 714 l 324 704 q 339 564 333 619 q 347 469 344 508 q 351 395 350 429 q 353 319 353 361 l 353 0 l 121 0 m 1157 -292 l 1071 -119 q 1202 -81 1165 -119 q 1239 57 1239 -43 l 1239 738 l 1463 738 l 1463 4 q 1427 -162 1463 -96 q 1324 -260 1392 -228 q 1157 -292 1256 -292 m 1354 883 q 1256 913 1290 883 q 1222 999 1222 943 q 1257 1082 1222 1050 q 1354 1114 1292 1114 q 1452 1084 1417 1114 q 1488 999 1488 1054 q 1451 915 1488 947 q 1354 883 1415 883 z "},"Ṉ":{"ha":1122,"x_min":121,"x_max":1001,"o":"m 121 0 l 121 972 l 333 972 l 844 279 l 799 285 q 782 430 789 363 q 773 571 775 497 q 771 740 771 644 l 771 972 l 1001 972 l 1001 0 l 786 0 l 256 714 l 324 704 q 339 564 333 619 q 347 469 344 508 q 351 395 350 429 q 353 319 353 361 l 353 0 l 121 0 m 349 -276 l 349 -112 l 774 -112 l 774 -276 l 349 -276 z "},"Ñ":{"ha":1122,"x_min":121,"x_max":1001,"o":"m 121 0 l 121 972 l 333 972 l 844 279 l 799 285 q 782 430 789 363 q 773 571 775 497 q 771 740 771 644 l 771 972 l 1001 972 l 1001 0 l 786 0 l 256 714 l 324 704 q 339 564 333 619 q 347 469 344 508 q 351 395 350 429 q 353 319 353 361 l 353 0 l 121 0 m 669 1065 q 613 1074 642 1065 q 551 1097 585 1083 q 510 1114 526 1108 q 479 1119 493 1119 q 448 1106 460 1119 q 436 1065 436 1092 l 297 1065 q 348 1211 297 1158 q 476 1264 399 1264 q 526 1257 501 1264 q 586 1233 550 1250 q 624 1217 608 1224 q 653 1211 640 1211 q 681 1226 671 1211 q 689 1264 690 1240 l 826 1264 q 807 1165 826 1210 q 752 1092 788 1119 q 669 1065 717 1065 z "},"Ŋ":{"ha":1122,"x_min":121,"x_max":1001,"o":"m 688 -282 l 593 -108 q 682 -97 640 -108 q 750 -60 724 -85 q 776 4 776 -35 l 776 88 l 788 -1 l 314 632 l 332 646 q 340 565 336 607 q 347 484 343 524 q 351 410 350 444 q 353 353 353 376 l 353 0 l 121 0 l 121 972 l 333 972 l 817 318 l 796 306 q 780 447 786 382 q 772 583 774 513 q 771 740 771 653 l 771 972 l 1001 972 l 1001 -12 q 963 -164 1001 -104 q 855 -253 925 -224 q 688 -282 785 -282 z "},"O":{"ha":1125,"x_min":60,"x_max":1065,"o":"m 564 -14 q 362 24 454 -14 q 202 128 269 61 q 97 288 135 196 q 60 490 60 381 q 97 691 60 599 q 202 851 135 783 q 362 957 269 919 q 564 994 454 994 q 764 957 672 994 q 923 851 856 919 q 1028 691 990 783 q 1065 489 1065 599 q 1028 289 1065 381 q 923 129 990 197 q 764 24 856 61 q 564 -14 672 -14 m 564 210 q 668 231 621 210 q 751 289 715 251 q 806 378 786 326 q 825 489 825 429 q 806 601 825 550 q 751 691 786 653 q 668 750 715 729 q 564 771 621 771 q 459 750 507 771 q 376 691 411 729 q 321 601 340 653 q 301 489 301 550 q 335 345 301 408 q 428 246 369 282 q 564 210 488 210 z "},"Ó":{"ha":1125,"x_min":60,"x_max":1065,"o":"m 564 -14 q 362 24 454 -14 q 202 128 269 61 q 97 288 135 196 q 60 490 60 381 q 97 691 60 599 q 202 851 135 783 q 362 957 269 919 q 564 994 454 994 q 764 957 672 994 q 923 851 856 919 q 1028 691 990 783 q 1065 489 1065 599 q 1028 289 1065 381 q 923 129 990 197 q 764 24 856 61 q 564 -14 672 -14 m 564 210 q 668 231 621 210 q 751 289 715 251 q 806 378 786 326 q 825 489 825 429 q 806 601 825 550 q 751 691 786 653 q 668 750 715 729 q 564 771 621 771 q 459 750 507 771 q 376 691 411 729 q 321 601 340 653 q 301 489 301 550 q 335 345 301 408 q 428 246 369 282 q 564 210 488 210 m 440 1039 l 389 1150 l 679 1311 l 756 1147 l 440 1039 z "},"Ŏ":{"ha":1125,"x_min":60,"x_max":1065,"o":"m 564 -14 q 362 24 454 -14 q 202 128 269 61 q 97 288 135 196 q 60 490 60 381 q 97 691 60 599 q 202 851 135 783 q 362 957 269 919 q 564 994 454 994 q 764 957 672 994 q 923 851 856 919 q 1028 691 990 783 q 1065 489 1065 599 q 1028 289 1065 381 q 923 129 990 197 q 764 24 856 61 q 564 -14 672 -14 m 564 210 q 668 231 621 210 q 751 289 715 251 q 806 378 786 326 q 825 489 825 429 q 806 601 825 550 q 751 691 786 653 q 668 750 715 729 q 564 771 621 771 q 459 750 507 771 q 376 691 411 729 q 321 601 340 653 q 301 489 301 550 q 335 345 301 408 q 428 246 369 282 q 564 210 488 210 m 564 1050 q 449 1077 501 1050 q 363 1152 397 1104 q 314 1261 328 1200 l 458 1278 q 501 1220 472 1243 q 564 1197 529 1197 q 628 1220 600 1197 q 669 1278 656 1243 l 814 1261 q 766 1152 801 1200 q 679 1077 731 1104 q 564 1050 628 1050 z "},"Ǒ":{"ha":1125,"x_min":60,"x_max":1065,"o":"m 564 -14 q 362 24 454 -14 q 202 128 269 61 q 97 288 135 196 q 60 490 60 381 q 97 691 60 599 q 202 851 135 783 q 362 957 269 919 q 564 994 454 994 q 764 957 672 994 q 923 851 856 919 q 1028 691 990 783 q 1065 489 1065 599 q 1028 289 1065 381 q 923 129 990 197 q 764 24 856 61 q 564 -14 672 -14 m 564 210 q 668 231 621 210 q 751 289 715 251 q 806 378 786 326 q 825 489 825 429 q 806 601 825 550 q 751 691 786 653 q 668 750 715 729 q 564 771 621 771 q 459 750 507 771 q 376 691 411 729 q 321 601 340 653 q 301 489 301 550 q 335 345 301 408 q 428 246 369 282 q 564 210 488 210 m 497 1047 l 311 1199 l 381 1276 l 585 1178 l 543 1178 l 747 1276 l 817 1199 l 631 1047 l 497 1047 z "},"Ô":{"ha":1125,"x_min":60,"x_max":1065,"o":"m 564 -14 q 362 24 454 -14 q 202 128 269 61 q 97 288 135 196 q 60 490 60 381 q 97 691 60 599 q 202 851 135 783 q 362 957 269 919 q 564 994 454 994 q 764 957 672 994 q 923 851 856 919 q 1028 691 990 783 q 1065 489 1065 599 q 1028 289 1065 381 q 923 129 990 197 q 764 24 856 61 q 564 -14 672 -14 m 564 210 q 668 231 621 210 q 751 289 715 251 q 806 378 786 326 q 825 489 825 429 q 806 601 825 550 q 751 691 786 653 q 668 750 715 729 q 564 771 621 771 q 459 750 507 771 q 376 691 411 729 q 321 601 340 653 q 301 489 301 550 q 335 345 301 408 q 428 246 369 282 q 564 210 488 210 m 379 1046 l 308 1126 l 499 1275 l 625 1275 l 814 1126 l 744 1046 l 542 1144 l 582 1144 l 379 1046 z "},"Ố":{"ha":1125,"x_min":60,"x_max":1065,"o":"m 564 -14 q 362 24 454 -14 q 202 128 269 61 q 97 288 135 196 q 60 490 60 381 q 97 691 60 599 q 202 851 135 783 q 362 957 269 919 q 564 994 454 994 q 764 957 672 994 q 923 851 856 919 q 1028 691 990 783 q 1065 489 1065 599 q 1028 289 1065 381 q 923 129 990 197 q 764 24 856 61 q 564 -14 672 -14 m 564 210 q 668 231 621 210 q 751 289 715 251 q 806 378 786 326 q 825 489 825 429 q 806 601 825 550 q 751 691 786 653 q 668 750 715 729 q 564 771 621 771 q 459 750 507 771 q 376 691 411 729 q 321 601 340 653 q 301 489 301 550 q 335 345 301 408 q 428 246 369 282 q 564 210 488 210 m 376 1042 l 311 1118 l 500 1260 l 625 1260 l 811 1118 l 749 1042 l 542 1131 l 582 1131 l 376 1042 m 813 1221 l 722 1285 l 854 1513 l 994 1411 l 813 1221 z "},"Ộ":{"ha":1125,"x_min":60,"x_max":1065,"o":"m 564 -14 q 362 24 454 -14 q 202 128 269 61 q 97 288 135 196 q 60 490 60 381 q 97 691 60 599 q 202 851 135 783 q 362 957 269 919 q 564 994 454 994 q 764 957 672 994 q 923 851 856 919 q 1028 691 990 783 q 1065 489 1065 599 q 1028 289 1065 381 q 923 129 990 197 q 764 24 856 61 q 564 -14 672 -14 m 564 210 q 668 231 621 210 q 751 289 715 251 q 806 378 786 326 q 825 489 825 429 q 806 601 825 550 q 751 691 786 653 q 668 750 715 729 q 564 771 621 771 q 459 750 507 771 q 376 691 411 729 q 321 601 340 653 q 301 489 301 550 q 335 345 301 408 q 428 246 369 282 q 564 210 488 210 m 564 -312 q 465 -281 500 -312 q 429 -194 429 -250 q 465 -108 429 -142 q 564 -75 500 -75 q 665 -106 629 -75 q 701 -194 701 -137 q 665 -280 701 -247 q 564 -312 628 -312 m 379 1046 l 308 1126 l 499 1275 l 625 1275 l 814 1126 l 744 1046 l 542 1144 l 582 1144 l 379 1046 z "},"Ồ":{"ha":1125,"x_min":60,"x_max":1065,"o":"m 564 -14 q 362 24 454 -14 q 202 128 269 61 q 97 288 135 196 q 60 490 60 381 q 97 691 60 599 q 202 851 135 783 q 362 957 269 919 q 564 994 454 994 q 764 957 672 994 q 923 851 856 919 q 1028 691 990 783 q 1065 489 1065 599 q 1028 289 1065 381 q 923 129 990 197 q 764 24 856 61 q 564 -14 672 -14 m 564 210 q 668 231 621 210 q 751 289 715 251 q 806 378 786 326 q 825 489 825 429 q 806 601 825 550 q 751 691 786 653 q 668 750 715 729 q 564 771 621 771 q 459 750 507 771 q 376 691 411 729 q 321 601 340 653 q 301 489 301 550 q 335 345 301 408 q 428 246 369 282 q 564 210 488 210 m 376 1042 l 314 1118 l 500 1260 l 625 1260 l 814 1118 l 749 1042 l 543 1131 l 583 1131 l 376 1042 m 799 1222 l 614 1413 l 754 1515 l 886 1286 l 799 1222 z "},"Ổ":{"ha":1125,"x_min":60,"x_max":1065,"o":"m 564 -14 q 362 24 454 -14 q 202 128 269 61 q 97 288 135 196 q 60 490 60 381 q 97 691 60 599 q 202 851 135 783 q 362 957 269 919 q 564 994 454 994 q 764 957 672 994 q 923 851 856 919 q 1028 691 990 783 q 1065 489 1065 599 q 1028 289 1065 381 q 923 129 990 197 q 764 24 856 61 q 564 -14 672 -14 m 564 210 q 668 231 621 210 q 751 289 715 251 q 806 378 786 326 q 825 489 825 429 q 806 601 825 550 q 751 691 786 653 q 668 750 715 729 q 564 771 621 771 q 459 750 507 771 q 376 691 411 729 q 321 601 340 653 q 301 489 301 550 q 335 345 301 408 q 428 246 369 282 q 564 210 488 210 m 376 1042 l 314 1118 l 500 1260 l 626 1260 l 814 1118 l 750 1042 l 543 1131 l 585 1131 l 376 1042 m 774 1215 q 756 1242 763 1228 q 749 1271 749 1257 q 755 1298 749 1286 q 783 1325 761 1310 q 810 1346 800 1336 q 822 1365 821 1356 q 810 1385 822 1378 q 778 1392 797 1392 q 722 1383 751 1392 q 663 1363 692 1374 l 632 1482 q 705 1508 661 1497 q 792 1519 749 1519 q 922 1484 874 1519 q 971 1390 971 1449 q 950 1330 971 1351 q 906 1294 929 1308 q 869 1270 883 1281 q 854 1247 854 1260 q 857 1236 854 1242 l 774 1215 z "},"Ỗ":{"ha":1125,"x_min":60,"x_max":1065,"o":"m 564 -14 q 362 24 454 -14 q 202 128 269 61 q 97 288 135 196 q 60 490 60 381 q 97 691 60 599 q 202 851 135 783 q 362 957 269 919 q 564 994 454 994 q 764 957 672 994 q 923 851 856 919 q 1028 691 990 783 q 1065 489 1065 599 q 1028 289 1065 381 q 923 129 990 197 q 764 24 856 61 q 564 -14 672 -14 m 564 210 q 668 231 621 210 q 751 289 715 251 q 806 378 786 326 q 825 489 825 429 q 806 601 825 550 q 751 691 786 653 q 668 750 715 729 q 564 771 621 771 q 459 750 507 771 q 376 691 411 729 q 321 601 340 653 q 301 489 301 550 q 335 345 301 408 q 428 246 369 282 q 564 210 488 210 m 375 1042 l 311 1118 l 499 1260 l 625 1260 l 811 1118 l 749 1042 l 542 1131 l 582 1131 l 375 1042 m 675 1324 q 616 1332 644 1324 q 558 1351 588 1340 q 516 1369 533 1363 q 485 1375 499 1375 q 450 1361 463 1375 q 432 1324 438 1347 l 304 1331 q 352 1460 307 1410 q 468 1511 397 1511 q 520 1504 497 1511 q 575 1482 543 1497 q 613 1466 594 1472 q 646 1460 632 1460 q 676 1474 667 1460 q 692 1513 686 1489 l 819 1507 q 778 1377 818 1431 q 675 1324 739 1324 z "},"Ȍ":{"ha":1125,"x_min":60,"x_max":1065,"o":"m 564 -14 q 362 24 454 -14 q 202 128 269 61 q 97 288 135 196 q 60 490 60 381 q 97 691 60 599 q 202 851 135 783 q 362 957 269 919 q 564 994 454 994 q 764 957 672 994 q 923 851 856 919 q 1028 691 990 783 q 1065 489 1065 599 q 1028 289 1065 381 q 923 129 990 197 q 764 24 856 61 q 564 -14 672 -14 m 564 210 q 668 231 621 210 q 751 289 715 251 q 806 378 786 326 q 825 489 825 429 q 806 601 825 550 q 751 691 786 653 q 668 750 715 729 q 564 771 621 771 q 459 750 507 771 q 376 691 411 729 q 321 601 340 653 q 301 489 301 550 q 335 345 301 408 q 428 246 369 282 q 564 210 488 210 m 735 1032 l 497 1203 l 615 1335 l 813 1124 l 735 1032 m 424 1026 l 176 1194 l 293 1333 l 500 1124 l 424 1026 z "},"Ö":{"ha":1125,"x_min":60,"x_max":1065,"o":"m 564 -14 q 362 24 454 -14 q 202 128 269 61 q 97 288 135 196 q 60 490 60 381 q 97 691 60 599 q 202 851 135 783 q 362 957 269 919 q 564 994 454 994 q 764 957 672 994 q 923 851 856 919 q 1028 691 990 783 q 1065 489 1065 599 q 1028 289 1065 381 q 923 129 990 197 q 764 24 856 61 q 564 -14 672 -14 m 564 210 q 668 231 621 210 q 751 289 715 251 q 806 378 786 326 q 825 489 825 429 q 806 601 825 550 q 751 691 786 653 q 668 750 715 729 q 564 771 621 771 q 459 750 507 771 q 376 691 411 729 q 321 601 340 653 q 301 489 301 550 q 335 345 301 408 q 428 246 369 282 q 564 210 488 210 m 731 1047 q 640 1078 671 1047 q 610 1165 610 1108 q 641 1249 610 1214 q 731 1283 672 1283 q 822 1252 792 1283 q 851 1165 851 1221 q 820 1081 851 1115 q 731 1047 789 1047 m 392 1047 q 301 1078 332 1047 q 271 1165 271 1108 q 302 1249 271 1214 q 392 1283 333 1283 q 483 1252 453 1283 q 514 1165 514 1221 q 482 1081 514 1115 q 392 1047 450 1047 z "},"Ȫ":{"ha":1125,"x_min":60,"x_max":1065,"o":"m 564 -14 q 362 24 454 -14 q 202 128 269 61 q 97 288 135 196 q 60 490 60 381 q 97 691 60 599 q 202 851 135 783 q 362 957 269 919 q 564 994 454 994 q 764 957 672 994 q 923 851 856 919 q 1028 691 990 783 q 1065 489 1065 599 q 1028 289 1065 381 q 923 129 990 197 q 764 24 856 61 q 564 -14 672 -14 m 564 210 q 668 231 621 210 q 751 289 715 251 q 806 378 786 326 q 825 489 825 429 q 806 601 825 550 q 751 691 786 653 q 668 750 715 729 q 564 771 621 771 q 459 750 507 771 q 376 691 411 729 q 321 601 340 653 q 301 489 301 550 q 335 345 301 408 q 428 246 369 282 q 564 210 488 210 m 731 1047 q 640 1078 671 1047 q 610 1165 610 1108 q 641 1249 610 1214 q 731 1283 672 1283 q 822 1252 792 1283 q 851 1165 851 1221 q 820 1081 851 1115 q 731 1047 789 1047 m 392 1047 q 301 1078 332 1047 q 271 1165 271 1108 q 302 1249 271 1214 q 392 1283 333 1283 q 483 1252 453 1283 q 514 1165 514 1221 q 482 1081 514 1115 q 392 1047 450 1047 m 310 1356 l 310 1499 l 811 1499 l 811 1356 l 310 1356 z "},"Ȱ":{"ha":1125,"x_min":60,"x_max":1065,"o":"m 564 -14 q 362 24 454 -14 q 202 128 269 61 q 97 288 135 196 q 60 490 60 381 q 97 691 60 599 q 202 851 135 783 q 362 957 269 919 q 564 994 454 994 q 764 957 672 994 q 923 851 856 919 q 1028 691 990 783 q 1065 489 1065 599 q 1028 289 1065 381 q 923 129 990 197 q 764 24 856 61 q 564 -14 672 -14 m 564 210 q 668 231 621 210 q 751 289 715 251 q 806 378 786 326 q 825 489 825 429 q 806 601 825 550 q 751 691 786 653 q 668 750 715 729 q 564 771 621 771 q 459 750 507 771 q 376 691 411 729 q 321 601 340 653 q 301 489 301 550 q 335 345 301 408 q 428 246 369 282 q 564 210 488 210 m 563 1050 q 464 1081 499 1050 q 429 1165 429 1111 q 464 1247 429 1214 q 563 1281 499 1281 q 662 1250 628 1281 q 696 1165 696 1219 q 660 1083 696 1117 q 563 1050 625 1050 m 311 1356 l 311 1499 l 813 1499 l 813 1356 l 311 1356 z "},"Ọ":{"ha":1125,"x_min":60,"x_max":1065,"o":"m 564 -14 q 362 24 454 -14 q 202 128 269 61 q 97 288 135 196 q 60 490 60 381 q 97 691 60 599 q 202 851 135 783 q 362 957 269 919 q 564 994 454 994 q 764 957 672 994 q 923 851 856 919 q 1028 691 990 783 q 1065 489 1065 599 q 1028 289 1065 381 q 923 129 990 197 q 764 24 856 61 q 564 -14 672 -14 m 564 210 q 668 231 621 210 q 751 289 715 251 q 806 378 786 326 q 825 489 825 429 q 806 601 825 550 q 751 691 786 653 q 668 750 715 729 q 564 771 621 771 q 459 750 507 771 q 376 691 411 729 q 321 601 340 653 q 301 489 301 550 q 335 345 301 408 q 428 246 369 282 q 564 210 488 210 m 564 -312 q 465 -281 500 -312 q 429 -194 429 -250 q 465 -108 429 -142 q 564 -75 500 -75 q 665 -106 629 -75 q 701 -194 701 -137 q 665 -280 701 -247 q 564 -312 628 -312 z "},"Ò":{"ha":1125,"x_min":60,"x_max":1065,"o":"m 564 -14 q 362 24 454 -14 q 202 128 269 61 q 97 288 135 196 q 60 490 60 381 q 97 691 60 599 q 202 851 135 783 q 362 957 269 919 q 564 994 454 994 q 764 957 672 994 q 923 851 856 919 q 1028 691 990 783 q 1065 489 1065 599 q 1028 289 1065 381 q 923 129 990 197 q 764 24 856 61 q 564 -14 672 -14 m 564 210 q 668 231 621 210 q 751 289 715 251 q 806 378 786 326 q 825 489 825 429 q 806 601 825 550 q 751 691 786 653 q 668 750 715 729 q 564 771 621 771 q 459 750 507 771 q 376 691 411 729 q 321 601 340 653 q 301 489 301 550 q 335 345 301 408 q 428 246 369 282 q 564 210 488 210 m 697 1039 l 382 1147 l 461 1311 l 751 1150 l 697 1039 z "},"Ỏ":{"ha":1125,"x_min":60,"x_max":1065,"o":"m 564 -14 q 362 24 454 -14 q 202 128 269 61 q 97 288 135 196 q 60 490 60 381 q 97 691 60 599 q 202 851 135 783 q 362 957 269 919 q 564 994 454 994 q 764 957 672 994 q 923 851 856 919 q 1028 691 990 783 q 1065 489 1065 599 q 1028 289 1065 381 q 923 129 990 197 q 764 24 856 61 q 564 -14 672 -14 m 564 210 q 668 231 621 210 q 751 289 715 251 q 806 378 786 326 q 825 489 825 429 q 806 601 825 550 q 751 691 786 653 q 668 750 715 729 q 564 771 621 771 q 459 750 507 771 q 376 691 411 729 q 321 601 340 653 q 301 489 301 550 q 335 345 301 408 q 428 246 369 282 q 564 210 488 210 m 526 1036 q 508 1065 515 1050 q 500 1097 500 1079 q 508 1129 500 1114 q 543 1163 517 1144 q 573 1185 561 1176 q 585 1207 585 1194 q 573 1226 585 1219 q 542 1232 561 1232 q 485 1224 515 1232 q 425 1204 454 1215 l 392 1321 q 467 1351 422 1339 q 560 1363 513 1363 q 684 1328 638 1363 q 731 1236 731 1293 q 712 1167 731 1190 q 672 1129 693 1143 q 634 1103 650 1115 q 618 1076 618 1090 q 619 1067 618 1072 q 622 1058 621 1063 l 526 1036 z "},"Ơ":{"ha":1125,"x_min":60,"x_max":1065,"o":"m 564 -14 q 362 24 454 -14 q 202 128 269 61 q 97 288 135 196 q 60 490 60 381 q 97 691 60 599 q 202 851 135 783 q 362 957 269 919 q 564 994 454 994 q 624 990 593 994 q 683 979 654 986 q 728 969 707 974 q 771 965 749 965 q 858 1011 828 965 q 888 1147 888 1057 l 1065 1147 q 1047 1007 1065 1072 q 983 900 1029 942 q 851 854 936 858 l 885 886 q 981 781 940 842 q 1043 646 1021 719 q 1065 489 1065 572 q 1028 289 1065 381 q 923 129 990 197 q 764 24 856 61 q 564 -14 672 -14 m 564 210 q 668 231 621 210 q 751 289 715 251 q 806 378 786 326 q 825 489 825 429 q 806 601 825 550 q 751 691 786 653 q 668 750 715 729 q 564 771 621 771 q 459 750 507 771 q 376 691 411 729 q 321 601 340 653 q 301 489 301 550 q 335 345 301 408 q 428 246 369 282 q 564 210 488 210 z "},"Ớ":{"ha":1125,"x_min":60,"x_max":1065,"o":"m 564 -14 q 362 24 454 -14 q 202 128 269 61 q 97 288 135 196 q 60 490 60 381 q 97 691 60 599 q 202 851 135 783 q 362 957 269 919 q 564 994 454 994 q 624 990 593 994 q 683 979 654 986 q 728 969 707 974 q 771 965 749 965 q 858 1011 828 965 q 888 1147 888 1057 l 1065 1147 q 1047 1007 1065 1072 q 983 900 1029 942 q 851 854 936 858 l 885 886 q 981 781 940 842 q 1043 646 1021 719 q 1065 489 1065 572 q 1028 289 1065 381 q 923 129 990 197 q 764 24 856 61 q 564 -14 672 -14 m 564 210 q 668 231 621 210 q 751 289 715 251 q 806 378 786 326 q 825 489 825 429 q 806 601 825 550 q 751 691 786 653 q 668 750 715 729 q 564 771 621 771 q 459 750 507 771 q 376 691 411 729 q 321 601 340 653 q 301 489 301 550 q 335 345 301 408 q 428 246 369 282 q 564 210 488 210 m 440 1039 l 389 1150 l 679 1311 l 756 1147 l 440 1039 z "},"Ợ":{"ha":1125,"x_min":60,"x_max":1065,"o":"m 564 -14 q 362 24 454 -14 q 202 128 269 61 q 97 288 135 196 q 60 490 60 381 q 97 691 60 599 q 202 851 135 783 q 362 957 269 919 q 564 994 454 994 q 624 990 593 994 q 683 979 654 986 q 728 969 707 974 q 771 965 749 965 q 858 1011 828 965 q 888 1147 888 1057 l 1065 1147 q 1047 1007 1065 1072 q 983 900 1029 942 q 851 854 936 858 l 885 886 q 981 781 940 842 q 1043 646 1021 719 q 1065 489 1065 572 q 1028 289 1065 381 q 923 129 990 197 q 764 24 856 61 q 564 -14 672 -14 m 564 210 q 668 231 621 210 q 751 289 715 251 q 806 378 786 326 q 825 489 825 429 q 806 601 825 550 q 751 691 786 653 q 668 750 715 729 q 564 771 621 771 q 459 750 507 771 q 376 691 411 729 q 321 601 340 653 q 301 489 301 550 q 335 345 301 408 q 428 246 369 282 q 564 210 488 210 m 564 -312 q 465 -281 500 -312 q 429 -194 429 -250 q 465 -108 429 -142 q 564 -75 500 -75 q 665 -106 629 -75 q 701 -194 701 -137 q 665 -280 701 -247 q 564 -312 628 -312 z "},"Ờ":{"ha":1125,"x_min":60,"x_max":1065,"o":"m 564 -14 q 362 24 454 -14 q 202 128 269 61 q 97 288 135 196 q 60 490 60 381 q 97 691 60 599 q 202 851 135 783 q 362 957 269 919 q 564 994 454 994 q 624 990 593 994 q 683 979 654 986 q 728 969 707 974 q 771 965 749 965 q 858 1011 828 965 q 888 1147 888 1057 l 1065 1147 q 1047 1007 1065 1072 q 983 900 1029 942 q 851 854 936 858 l 885 886 q 981 781 940 842 q 1043 646 1021 719 q 1065 489 1065 572 q 1028 289 1065 381 q 923 129 990 197 q 764 24 856 61 q 564 -14 672 -14 m 564 210 q 668 231 621 210 q 751 289 715 251 q 806 378 786 326 q 825 489 825 429 q 806 601 825 550 q 751 691 786 653 q 668 750 715 729 q 564 771 621 771 q 459 750 507 771 q 376 691 411 729 q 321 601 340 653 q 301 489 301 550 q 335 345 301 408 q 428 246 369 282 q 564 210 488 210 m 697 1039 l 382 1147 l 461 1311 l 751 1150 l 697 1039 z "},"Ở":{"ha":1125,"x_min":60,"x_max":1065,"o":"m 564 -14 q 362 24 454 -14 q 202 128 269 61 q 97 288 135 196 q 60 490 60 381 q 97 691 60 599 q 202 851 135 783 q 362 957 269 919 q 564 994 454 994 q 624 990 593 994 q 683 979 654 986 q 728 969 707 974 q 771 965 749 965 q 858 1011 828 965 q 888 1147 888 1057 l 1065 1147 q 1047 1007 1065 1072 q 983 900 1029 942 q 851 854 936 858 l 885 886 q 981 781 940 842 q 1043 646 1021 719 q 1065 489 1065 572 q 1028 289 1065 381 q 923 129 990 197 q 764 24 856 61 q 564 -14 672 -14 m 564 210 q 668 231 621 210 q 751 289 715 251 q 806 378 786 326 q 825 489 825 429 q 806 601 825 550 q 751 691 786 653 q 668 750 715 729 q 564 771 621 771 q 459 750 507 771 q 376 691 411 729 q 321 601 340 653 q 301 489 301 550 q 335 345 301 408 q 428 246 369 282 q 564 210 488 210 m 526 1036 q 508 1065 515 1050 q 500 1097 500 1079 q 508 1129 500 1114 q 543 1163 517 1144 q 573 1185 561 1176 q 585 1207 585 1194 q 573 1226 585 1219 q 542 1232 561 1232 q 485 1224 515 1232 q 425 1204 454 1215 l 392 1321 q 467 1351 422 1339 q 560 1363 513 1363 q 684 1328 638 1363 q 731 1236 731 1293 q 712 1167 731 1190 q 672 1129 693 1143 q 634 1103 650 1115 q 618 1076 618 1090 q 619 1067 618 1072 q 622 1058 621 1063 l 526 1036 z "},"Ỡ":{"ha":1125,"x_min":60,"x_max":1065,"o":"m 564 -14 q 362 24 454 -14 q 202 128 269 61 q 97 288 135 196 q 60 490 60 381 q 97 691 60 599 q 202 851 135 783 q 362 957 269 919 q 564 994 454 994 q 624 990 593 994 q 683 979 654 986 q 728 969 707 974 q 771 965 749 965 q 858 1011 828 965 q 888 1147 888 1057 l 1065 1147 q 1047 1007 1065 1072 q 983 900 1029 942 q 851 854 936 858 l 885 886 q 981 781 940 842 q 1043 646 1021 719 q 1065 489 1065 572 q 1028 289 1065 381 q 923 129 990 197 q 764 24 856 61 q 564 -14 672 -14 m 564 210 q 668 231 621 210 q 751 289 715 251 q 806 378 786 326 q 825 489 825 429 q 806 601 825 550 q 751 691 786 653 q 668 750 715 729 q 564 771 621 771 q 459 750 507 771 q 376 691 411 729 q 321 601 340 653 q 301 489 301 550 q 335 345 301 408 q 428 246 369 282 q 564 210 488 210 m 671 1065 q 615 1074 643 1065 q 553 1097 586 1083 q 511 1114 528 1108 q 481 1119 494 1119 q 449 1106 461 1119 q 438 1065 438 1092 l 299 1065 q 349 1211 299 1158 q 478 1264 400 1264 q 527 1257 503 1264 q 588 1233 551 1250 q 626 1217 610 1224 q 654 1211 642 1211 q 682 1226 672 1211 q 690 1264 692 1240 l 828 1264 q 808 1165 828 1210 q 753 1092 789 1119 q 671 1065 718 1065 z "},"Ő":{"ha":1125,"x_min":60,"x_max":1065,"o":"m 564 -14 q 362 24 454 -14 q 202 128 269 61 q 97 288 135 196 q 60 490 60 381 q 97 691 60 599 q 202 851 135 783 q 362 957 269 919 q 564 994 454 994 q 764 957 672 994 q 923 851 856 919 q 1028 691 990 783 q 1065 489 1065 599 q 1028 289 1065 381 q 923 129 990 197 q 764 24 856 61 q 564 -14 672 -14 m 564 210 q 668 231 621 210 q 751 289 715 251 q 806 378 786 326 q 825 489 825 429 q 806 601 825 550 q 751 691 786 653 q 668 750 715 729 q 564 771 621 771 q 459 750 507 771 q 376 691 411 729 q 321 601 340 653 q 301 489 301 550 q 335 345 301 408 q 428 246 369 282 q 564 210 488 210 m 394 1046 l 321 1142 l 529 1342 l 639 1204 l 394 1046 m 703 1043 l 635 1142 l 850 1340 l 960 1197 l 703 1043 z "},"Ȏ":{"ha":1125,"x_min":60,"x_max":1065,"o":"m 564 -14 q 362 24 454 -14 q 202 128 269 61 q 97 288 135 196 q 60 490 60 381 q 97 691 60 599 q 202 851 135 783 q 362 957 269 919 q 564 994 454 994 q 764 957 672 994 q 923 851 856 919 q 1028 691 990 783 q 1065 489 1065 599 q 1028 289 1065 381 q 923 129 990 197 q 764 24 856 61 q 564 -14 672 -14 m 564 210 q 668 231 621 210 q 751 289 715 251 q 806 378 786 326 q 825 489 825 429 q 806 601 825 550 q 751 691 786 653 q 668 750 715 729 q 564 771 621 771 q 459 750 507 771 q 376 691 411 729 q 321 601 340 653 q 301 489 301 550 q 335 345 301 408 q 428 246 369 282 q 564 210 488 210 m 458 1051 l 314 1069 q 363 1179 328 1132 q 449 1253 397 1226 q 564 1279 501 1279 q 679 1253 628 1279 q 766 1179 731 1226 q 814 1069 801 1132 l 669 1051 q 628 1110 656 1088 q 564 1133 600 1133 q 501 1110 529 1133 q 458 1051 472 1088 z "},"Ō":{"ha":1125,"x_min":60,"x_max":1065,"o":"m 564 -14 q 362 24 454 -14 q 202 128 269 61 q 97 288 135 196 q 60 490 60 381 q 97 691 60 599 q 202 851 135 783 q 362 957 269 919 q 564 994 454 994 q 764 957 672 994 q 923 851 856 919 q 1028 691 990 783 q 1065 489 1065 599 q 1028 289 1065 381 q 923 129 990 197 q 764 24 856 61 q 564 -14 672 -14 m 564 210 q 668 231 621 210 q 751 289 715 251 q 806 378 786 326 q 825 489 825 429 q 806 601 825 550 q 751 691 786 653 q 668 750 715 729 q 564 771 621 771 q 459 750 507 771 q 376 691 411 729 q 321 601 340 653 q 301 489 301 550 q 335 345 301 408 q 428 246 369 282 q 564 210 488 210 m 311 1093 l 311 1236 l 813 1236 l 813 1093 l 311 1093 z "},"Ṓ":{"ha":1125,"x_min":60,"x_max":1065,"o":"m 564 -14 q 362 24 454 -14 q 202 128 269 61 q 97 288 135 196 q 60 490 60 381 q 97 691 60 599 q 202 851 135 783 q 362 957 269 919 q 564 994 454 994 q 764 957 672 994 q 923 851 856 919 q 1028 691 990 783 q 1065 489 1065 599 q 1028 289 1065 381 q 923 129 990 197 q 764 24 856 61 q 564 -14 672 -14 m 564 210 q 668 231 621 210 q 751 289 715 251 q 806 378 786 326 q 825 489 825 429 q 806 601 825 550 q 751 691 786 653 q 668 750 715 729 q 564 771 621 771 q 459 750 507 771 q 376 691 411 729 q 321 601 340 653 q 301 489 301 550 q 335 345 301 408 q 428 246 369 282 q 564 210 488 210 m 313 1093 l 313 1236 l 814 1236 l 814 1093 l 313 1093 m 442 1301 l 390 1413 l 681 1574 l 757 1410 l 442 1301 z "},"Ṑ":{"ha":1125,"x_min":60,"x_max":1065,"o":"m 564 -14 q 362 24 454 -14 q 202 128 269 61 q 97 288 135 196 q 60 490 60 381 q 97 691 60 599 q 202 851 135 783 q 362 957 269 919 q 564 994 454 994 q 764 957 672 994 q 923 851 856 919 q 1028 691 990 783 q 1065 489 1065 599 q 1028 289 1065 381 q 923 129 990 197 q 764 24 856 61 q 564 -14 672 -14 m 564 210 q 668 231 621 210 q 751 289 715 251 q 806 378 786 326 q 825 489 825 429 q 806 601 825 550 q 751 691 786 653 q 668 750 715 729 q 564 771 621 771 q 459 750 507 771 q 376 691 411 729 q 321 601 340 653 q 301 489 301 550 q 335 345 301 408 q 428 246 369 282 q 564 210 488 210 m 313 1093 l 313 1236 l 814 1236 l 814 1093 l 313 1093 m 699 1301 l 383 1410 l 463 1574 l 753 1413 l 699 1301 z "},"Ǫ":{"ha":1125,"x_min":60,"x_max":1065,"o":"m 692 -292 q 576 -250 622 -292 q 531 -137 531 -208 q 551 -53 531 -92 q 608 17 572 -15 q 692 78 644 50 q 796 133 740 107 l 846 67 q 784 28 813 49 q 733 -12 756 8 q 699 -56 711 -33 q 686 -103 686 -79 q 696 -133 686 -121 q 724 -146 706 -146 q 747 -138 736 -146 q 767 -114 757 -131 l 865 -186 q 799 -260 846 -228 q 692 -292 753 -292 m 564 -14 q 362 24 454 -14 q 202 128 269 61 q 97 288 135 196 q 60 490 60 381 q 97 691 60 599 q 202 851 135 783 q 362 957 269 919 q 564 994 454 994 q 764 957 672 994 q 923 851 856 919 q 1028 691 990 783 q 1065 489 1065 599 q 1028 289 1065 381 q 923 129 990 197 q 764 24 856 61 q 564 -14 672 -14 m 564 210 q 668 231 621 210 q 751 289 715 251 q 806 378 786 326 q 825 489 825 429 q 806 601 825 550 q 751 691 786 653 q 668 750 715 729 q 564 771 621 771 q 459 750 507 771 q 376 691 411 729 q 321 601 340 653 q 301 489 301 550 q 335 345 301 408 q 428 246 369 282 q 564 210 488 210 z "},"Ø":{"ha":1118,"x_min":58,"x_max":1064,"o":"m 193 -46 l 104 29 l 922 1031 l 1018 964 l 193 -46 m 563 -14 q 360 24 453 -14 q 201 128 268 61 q 96 288 133 196 q 58 490 58 381 q 96 691 58 599 q 201 851 133 783 q 360 957 268 919 q 563 994 453 994 q 763 957 671 994 q 922 851 854 919 q 1026 691 989 783 q 1064 489 1064 599 q 1026 289 1064 381 q 922 129 989 197 q 763 24 854 61 q 563 -14 671 -14 m 563 210 q 667 231 619 210 q 749 289 714 251 q 804 378 785 326 q 824 489 824 429 q 804 601 824 550 q 749 691 785 653 q 667 750 714 729 q 563 771 619 771 q 458 750 506 771 q 374 691 410 729 q 319 601 339 653 q 300 489 300 550 q 334 345 300 408 q 427 246 368 282 q 563 210 486 210 z "},"Ǿ":{"ha":1118,"x_min":58,"x_max":1064,"o":"m 193 -46 l 104 29 l 922 1031 l 1018 964 l 193 -46 m 563 -14 q 360 24 453 -14 q 201 128 268 61 q 96 288 133 196 q 58 490 58 381 q 96 691 58 599 q 201 851 133 783 q 360 957 268 919 q 563 994 453 994 q 763 957 671 994 q 922 851 854 919 q 1026 691 989 783 q 1064 489 1064 599 q 1026 289 1064 381 q 922 129 989 197 q 763 24 854 61 q 563 -14 671 -14 m 563 210 q 667 231 619 210 q 749 289 714 251 q 804 378 785 326 q 824 489 824 429 q 804 601 824 550 q 749 691 785 653 q 667 750 714 729 q 563 771 619 771 q 458 750 506 771 q 374 691 410 729 q 319 601 339 653 q 300 489 300 550 q 334 345 300 408 q 427 246 368 282 q 563 210 486 210 m 436 1039 l 385 1150 l 675 1311 l 751 1147 l 436 1039 z "},"Õ":{"ha":1125,"x_min":60,"x_max":1065,"o":"m 564 -14 q 362 24 454 -14 q 202 128 269 61 q 97 288 135 196 q 60 490 60 381 q 97 691 60 599 q 202 851 135 783 q 362 957 269 919 q 564 994 454 994 q 764 957 672 994 q 923 851 856 919 q 1028 691 990 783 q 1065 489 1065 599 q 1028 289 1065 381 q 923 129 990 197 q 764 24 856 61 q 564 -14 672 -14 m 564 210 q 668 231 621 210 q 751 289 715 251 q 806 378 786 326 q 825 489 825 429 q 806 601 825 550 q 751 691 786 653 q 668 750 715 729 q 564 771 621 771 q 459 750 507 771 q 376 691 411 729 q 321 601 340 653 q 301 489 301 550 q 335 345 301 408 q 428 246 369 282 q 564 210 488 210 m 671 1065 q 615 1074 643 1065 q 553 1097 586 1083 q 511 1114 528 1108 q 481 1119 494 1119 q 449 1106 461 1119 q 438 1065 438 1092 l 299 1065 q 349 1211 299 1158 q 478 1264 400 1264 q 527 1257 503 1264 q 588 1233 551 1250 q 626 1217 610 1224 q 654 1211 642 1211 q 682 1226 672 1211 q 690 1264 692 1240 l 828 1264 q 808 1165 828 1210 q 753 1092 789 1119 q 671 1065 718 1065 z "},"Ṍ":{"ha":1125,"x_min":60,"x_max":1065,"o":"m 564 -14 q 362 24 454 -14 q 202 128 269 61 q 97 288 135 196 q 60 490 60 381 q 97 691 60 599 q 202 851 135 783 q 362 957 269 919 q 564 994 454 994 q 764 957 672 994 q 923 851 856 919 q 1028 691 990 783 q 1065 489 1065 599 q 1028 289 1065 381 q 923 129 990 197 q 764 24 856 61 q 564 -14 672 -14 m 564 210 q 668 231 621 210 q 751 289 715 251 q 806 378 786 326 q 825 489 825 429 q 806 601 825 550 q 751 691 786 653 q 668 750 715 729 q 564 771 621 771 q 459 750 507 771 q 376 691 411 729 q 321 601 340 653 q 301 489 301 550 q 335 345 301 408 q 428 246 369 282 q 564 210 488 210 m 671 1065 q 615 1074 643 1065 q 553 1097 586 1083 q 511 1114 528 1108 q 481 1119 494 1119 q 449 1106 461 1119 q 438 1065 438 1092 l 299 1065 q 349 1211 299 1158 q 478 1264 400 1264 q 527 1257 503 1264 q 588 1233 551 1250 q 626 1217 610 1224 q 654 1211 642 1211 q 682 1226 672 1211 q 690 1264 692 1240 l 828 1264 q 808 1165 828 1210 q 753 1092 789 1119 q 671 1065 718 1065 m 442 1301 l 390 1413 l 681 1574 l 757 1410 l 442 1301 z "},"Ṏ":{"ha":1125,"x_min":60,"x_max":1065,"o":"m 564 -14 q 362 24 454 -14 q 202 128 269 61 q 97 288 135 196 q 60 490 60 381 q 97 691 60 599 q 202 851 135 783 q 362 957 269 919 q 564 994 454 994 q 764 957 672 994 q 923 851 856 919 q 1028 691 990 783 q 1065 489 1065 599 q 1028 289 1065 381 q 923 129 990 197 q 764 24 856 61 q 564 -14 672 -14 m 564 210 q 668 231 621 210 q 751 289 715 251 q 806 378 786 326 q 825 489 825 429 q 806 601 825 550 q 751 691 786 653 q 668 750 715 729 q 564 771 621 771 q 459 750 507 771 q 376 691 411 729 q 321 601 340 653 q 301 489 301 550 q 335 345 301 408 q 428 246 369 282 q 564 210 488 210 m 671 1065 q 615 1074 643 1065 q 553 1097 586 1083 q 511 1114 528 1108 q 481 1119 494 1119 q 449 1106 461 1119 q 438 1065 438 1092 l 299 1065 q 349 1211 299 1158 q 478 1264 400 1264 q 527 1257 503 1264 q 588 1233 551 1250 q 626 1217 610 1224 q 654 1211 642 1211 q 682 1226 672 1211 q 690 1264 692 1240 l 828 1264 q 808 1165 828 1210 q 753 1092 789 1119 q 671 1065 718 1065 m 733 1310 q 643 1340 674 1310 q 613 1428 613 1371 q 644 1511 613 1476 q 733 1546 675 1546 q 824 1515 794 1546 q 854 1428 854 1483 q 823 1344 854 1378 q 733 1310 792 1310 m 394 1310 q 304 1340 335 1310 q 274 1428 274 1371 q 305 1511 274 1476 q 394 1546 336 1546 q 486 1515 456 1546 q 517 1428 517 1483 q 485 1344 517 1378 q 394 1310 453 1310 z "},"Ȭ":{"ha":1125,"x_min":60,"x_max":1065,"o":"m 564 -14 q 362 24 454 -14 q 202 128 269 61 q 97 288 135 196 q 60 490 60 381 q 97 691 60 599 q 202 851 135 783 q 362 957 269 919 q 564 994 454 994 q 764 957 672 994 q 923 851 856 919 q 1028 691 990 783 q 1065 489 1065 599 q 1028 289 1065 381 q 923 129 990 197 q 764 24 856 61 q 564 -14 672 -14 m 564 210 q 668 231 621 210 q 751 289 715 251 q 806 378 786 326 q 825 489 825 429 q 806 601 825 550 q 751 691 786 653 q 668 750 715 729 q 564 771 621 771 q 459 750 507 771 q 376 691 411 729 q 321 601 340 653 q 301 489 301 550 q 335 345 301 408 q 428 246 369 282 q 564 210 488 210 m 671 1065 q 615 1074 643 1065 q 553 1097 586 1083 q 511 1114 528 1108 q 481 1119 494 1119 q 449 1106 461 1119 q 438 1065 438 1092 l 299 1065 q 349 1211 299 1158 q 478 1264 400 1264 q 527 1257 503 1264 q 588 1233 551 1250 q 626 1217 610 1224 q 654 1211 642 1211 q 682 1226 672 1211 q 690 1264 692 1240 l 828 1264 q 808 1165 828 1210 q 753 1092 789 1119 q 671 1065 718 1065 m 313 1356 l 313 1499 l 814 1499 l 814 1356 l 313 1356 z "},"Œ":{"ha":1496,"x_min":60,"x_max":1414,"o":"m 521 0 q 330 35 415 0 q 184 134 244 69 q 92 288 124 199 q 60 486 60 378 q 94 683 60 594 q 193 838 129 772 q 347 938 257 903 q 550 972 438 972 l 1414 972 l 1414 769 l 953 769 l 953 596 l 1338 596 l 1338 401 l 953 401 l 953 203 l 1414 203 l 1414 0 l 521 0 m 300 486 q 316 369 300 421 q 364 283 332 318 q 442 228 396 247 q 547 210 488 210 l 722 210 l 722 763 l 560 763 q 449 744 497 763 q 368 689 401 725 q 317 602 335 653 q 300 486 300 551 z "},"P":{"ha":919,"x_min":121,"x_max":861,"o":"m 121 0 l 121 972 l 542 972 q 706 931 633 972 q 819 817 778 889 q 861 654 861 746 q 819 486 861 561 q 706 368 778 411 q 542 325 633 325 l 358 325 l 358 0 l 121 0 m 356 535 l 510 535 q 565 549 540 535 q 604 590 589 564 q 619 650 619 617 q 604 710 619 685 q 565 749 589 735 q 510 763 540 763 l 356 763 l 356 535 z "},"Þ":{"ha":921,"x_min":121,"x_max":863,"o":"m 121 0 l 121 972 l 358 972 l 358 818 l 543 818 q 707 776 635 818 q 821 663 779 735 q 863 499 863 590 q 821 331 863 406 q 707 213 779 256 q 543 169 635 169 l 358 169 l 358 0 l 121 0 m 358 379 l 511 379 q 566 394 542 379 q 606 435 590 408 q 621 496 621 461 q 606 556 621 531 q 566 594 590 581 q 511 608 542 608 l 358 608 l 358 379 z "},"Q":{"ha":1125,"x_min":60,"x_max":1065,"o":"m 853 -154 l 481 349 l 656 471 l 1022 -28 l 853 -154 m 564 -14 q 362 24 454 -14 q 202 128 269 61 q 97 288 135 196 q 60 490 60 381 q 97 691 60 599 q 202 851 135 783 q 362 957 269 919 q 564 994 454 994 q 764 957 672 994 q 923 851 856 919 q 1028 691 990 783 q 1065 489 1065 599 q 1028 289 1065 381 q 923 129 990 197 q 764 24 856 61 q 564 -14 672 -14 m 564 210 q 668 231 621 210 q 751 289 715 251 q 806 378 786 326 q 825 489 825 429 q 806 601 825 550 q 751 691 786 653 q 668 750 715 729 q 564 771 621 771 q 459 750 507 771 q 376 691 411 729 q 321 601 340 653 q 301 489 301 550 q 335 345 301 408 q 428 246 369 282 q 564 210 488 210 z "},"R":{"ha":978,"x_min":121,"x_max":932,"o":"m 121 0 l 121 972 l 561 972 q 731 932 656 972 q 849 822 806 892 q 893 661 893 751 q 849 497 893 569 q 731 383 806 425 q 561 340 656 340 l 347 340 l 347 0 l 121 0 m 661 0 l 414 440 l 657 475 l 932 -1 l 661 0 m 347 525 l 540 525 q 603 541 576 525 q 645 585 631 557 q 660 649 660 613 q 642 714 660 686 q 594 758 625 742 q 519 774 563 774 l 347 774 l 347 525 z "},"Ŕ":{"ha":978,"x_min":121,"x_max":932,"o":"m 121 0 l 121 972 l 561 972 q 731 932 656 972 q 849 822 806 892 q 893 661 893 751 q 849 497 893 569 q 731 383 806 425 q 561 340 656 340 l 347 340 l 347 0 l 121 0 m 661 0 l 414 440 l 657 475 l 932 -1 l 661 0 m 347 525 l 540 525 q 603 541 576 525 q 645 585 631 557 q 660 649 660 613 q 642 714 660 686 q 594 758 625 742 q 519 774 563 774 l 347 774 l 347 525 m 340 1039 l 289 1150 l 579 1311 l 656 1147 l 340 1039 z "},"Ř":{"ha":978,"x_min":121,"x_max":932,"o":"m 121 0 l 121 972 l 561 972 q 731 932 656 972 q 849 822 806 892 q 893 661 893 751 q 849 497 893 569 q 731 383 806 425 q 561 340 656 340 l 347 340 l 347 0 l 121 0 m 661 0 l 414 440 l 657 475 l 932 -1 l 661 0 m 347 525 l 540 525 q 603 541 576 525 q 645 585 631 557 q 660 649 660 613 q 642 714 660 686 q 594 758 625 742 q 519 774 563 774 l 347 774 l 347 525 m 396 1047 l 210 1199 l 279 1276 l 483 1178 l 442 1178 l 646 1276 l 715 1199 l 529 1047 l 396 1047 z "},"Ŗ":{"ha":978,"x_min":121,"x_max":932,"o":"m 121 0 l 121 972 l 561 972 q 731 932 656 972 q 849 822 806 892 q 893 661 893 751 q 849 497 893 569 q 731 383 806 425 q 561 340 656 340 l 347 340 l 347 0 l 121 0 m 661 0 l 414 440 l 657 475 l 932 -1 l 661 0 m 347 525 l 540 525 q 603 541 576 525 q 645 585 631 557 q 660 649 660 613 q 642 714 660 686 q 594 758 625 742 q 519 774 563 774 l 347 774 l 347 525 m 413 -407 l 357 -331 q 400 -312 376 -325 q 441 -283 424 -300 q 458 -250 458 -267 q 450 -233 458 -239 q 424 -219 442 -226 q 383 -190 394 -208 q 371 -144 371 -172 q 403 -78 371 -100 q 483 -56 435 -56 q 583 -89 542 -56 q 624 -190 624 -122 q 609 -263 624 -229 q 566 -324 594 -297 q 499 -372 538 -351 q 413 -407 461 -393 z "},"Ȑ":{"ha":978,"x_min":76,"x_max":932,"o":"m 121 0 l 121 972 l 561 972 q 731 932 656 972 q 849 822 806 892 q 893 661 893 751 q 849 497 893 569 q 731 383 806 425 q 561 340 656 340 l 347 340 l 347 0 l 121 0 m 661 0 l 414 440 l 657 475 l 932 -1 l 661 0 m 347 525 l 540 525 q 603 541 576 525 q 645 585 631 557 q 660 649 660 613 q 642 714 660 686 q 594 758 625 742 q 519 774 563 774 l 347 774 l 347 525 m 635 1032 l 397 1203 l 515 1335 l 713 1124 l 635 1032 m 324 1026 l 76 1194 l 193 1333 l 400 1124 l 324 1026 z "},"Ṛ":{"ha":978,"x_min":121,"x_max":932,"o":"m 121 0 l 121 972 l 561 972 q 731 932 656 972 q 849 822 806 892 q 893 661 893 751 q 849 497 893 569 q 731 383 806 425 q 561 340 656 340 l 347 340 l 347 0 l 121 0 m 661 0 l 414 440 l 657 475 l 932 -1 l 661 0 m 347 525 l 540 525 q 603 541 576 525 q 645 585 631 557 q 660 649 660 613 q 642 714 660 686 q 594 758 625 742 q 519 774 563 774 l 347 774 l 347 525 m 490 -312 q 391 -281 426 -312 q 356 -194 356 -250 q 391 -108 356 -142 q 490 -75 426 -75 q 592 -106 556 -75 q 628 -194 628 -137 q 591 -280 628 -247 q 490 -312 554 -312 z "},"Ȓ":{"ha":978,"x_min":121,"x_max":932,"o":"m 121 0 l 121 972 l 561 972 q 731 932 656 972 q 849 822 806 892 q 893 661 893 751 q 849 497 893 569 q 731 383 806 425 q 561 340 656 340 l 347 340 l 347 0 l 121 0 m 661 0 l 414 440 l 657 475 l 932 -1 l 661 0 m 347 525 l 540 525 q 603 541 576 525 q 645 585 631 557 q 660 649 660 613 q 642 714 660 686 q 594 758 625 742 q 519 774 563 774 l 347 774 l 347 525 m 357 1051 l 213 1069 q 261 1179 226 1132 q 348 1253 296 1226 q 463 1279 400 1279 q 578 1253 526 1279 q 665 1179 629 1226 q 713 1069 700 1132 l 568 1051 q 526 1110 554 1088 q 463 1133 499 1133 q 399 1110 428 1133 q 357 1051 371 1088 z "},"Ṟ":{"ha":978,"x_min":121,"x_max":932,"o":"m 121 0 l 121 972 l 561 972 q 731 932 656 972 q 849 822 806 892 q 893 661 893 751 q 849 497 893 569 q 731 383 806 425 q 561 340 656 340 l 347 340 l 347 0 l 121 0 m 661 0 l 414 440 l 657 475 l 932 -1 l 661 0 m 347 525 l 540 525 q 603 541 576 525 q 645 585 631 557 q 660 649 660 613 q 642 714 660 686 q 594 758 625 742 q 519 774 563 774 l 347 774 l 347 525 m 276 -276 l 276 -112 l 701 -112 l 701 -276 l 276 -276 z "},"S":{"ha":882,"x_min":31,"x_max":825,"o":"m 444 -14 q 201 37 300 -14 q 31 181 101 88 l 175 343 q 313 218 243 250 q 456 186 382 186 q 523 196 493 186 q 570 224 553 206 q 588 269 588 243 q 577 307 588 290 q 549 336 567 324 q 507 359 531 349 q 455 376 483 369 q 397 389 426 383 q 258 433 317 406 q 159 498 199 460 q 100 585 119 536 q 81 697 81 635 q 131 853 81 786 q 265 957 182 919 q 446 994 349 994 q 674 949 588 994 q 813 825 761 904 l 665 682 q 567 765 622 738 q 453 793 513 793 q 382 783 413 793 q 335 755 351 774 q 319 710 319 736 q 333 670 319 688 q 369 640 346 653 q 424 619 393 628 q 488 604 454 610 q 626 564 564 589 q 732 502 688 539 q 801 416 776 465 q 825 303 825 367 q 776 132 825 203 q 642 24 728 61 q 444 -14 556 -14 z "},"Ś":{"ha":882,"x_min":31,"x_max":825,"o":"m 444 -14 q 201 37 300 -14 q 31 181 101 88 l 175 343 q 313 218 243 250 q 456 186 382 186 q 523 196 493 186 q 570 224 553 206 q 588 269 588 243 q 577 307 588 290 q 549 336 567 324 q 507 359 531 349 q 455 376 483 369 q 397 389 426 383 q 258 433 317 406 q 159 498 199 460 q 100 585 119 536 q 81 697 81 635 q 131 853 81 786 q 265 957 182 919 q 446 994 349 994 q 674 949 588 994 q 813 825 761 904 l 665 682 q 567 765 622 738 q 453 793 513 793 q 382 783 413 793 q 335 755 351 774 q 319 710 319 736 q 333 670 319 688 q 369 640 346 653 q 424 619 393 628 q 488 604 454 610 q 626 564 564 589 q 732 502 688 539 q 801 416 776 465 q 825 303 825 367 q 776 132 825 203 q 642 24 728 61 q 444 -14 556 -14 m 340 1039 l 289 1150 l 579 1311 l 656 1147 l 340 1039 z "},"Ṥ":{"ha":882,"x_min":31,"x_max":825,"o":"m 444 -14 q 201 37 300 -14 q 31 181 101 88 l 175 343 q 313 218 243 250 q 456 186 382 186 q 523 196 493 186 q 570 224 553 206 q 588 269 588 243 q 577 307 588 290 q 549 336 567 324 q 507 359 531 349 q 455 376 483 369 q 397 389 426 383 q 258 433 317 406 q 159 498 199 460 q 100 585 119 536 q 81 697 81 635 q 131 853 81 786 q 265 957 182 919 q 446 994 349 994 q 674 949 588 994 q 813 825 761 904 l 665 682 q 567 765 622 738 q 453 793 513 793 q 382 783 413 793 q 335 755 351 774 q 319 710 319 736 q 333 670 319 688 q 369 640 346 653 q 424 619 393 628 q 488 604 454 610 q 626 564 564 589 q 732 502 688 539 q 801 416 776 465 q 825 303 825 367 q 776 132 825 203 q 642 24 728 61 q 444 -14 556 -14 m 585 1043 l 489 1104 l 621 1335 l 764 1233 l 585 1043 m 331 1047 q 240 1076 272 1047 q 208 1156 208 1104 q 241 1233 208 1203 q 331 1263 274 1263 q 421 1234 389 1263 q 453 1156 453 1206 q 420 1077 453 1107 q 331 1047 388 1047 z "},"Š":{"ha":882,"x_min":31,"x_max":825,"o":"m 444 -14 q 201 37 300 -14 q 31 181 101 88 l 175 343 q 313 218 243 250 q 456 186 382 186 q 523 196 493 186 q 570 224 553 206 q 588 269 588 243 q 577 307 588 290 q 549 336 567 324 q 507 359 531 349 q 455 376 483 369 q 397 389 426 383 q 258 433 317 406 q 159 498 199 460 q 100 585 119 536 q 81 697 81 635 q 131 853 81 786 q 265 957 182 919 q 446 994 349 994 q 674 949 588 994 q 813 825 761 904 l 665 682 q 567 765 622 738 q 453 793 513 793 q 382 783 413 793 q 335 755 351 774 q 319 710 319 736 q 333 670 319 688 q 369 640 346 653 q 424 619 393 628 q 488 604 454 610 q 626 564 564 589 q 732 502 688 539 q 801 416 776 465 q 825 303 825 367 q 776 132 825 203 q 642 24 728 61 q 444 -14 556 -14 m 396 1047 l 210 1199 l 279 1276 l 483 1178 l 442 1178 l 646 1276 l 715 1199 l 529 1047 l 396 1047 z "},"Ṧ":{"ha":882,"x_min":31,"x_max":825,"o":"m 444 -14 q 201 37 300 -14 q 31 181 101 88 l 175 343 q 313 218 243 250 q 456 186 382 186 q 523 196 493 186 q 570 224 553 206 q 588 269 588 243 q 577 307 588 290 q 549 336 567 324 q 507 359 531 349 q 455 376 483 369 q 397 389 426 383 q 258 433 317 406 q 159 498 199 460 q 100 585 119 536 q 81 697 81 635 q 131 853 81 786 q 265 957 182 919 q 446 994 349 994 q 674 949 588 994 q 813 825 761 904 l 665 682 q 567 765 622 738 q 453 793 513 793 q 382 783 413 793 q 335 755 351 774 q 319 710 319 736 q 333 670 319 688 q 369 640 346 653 q 424 619 393 628 q 488 604 454 610 q 626 564 564 589 q 732 502 688 539 q 801 416 776 465 q 825 303 825 367 q 776 132 825 203 q 642 24 728 61 q 444 -14 556 -14 m 396 1047 l 210 1199 l 279 1276 l 483 1178 l 442 1178 l 646 1276 l 715 1199 l 529 1047 l 396 1047 m 463 1313 q 364 1343 399 1313 q 329 1428 329 1374 q 364 1510 329 1476 q 463 1543 399 1543 q 562 1513 528 1543 q 596 1428 596 1482 q 560 1346 596 1379 q 463 1313 525 1313 z "},"Ş":{"ha":882,"x_min":31,"x_max":825,"o":"m 444 -14 q 201 37 300 -14 q 31 181 101 88 l 175 343 q 313 218 243 250 q 456 186 382 186 q 523 196 493 186 q 570 224 553 206 q 588 269 588 243 q 577 307 588 290 q 549 336 567 324 q 507 359 531 349 q 455 376 483 369 q 397 389 426 383 q 258 433 317 406 q 159 498 199 460 q 100 585 119 536 q 81 697 81 635 q 131 853 81 786 q 265 957 182 919 q 446 994 349 994 q 674 949 588 994 q 813 825 761 904 l 665 682 q 567 765 622 738 q 453 793 513 793 q 382 783 413 793 q 335 755 351 774 q 319 710 319 736 q 333 670 319 688 q 369 640 346 653 q 424 619 393 628 q 488 604 454 610 q 626 564 564 589 q 732 502 688 539 q 801 416 776 465 q 825 303 825 367 q 776 132 825 203 q 642 24 728 61 q 444 -14 556 -14 m 332 -342 l 318 -237 q 378 -231 347 -237 q 431 -210 410 -224 q 453 -182 453 -197 q 437 -156 453 -165 q 399 -141 421 -146 q 356 -136 376 -136 l 331 -118 l 426 35 l 542 35 l 479 -58 q 585 -104 550 -68 q 621 -193 621 -140 q 594 -264 621 -235 q 524 -311 568 -293 q 431 -336 481 -329 q 332 -342 381 -343 z "},"Ŝ":{"ha":882,"x_min":31,"x_max":825,"o":"m 444 -14 q 201 37 300 -14 q 31 181 101 88 l 175 343 q 313 218 243 250 q 456 186 382 186 q 523 196 493 186 q 570 224 553 206 q 588 269 588 243 q 577 307 588 290 q 549 336 567 324 q 507 359 531 349 q 455 376 483 369 q 397 389 426 383 q 258 433 317 406 q 159 498 199 460 q 100 585 119 536 q 81 697 81 635 q 131 853 81 786 q 265 957 182 919 q 446 994 349 994 q 674 949 588 994 q 813 825 761 904 l 665 682 q 567 765 622 738 q 453 793 513 793 q 382 783 413 793 q 335 755 351 774 q 319 710 319 736 q 333 670 319 688 q 369 640 346 653 q 424 619 393 628 q 488 604 454 610 q 626 564 564 589 q 732 502 688 539 q 801 416 776 465 q 825 303 825 367 q 776 132 825 203 q 642 24 728 61 q 444 -14 556 -14 m 279 1046 l 208 1126 l 399 1275 l 525 1275 l 714 1126 l 644 1046 l 442 1144 l 482 1144 l 279 1046 z "},"Ș":{"ha":882,"x_min":31,"x_max":825,"o":"m 444 -14 q 201 37 300 -14 q 31 181 101 88 l 175 343 q 313 218 243 250 q 456 186 382 186 q 523 196 493 186 q 570 224 553 206 q 588 269 588 243 q 577 307 588 290 q 549 336 567 324 q 507 359 531 349 q 455 376 483 369 q 397 389 426 383 q 258 433 317 406 q 159 498 199 460 q 100 585 119 536 q 81 697 81 635 q 131 853 81 786 q 265 957 182 919 q 446 994 349 994 q 674 949 588 994 q 813 825 761 904 l 665 682 q 567 765 622 738 q 453 793 513 793 q 382 783 413 793 q 335 755 351 774 q 319 710 319 736 q 333 670 319 688 q 369 640 346 653 q 424 619 393 628 q 488 604 454 610 q 626 564 564 589 q 732 502 688 539 q 801 416 776 465 q 825 303 825 367 q 776 132 825 203 q 642 24 728 61 q 444 -14 556 -14 m 390 -407 l 335 -331 q 378 -312 354 -325 q 419 -283 401 -300 q 436 -250 436 -267 q 428 -233 436 -239 q 401 -219 419 -226 q 360 -190 372 -208 q 349 -144 349 -172 q 381 -78 349 -100 q 461 -56 413 -56 q 560 -89 519 -56 q 601 -190 601 -122 q 587 -263 601 -229 q 544 -324 572 -297 q 477 -372 515 -351 q 390 -407 439 -393 z "},"Ṡ":{"ha":882,"x_min":31,"x_max":825,"o":"m 444 -14 q 201 37 300 -14 q 31 181 101 88 l 175 343 q 313 218 243 250 q 456 186 382 186 q 523 196 493 186 q 570 224 553 206 q 588 269 588 243 q 577 307 588 290 q 549 336 567 324 q 507 359 531 349 q 455 376 483 369 q 397 389 426 383 q 258 433 317 406 q 159 498 199 460 q 100 585 119 536 q 81 697 81 635 q 131 853 81 786 q 265 957 182 919 q 446 994 349 994 q 674 949 588 994 q 813 825 761 904 l 665 682 q 567 765 622 738 q 453 793 513 793 q 382 783 413 793 q 335 755 351 774 q 319 710 319 736 q 333 670 319 688 q 369 640 346 653 q 424 619 393 628 q 488 604 454 610 q 626 564 564 589 q 732 502 688 539 q 801 416 776 465 q 825 303 825 367 q 776 132 825 203 q 642 24 728 61 q 444 -14 556 -14 m 463 1050 q 364 1081 399 1050 q 329 1165 329 1111 q 364 1247 329 1214 q 463 1281 399 1281 q 562 1250 528 1281 q 596 1165 596 1219 q 560 1083 596 1117 q 463 1050 525 1050 z "},"Ṣ":{"ha":882,"x_min":31,"x_max":825,"o":"m 444 -14 q 201 37 300 -14 q 31 181 101 88 l 175 343 q 313 218 243 250 q 456 186 382 186 q 523 196 493 186 q 570 224 553 206 q 588 269 588 243 q 577 307 588 290 q 549 336 567 324 q 507 359 531 349 q 455 376 483 369 q 397 389 426 383 q 258 433 317 406 q 159 498 199 460 q 100 585 119 536 q 81 697 81 635 q 131 853 81 786 q 265 957 182 919 q 446 994 349 994 q 674 949 588 994 q 813 825 761 904 l 665 682 q 567 765 622 738 q 453 793 513 793 q 382 783 413 793 q 335 755 351 774 q 319 710 319 736 q 333 670 319 688 q 369 640 346 653 q 424 619 393 628 q 488 604 454 610 q 626 564 564 589 q 732 502 688 539 q 801 416 776 465 q 825 303 825 367 q 776 132 825 203 q 642 24 728 61 q 444 -14 556 -14 m 468 -312 q 369 -281 404 -312 q 333 -194 333 -250 q 369 -108 333 -142 q 468 -75 404 -75 q 569 -106 533 -75 q 606 -194 606 -137 q 569 -280 606 -247 q 468 -312 532 -312 z "},"Ṩ":{"ha":882,"x_min":31,"x_max":825,"o":"m 444 -14 q 201 37 300 -14 q 31 181 101 88 l 175 343 q 313 218 243 250 q 456 186 382 186 q 523 196 493 186 q 570 224 553 206 q 588 269 588 243 q 577 307 588 290 q 549 336 567 324 q 507 359 531 349 q 455 376 483 369 q 397 389 426 383 q 258 433 317 406 q 159 498 199 460 q 100 585 119 536 q 81 697 81 635 q 131 853 81 786 q 265 957 182 919 q 446 994 349 994 q 674 949 588 994 q 813 825 761 904 l 665 682 q 567 765 622 738 q 453 793 513 793 q 382 783 413 793 q 335 755 351 774 q 319 710 319 736 q 333 670 319 688 q 369 640 346 653 q 424 619 393 628 q 488 604 454 610 q 626 564 564 589 q 732 502 688 539 q 801 416 776 465 q 825 303 825 367 q 776 132 825 203 q 642 24 728 61 q 444 -14 556 -14 m 468 -312 q 369 -281 404 -312 q 333 -194 333 -250 q 369 -108 333 -142 q 468 -75 404 -75 q 569 -106 533 -75 q 606 -194 606 -137 q 569 -280 606 -247 q 468 -312 532 -312 m 463 1050 q 364 1081 399 1050 q 329 1165 329 1111 q 364 1247 329 1214 q 463 1281 399 1281 q 562 1250 528 1281 q 596 1165 596 1219 q 560 1083 596 1117 q 463 1050 525 1050 z "},"ẞ":{"ha":1128,"x_min":121,"x_max":1071,"o":"m 732 -14 q 561 20 643 -14 q 438 104 479 54 l 564 257 q 640 199 600 219 q 715 178 679 178 q 792 201 764 178 q 821 260 821 224 q 806 304 821 285 q 755 347 790 324 q 660 401 719 369 q 567 465 601 435 q 517 532 532 496 q 501 614 501 568 q 524 706 501 664 q 587 778 547 747 q 677 828 626 810 q 783 849 728 847 l 860 794 q 751 819 818 810 q 628 829 685 829 q 519 806 568 831 q 434 735 469 782 q 379 623 399 689 q 360 475 360 557 l 358 1 l 121 1 l 122 483 q 184 759 122 640 q 357 944 246 878 q 615 1010 468 1010 q 793 995 707 1010 q 956 949 879 981 l 960 785 q 835 757 885 776 q 760 712 785 738 q 736 656 736 686 q 769 589 736 618 q 861 531 801 560 q 974 467 928 499 q 1046 389 1021 435 q 1071 267 1071 343 q 1024 126 1071 190 q 901 24 978 63 q 732 -14 824 -14 z "},"Ə":{"ha":1069,"x_min":60,"x_max":1010,"o":"m 535 -14 q 358 19 442 -14 q 208 113 274 53 q 104 256 143 174 q 60 433 65 338 l 60 574 l 944 574 l 957 382 l 308 382 q 342 308 319 342 q 396 251 365 275 q 462 215 426 228 q 535 203 497 203 q 630 222 586 203 q 706 277 674 240 q 756 367 738 314 q 774 488 774 419 q 742 638 774 575 q 652 735 710 701 q 517 769 594 769 q 375 747 435 769 q 253 676 315 725 l 150 853 q 266 929 210 900 q 386 972 322 958 q 532 986 450 986 q 717 947 631 986 q 869 840 803 908 q 972 681 935 771 q 1010 486 1010 590 q 973 292 1010 382 q 870 133 936 201 q 719 25 804 64 q 535 -14 633 -14 z "},"T":{"ha":910,"x_min":46,"x_max":865,"o":"m 332 0 l 332 763 l 46 763 l 46 972 l 865 972 l 865 763 l 569 763 l 569 0 l 332 0 z "},"Ŧ":{"ha":910,"x_min":46,"x_max":865,"o":"m 236 404 l 236 572 l 686 572 l 686 404 l 236 404 m 332 0 l 332 763 l 46 763 l 46 972 l 865 972 l 865 763 l 569 763 l 569 0 l 332 0 z "},"Ť":{"ha":910,"x_min":46,"x_max":865,"o":"m 332 0 l 332 763 l 46 763 l 46 972 l 865 972 l 865 763 l 569 763 l 569 0 l 332 0 m 389 1047 l 203 1199 l 272 1276 l 476 1178 l 435 1178 l 639 1276 l 708 1199 l 522 1047 l 389 1047 z "},"Ţ":{"ha":910,"x_min":46,"x_max":865,"o":"m 332 0 l 332 763 l 46 763 l 46 972 l 865 972 l 865 763 l 569 763 l 569 0 l 332 0 m 317 -342 l 303 -237 q 363 -231 332 -237 q 416 -210 394 -224 q 438 -182 438 -197 q 422 -156 438 -165 q 383 -141 406 -146 q 340 -136 361 -136 l 315 -118 l 411 35 l 526 35 l 464 -58 q 570 -104 535 -68 q 606 -193 606 -140 q 579 -264 606 -235 q 509 -311 553 -293 q 415 -336 465 -329 q 317 -342 365 -343 z "},"Ț":{"ha":910,"x_min":46,"x_max":865,"o":"m 332 0 l 332 763 l 46 763 l 46 972 l 865 972 l 865 763 l 569 763 l 569 0 l 332 0 m 378 -407 l 322 -331 q 365 -312 342 -325 q 406 -283 389 -300 q 424 -250 424 -267 q 415 -233 424 -239 q 389 -219 407 -226 q 348 -190 360 -208 q 336 -144 336 -172 q 368 -78 336 -100 q 449 -56 400 -56 q 548 -89 507 -56 q 589 -190 589 -122 q 574 -263 589 -229 q 531 -324 560 -297 q 465 -372 503 -351 q 378 -407 426 -393 z "},"Ṭ":{"ha":910,"x_min":46,"x_max":865,"o":"m 332 0 l 332 763 l 46 763 l 46 972 l 865 972 l 865 763 l 569 763 l 569 0 l 332 0 m 456 -312 q 356 -281 392 -312 q 321 -194 321 -250 q 356 -108 321 -142 q 456 -75 392 -75 q 557 -106 521 -75 q 593 -194 593 -137 q 556 -280 593 -247 q 456 -312 519 -312 z "},"Ṯ":{"ha":910,"x_min":46,"x_max":865,"o":"m 332 0 l 332 763 l 46 763 l 46 972 l 865 972 l 865 763 l 569 763 l 569 0 l 332 0 m 242 -276 l 242 -112 l 667 -112 l 667 -276 l 242 -276 z "},"U":{"ha":1061,"x_min":115,"x_max":946,"o":"m 532 -8 q 317 41 411 -8 q 169 177 224 90 q 115 374 115 264 l 115 974 l 354 974 l 354 386 q 378 292 354 333 q 442 226 401 250 q 532 201 483 201 q 625 226 583 201 q 691 292 667 250 q 715 386 715 333 l 715 974 l 946 974 l 946 374 q 892 177 946 264 q 746 41 839 90 q 532 -8 653 -8 z "},"Ú":{"ha":1061,"x_min":115,"x_max":946,"o":"m 532 -8 q 317 41 411 -8 q 169 177 224 90 q 115 374 115 264 l 115 974 l 354 974 l 354 386 q 378 292 354 333 q 442 226 401 250 q 532 201 483 201 q 625 226 583 201 q 691 292 667 250 q 715 386 715 333 l 715 974 l 946 974 l 946 374 q 892 177 946 264 q 746 41 839 90 q 532 -8 653 -8 m 408 1039 l 357 1150 l 647 1311 l 724 1147 l 408 1039 z "},"Ŭ":{"ha":1061,"x_min":115,"x_max":946,"o":"m 532 -8 q 317 41 411 -8 q 169 177 224 90 q 115 374 115 264 l 115 974 l 354 974 l 354 386 q 378 292 354 333 q 442 226 401 250 q 532 201 483 201 q 625 226 583 201 q 691 292 667 250 q 715 386 715 333 l 715 974 l 946 974 l 946 374 q 892 177 946 264 q 746 41 839 90 q 532 -8 653 -8 m 531 1050 q 416 1077 468 1050 q 329 1152 364 1104 q 281 1261 294 1200 l 425 1278 q 467 1220 439 1243 q 531 1197 496 1197 q 594 1220 567 1197 q 636 1278 622 1243 l 781 1261 q 733 1152 768 1200 q 646 1077 697 1104 q 531 1050 594 1050 z "},"Ǔ":{"ha":1061,"x_min":115,"x_max":946,"o":"m 532 -8 q 317 41 411 -8 q 169 177 224 90 q 115 374 115 264 l 115 974 l 354 974 l 354 386 q 378 292 354 333 q 442 226 401 250 q 532 201 483 201 q 625 226 583 201 q 691 292 667 250 q 715 386 715 333 l 715 974 l 946 974 l 946 374 q 892 177 946 264 q 746 41 839 90 q 532 -8 653 -8 m 464 1047 l 278 1199 l 347 1276 l 551 1178 l 510 1178 l 714 1276 l 783 1199 l 597 1047 l 464 1047 z "},"Û":{"ha":1061,"x_min":115,"x_max":946,"o":"m 532 -8 q 317 41 411 -8 q 169 177 224 90 q 115 374 115 264 l 115 974 l 354 974 l 354 386 q 378 292 354 333 q 442 226 401 250 q 532 201 483 201 q 625 226 583 201 q 691 292 667 250 q 715 386 715 333 l 715 974 l 946 974 l 946 374 q 892 177 946 264 q 746 41 839 90 q 532 -8 653 -8 m 347 1046 l 276 1126 l 467 1275 l 593 1275 l 782 1126 l 713 1046 l 510 1144 l 550 1144 l 347 1046 z "},"Ȕ":{"ha":1061,"x_min":115,"x_max":946,"o":"m 532 -8 q 317 41 411 -8 q 169 177 224 90 q 115 374 115 264 l 115 974 l 354 974 l 354 386 q 378 292 354 333 q 442 226 401 250 q 532 201 483 201 q 625 226 583 201 q 691 292 667 250 q 715 386 715 333 l 715 974 l 946 974 l 946 374 q 892 177 946 264 q 746 41 839 90 q 532 -8 653 -8 m 703 1032 l 465 1203 l 583 1335 l 781 1124 l 703 1032 m 392 1026 l 144 1194 l 261 1333 l 468 1124 l 392 1026 z "},"Ü":{"ha":1061,"x_min":115,"x_max":946,"o":"m 532 -8 q 317 41 411 -8 q 169 177 224 90 q 115 374 115 264 l 115 974 l 354 974 l 354 386 q 378 292 354 333 q 442 226 401 250 q 532 201 483 201 q 625 226 583 201 q 691 292 667 250 q 715 386 715 333 l 715 974 l 946 974 l 946 374 q 892 177 946 264 q 746 41 839 90 q 532 -8 653 -8 m 699 1047 q 608 1078 639 1047 q 578 1165 578 1108 q 609 1249 578 1214 q 699 1283 640 1283 q 790 1252 760 1283 q 819 1165 819 1221 q 788 1081 819 1115 q 699 1047 757 1047 m 360 1047 q 269 1078 300 1047 q 239 1165 239 1108 q 270 1249 239 1214 q 360 1283 301 1283 q 451 1252 421 1283 q 482 1165 482 1221 q 450 1081 482 1115 q 360 1047 418 1047 z "},"Ụ":{"ha":1061,"x_min":115,"x_max":946,"o":"m 532 -8 q 317 41 411 -8 q 169 177 224 90 q 115 374 115 264 l 115 974 l 354 974 l 354 386 q 378 292 354 333 q 442 226 401 250 q 532 201 483 201 q 625 226 583 201 q 691 292 667 250 q 715 386 715 333 l 715 974 l 946 974 l 946 374 q 892 177 946 264 q 746 41 839 90 q 532 -8 653 -8 m 531 -312 q 431 -281 467 -312 q 396 -194 396 -250 q 431 -108 396 -142 q 531 -75 467 -75 q 632 -106 596 -75 q 668 -194 668 -137 q 631 -280 668 -247 q 531 -312 594 -312 z "},"Ù":{"ha":1061,"x_min":115,"x_max":946,"o":"m 532 -8 q 317 41 411 -8 q 169 177 224 90 q 115 374 115 264 l 115 974 l 354 974 l 354 386 q 378 292 354 333 q 442 226 401 250 q 532 201 483 201 q 625 226 583 201 q 691 292 667 250 q 715 386 715 333 l 715 974 l 946 974 l 946 374 q 892 177 946 264 q 746 41 839 90 q 532 -8 653 -8 m 665 1039 l 350 1147 l 429 1311 l 719 1150 l 665 1039 z "},"Ủ":{"ha":1061,"x_min":115,"x_max":946,"o":"m 532 -8 q 317 41 411 -8 q 169 177 224 90 q 115 374 115 264 l 115 974 l 354 974 l 354 386 q 378 292 354 333 q 442 226 401 250 q 532 201 483 201 q 625 226 583 201 q 691 292 667 250 q 715 386 715 333 l 715 974 l 946 974 l 946 374 q 892 177 946 264 q 746 41 839 90 q 532 -8 653 -8 m 494 1036 q 476 1065 483 1050 q 468 1097 468 1079 q 476 1129 468 1114 q 511 1163 485 1144 q 541 1185 529 1176 q 553 1207 553 1194 q 541 1226 553 1219 q 510 1232 529 1232 q 453 1224 483 1232 q 393 1204 422 1215 l 360 1321 q 435 1351 390 1339 q 528 1363 481 1363 q 652 1328 606 1363 q 699 1236 699 1293 q 680 1167 699 1190 q 640 1129 661 1143 q 602 1103 618 1115 q 586 1076 586 1090 q 588 1067 586 1072 q 590 1058 589 1063 l 494 1036 z "},"Ư":{"ha":1061,"x_min":115,"x_max":1100,"o":"m 532 -8 q 317 41 411 -8 q 169 177 224 90 q 115 374 115 264 l 115 974 l 354 974 l 354 386 q 378 292 354 333 q 442 226 401 250 q 532 201 483 201 q 625 226 583 201 q 691 292 667 250 q 715 386 715 333 l 715 974 l 801 974 q 892 1018 864 974 q 921 1147 921 1063 l 1100 1147 q 1077 1009 1100 1072 q 1006 906 1054 946 q 882 857 957 865 l 946 922 l 946 374 q 892 177 946 264 q 746 41 839 90 q 532 -8 653 -8 z "},"Ứ":{"ha":1061,"x_min":115,"x_max":1100,"o":"m 532 -8 q 317 41 411 -8 q 169 177 224 90 q 115 374 115 264 l 115 974 l 354 974 l 354 386 q 378 292 354 333 q 442 226 401 250 q 532 201 483 201 q 625 226 583 201 q 691 292 667 250 q 715 386 715 333 l 715 974 l 801 974 q 892 1018 864 974 q 921 1147 921 1063 l 1100 1147 q 1077 1009 1100 1072 q 1006 906 1054 946 q 882 857 957 865 l 946 922 l 946 374 q 892 177 946 264 q 746 41 839 90 q 532 -8 653 -8 m 408 1039 l 357 1150 l 647 1311 l 724 1147 l 408 1039 z "},"Ự":{"ha":1061,"x_min":115,"x_max":1100,"o":"m 532 -8 q 317 41 411 -8 q 169 177 224 90 q 115 374 115 264 l 115 974 l 354 974 l 354 386 q 378 292 354 333 q 442 226 401 250 q 532 201 483 201 q 625 226 583 201 q 691 292 667 250 q 715 386 715 333 l 715 974 l 801 974 q 892 1018 864 974 q 921 1147 921 1063 l 1100 1147 q 1077 1009 1100 1072 q 1006 906 1054 946 q 882 857 957 865 l 946 922 l 946 374 q 892 177 946 264 q 746 41 839 90 q 532 -8 653 -8 m 531 -312 q 431 -281 467 -312 q 396 -194 396 -250 q 431 -108 396 -142 q 531 -75 467 -75 q 632 -106 596 -75 q 668 -194 668 -137 q 631 -280 668 -247 q 531 -312 594 -312 z "},"Ừ":{"ha":1061,"x_min":115,"x_max":1100,"o":"m 532 -8 q 317 41 411 -8 q 169 177 224 90 q 115 374 115 264 l 115 974 l 354 974 l 354 386 q 378 292 354 333 q 442 226 401 250 q 532 201 483 201 q 625 226 583 201 q 691 292 667 250 q 715 386 715 333 l 715 974 l 801 974 q 892 1018 864 974 q 921 1147 921 1063 l 1100 1147 q 1077 1009 1100 1072 q 1006 906 1054 946 q 882 857 957 865 l 946 922 l 946 374 q 892 177 946 264 q 746 41 839 90 q 532 -8 653 -8 m 665 1039 l 350 1147 l 429 1311 l 719 1150 l 665 1039 z "},"Ử":{"ha":1061,"x_min":115,"x_max":1100,"o":"m 532 -8 q 317 41 411 -8 q 169 177 224 90 q 115 374 115 264 l 115 974 l 354 974 l 354 386 q 378 292 354 333 q 442 226 401 250 q 532 201 483 201 q 625 226 583 201 q 691 292 667 250 q 715 386 715 333 l 715 974 l 801 974 q 892 1018 864 974 q 921 1147 921 1063 l 1100 1147 q 1077 1009 1100 1072 q 1006 906 1054 946 q 882 857 957 865 l 946 922 l 946 374 q 892 177 946 264 q 746 41 839 90 q 532 -8 653 -8 m 494 1036 q 476 1065 483 1050 q 468 1097 468 1079 q 476 1129 468 1114 q 511 1163 485 1144 q 541 1185 529 1176 q 553 1207 553 1194 q 541 1226 553 1219 q 510 1232 529 1232 q 453 1224 483 1232 q 393 1204 422 1215 l 360 1321 q 435 1351 390 1339 q 528 1363 481 1363 q 652 1328 606 1363 q 699 1236 699 1293 q 680 1167 699 1190 q 640 1129 661 1143 q 602 1103 618 1115 q 586 1076 586 1090 q 588 1067 586 1072 q 590 1058 589 1063 l 494 1036 z "},"Ữ":{"ha":1061,"x_min":115,"x_max":1100,"o":"m 532 -8 q 317 41 411 -8 q 169 177 224 90 q 115 374 115 264 l 115 974 l 354 974 l 354 386 q 378 292 354 333 q 442 226 401 250 q 532 201 483 201 q 625 226 583 201 q 691 292 667 250 q 715 386 715 333 l 715 974 l 801 974 q 892 1018 864 974 q 921 1147 921 1063 l 1100 1147 q 1077 1009 1100 1072 q 1006 906 1054 946 q 882 857 957 865 l 946 922 l 946 374 q 892 177 946 264 q 746 41 839 90 q 532 -8 653 -8 m 638 1065 q 581 1074 610 1065 q 519 1097 553 1083 q 478 1114 494 1108 q 447 1119 461 1119 q 416 1106 428 1119 q 404 1065 404 1092 l 265 1065 q 316 1211 265 1158 q 444 1264 367 1264 q 494 1257 469 1264 q 554 1233 518 1250 q 592 1217 576 1224 q 621 1211 608 1211 q 649 1226 639 1211 q 657 1264 658 1240 l 794 1264 q 775 1165 794 1210 q 720 1092 756 1119 q 638 1065 685 1065 z "},"Ű":{"ha":1061,"x_min":115,"x_max":946,"o":"m 532 -8 q 317 41 411 -8 q 169 177 224 90 q 115 374 115 264 l 115 974 l 354 974 l 354 386 q 378 292 354 333 q 442 226 401 250 q 532 201 483 201 q 625 226 583 201 q 691 292 667 250 q 715 386 715 333 l 715 974 l 946 974 l 946 374 q 892 177 946 264 q 746 41 839 90 q 532 -8 653 -8 m 363 1046 l 289 1142 l 497 1342 l 607 1204 l 363 1046 m 671 1043 l 603 1142 l 818 1340 l 928 1197 l 671 1043 z "},"Ȗ":{"ha":1061,"x_min":115,"x_max":946,"o":"m 532 -8 q 317 41 411 -8 q 169 177 224 90 q 115 374 115 264 l 115 974 l 354 974 l 354 386 q 378 292 354 333 q 442 226 401 250 q 532 201 483 201 q 625 226 583 201 q 691 292 667 250 q 715 386 715 333 l 715 974 l 946 974 l 946 374 q 892 177 946 264 q 746 41 839 90 q 532 -8 653 -8 m 425 1051 l 281 1069 q 329 1179 294 1132 q 416 1253 364 1226 q 531 1279 468 1279 q 646 1253 594 1279 q 733 1179 697 1226 q 781 1069 768 1132 l 636 1051 q 594 1110 622 1088 q 531 1133 567 1133 q 467 1110 496 1133 q 425 1051 439 1088 z "},"Ū":{"ha":1061,"x_min":115,"x_max":946,"o":"m 532 -8 q 317 41 411 -8 q 169 177 224 90 q 115 374 115 264 l 115 974 l 354 974 l 354 386 q 378 292 354 333 q 442 226 401 250 q 532 201 483 201 q 625 226 583 201 q 691 292 667 250 q 715 386 715 333 l 715 974 l 946 974 l 946 374 q 892 177 946 264 q 746 41 839 90 q 532 -8 653 -8 m 279 1093 l 279 1236 l 781 1236 l 781 1093 l 279 1093 z "},"Ṻ":{"ha":1061,"x_min":115,"x_max":946,"o":"m 532 -8 q 317 41 411 -8 q 169 177 224 90 q 115 374 115 264 l 115 974 l 354 974 l 354 386 q 378 292 354 333 q 442 226 401 250 q 532 201 483 201 q 625 226 583 201 q 691 292 667 250 q 715 386 715 333 l 715 974 l 946 974 l 946 374 q 892 177 946 264 q 746 41 839 90 q 532 -8 653 -8 m 279 1093 l 279 1236 l 781 1236 l 781 1093 l 279 1093 m 700 1310 q 610 1340 640 1310 q 579 1428 579 1371 q 610 1511 579 1476 q 700 1546 642 1546 q 791 1515 761 1546 q 821 1428 821 1483 q 790 1344 821 1378 q 700 1310 758 1310 m 361 1310 q 271 1340 301 1310 q 240 1428 240 1371 q 272 1511 240 1476 q 361 1546 303 1546 q 453 1515 422 1546 q 483 1428 483 1483 q 451 1344 483 1378 q 361 1310 419 1310 z "},"Ų":{"ha":1061,"x_min":115,"x_max":946,"o":"m 633 -292 q 518 -250 564 -292 q 472 -137 472 -208 q 493 -53 472 -92 q 550 17 514 -15 q 634 78 586 50 q 738 133 682 107 l 788 67 q 726 28 754 49 q 675 -12 697 8 q 640 -56 653 -33 q 628 -103 628 -79 q 638 -133 628 -121 q 665 -146 647 -146 q 690 -138 678 -146 q 711 -114 701 -131 l 807 -186 q 741 -260 788 -228 q 633 -292 694 -292 m 532 -8 q 317 41 411 -8 q 169 177 224 90 q 115 374 115 264 l 115 974 l 354 974 l 354 386 q 378 292 354 333 q 442 226 401 250 q 532 201 483 201 q 625 226 583 201 q 691 292 667 250 q 715 386 715 333 l 715 974 l 946 974 l 946 374 q 892 177 946 264 q 746 41 839 90 q 532 -8 653 -8 z "},"Ů":{"ha":1061,"x_min":115,"x_max":946,"o":"m 532 -8 q 317 41 411 -8 q 169 177 224 90 q 115 374 115 264 l 115 974 l 354 974 l 354 386 q 378 292 354 333 q 442 226 401 250 q 532 201 483 201 q 625 226 583 201 q 691 292 667 250 q 715 386 715 333 l 715 974 l 946 974 l 946 374 q 892 177 946 264 q 746 41 839 90 q 532 -8 653 -8 m 529 935 q 439 958 481 935 q 372 1021 397 982 q 346 1106 346 1060 q 371 1194 346 1154 q 438 1259 396 1235 q 529 1283 481 1283 q 621 1259 579 1283 q 688 1194 663 1235 q 714 1106 714 1154 q 688 1021 714 1060 q 621 958 663 982 q 529 935 579 935 m 529 1050 q 569 1066 553 1050 q 586 1106 586 1082 q 569 1145 586 1129 q 529 1161 553 1161 q 490 1145 507 1161 q 474 1106 474 1129 q 490 1066 474 1082 q 529 1050 507 1050 z "},"Ũ":{"ha":1061,"x_min":115,"x_max":946,"o":"m 532 -8 q 317 41 411 -8 q 169 177 224 90 q 115 374 115 264 l 115 974 l 354 974 l 354 386 q 378 292 354 333 q 442 226 401 250 q 532 201 483 201 q 625 226 583 201 q 691 292 667 250 q 715 386 715 333 l 715 974 l 946 974 l 946 374 q 892 177 946 264 q 746 41 839 90 q 532 -8 653 -8 m 638 1065 q 581 1074 610 1065 q 519 1097 553 1083 q 478 1114 494 1108 q 447 1119 461 1119 q 416 1106 428 1119 q 404 1065 404 1092 l 265 1065 q 316 1211 265 1158 q 444 1264 367 1264 q 494 1257 469 1264 q 554 1233 518 1250 q 592 1217 576 1224 q 621 1211 608 1211 q 649 1226 639 1211 q 657 1264 658 1240 l 794 1264 q 775 1165 794 1210 q 720 1092 756 1119 q 638 1065 685 1065 z "},"Ṹ":{"ha":1061,"x_min":115,"x_max":946,"o":"m 532 -8 q 317 41 411 -8 q 169 177 224 90 q 115 374 115 264 l 115 974 l 354 974 l 354 386 q 378 292 354 333 q 442 226 401 250 q 532 201 483 201 q 625 226 583 201 q 691 292 667 250 q 715 386 715 333 l 715 974 l 946 974 l 946 374 q 892 177 946 264 q 746 41 839 90 q 532 -8 653 -8 m 638 1065 q 581 1074 610 1065 q 519 1097 553 1083 q 478 1114 494 1108 q 447 1119 461 1119 q 416 1106 428 1119 q 404 1065 404 1092 l 265 1065 q 316 1211 265 1158 q 444 1264 367 1264 q 494 1257 469 1264 q 554 1233 518 1250 q 592 1217 576 1224 q 621 1211 608 1211 q 649 1226 639 1211 q 657 1264 658 1240 l 794 1264 q 775 1165 794 1210 q 720 1092 756 1119 q 638 1065 685 1065 m 408 1301 l 357 1413 l 647 1574 l 724 1410 l 408 1301 z "},"V":{"ha":994,"x_min":7,"x_max":986,"o":"m 396 0 l 7 972 l 254 972 l 440 482 q 469 406 457 439 q 490 344 481 372 q 507 287 499 315 q 525 222 515 258 l 482 222 q 506 308 494 271 q 531 386 517 346 q 565 482 544 426 l 744 972 l 986 972 l 596 0 l 396 0 z "},"W":{"ha":1386,"x_min":7,"x_max":1378,"o":"m 300 0 l 7 972 l 249 972 l 396 461 q 417 370 408 417 q 431 284 425 324 q 438 222 436 244 l 406 221 q 421 314 415 274 q 435 390 426 354 q 456 461 443 425 l 601 846 l 792 846 l 935 461 q 962 374 951 415 q 978 298 972 333 q 989 228 985 263 l 960 222 q 965 269 963 249 q 968 310 967 290 q 972 352 969 331 q 981 401 975 374 q 996 463 986 428 l 1140 972 l 1378 972 l 1085 0 l 904 0 l 672 558 l 699 556 l 486 0 l 300 0 z "},"Ẃ":{"ha":1385,"x_min":7,"x_max":1378,"o":"m 300 0 l 7 972 l 249 972 l 396 461 q 417 370 408 417 q 431 284 425 324 q 438 222 436 244 l 406 221 q 421 314 415 274 q 435 390 426 354 q 456 461 443 425 l 601 846 l 792 846 l 935 461 q 962 374 951 415 q 978 298 972 333 q 989 228 985 263 l 960 222 q 965 269 963 249 q 968 310 967 290 q 972 352 969 331 q 981 401 975 374 q 996 463 986 428 l 1140 972 l 1378 972 l 1085 0 l 904 0 l 672 558 l 699 556 l 486 0 l 300 0 m 571 1039 l 519 1150 l 810 1311 l 886 1147 l 571 1039 z "},"Ŵ":{"ha":1385,"x_min":7,"x_max":1378,"o":"m 300 0 l 7 972 l 249 972 l 396 461 q 417 370 408 417 q 431 284 425 324 q 438 222 436 244 l 406 221 q 421 314 415 274 q 435 390 426 354 q 456 461 443 425 l 601 846 l 792 846 l 935 461 q 962 374 951 415 q 978 298 972 333 q 989 228 985 263 l 960 222 q 965 269 963 249 q 968 310 967 290 q 972 352 969 331 q 981 401 975 374 q 996 463 986 428 l 1140 972 l 1378 972 l 1085 0 l 904 0 l 672 558 l 699 556 l 486 0 l 300 0 m 510 1046 l 439 1126 l 629 1275 l 756 1275 l 944 1126 l 875 1046 l 672 1144 l 713 1144 l 510 1046 z "},"Ẅ":{"ha":1385,"x_min":7,"x_max":1378,"o":"m 300 0 l 7 972 l 249 972 l 396 461 q 417 370 408 417 q 431 284 425 324 q 438 222 436 244 l 406 221 q 421 314 415 274 q 435 390 426 354 q 456 461 443 425 l 601 846 l 792 846 l 935 461 q 962 374 951 415 q 978 298 972 333 q 989 228 985 263 l 960 222 q 965 269 963 249 q 968 310 967 290 q 972 352 969 331 q 981 401 975 374 q 996 463 986 428 l 1140 972 l 1378 972 l 1085 0 l 904 0 l 672 558 l 699 556 l 486 0 l 300 0 m 861 1047 q 771 1078 801 1047 q 740 1165 740 1108 q 772 1249 740 1214 q 861 1283 803 1283 q 952 1252 922 1283 q 982 1165 982 1221 q 951 1081 982 1115 q 861 1047 919 1047 m 522 1047 q 432 1078 463 1047 q 401 1165 401 1108 q 433 1249 401 1214 q 522 1283 464 1283 q 614 1252 583 1283 q 644 1165 644 1221 q 613 1081 644 1115 q 522 1047 581 1047 z "},"Ẁ":{"ha":1385,"x_min":7,"x_max":1378,"o":"m 300 0 l 7 972 l 249 972 l 396 461 q 417 370 408 417 q 431 284 425 324 q 438 222 436 244 l 406 221 q 421 314 415 274 q 435 390 426 354 q 456 461 443 425 l 601 846 l 792 846 l 935 461 q 962 374 951 415 q 978 298 972 333 q 989 228 985 263 l 960 222 q 965 269 963 249 q 968 310 967 290 q 972 352 969 331 q 981 401 975 374 q 996 463 986 428 l 1140 972 l 1378 972 l 1085 0 l 904 0 l 672 558 l 699 556 l 486 0 l 300 0 m 828 1039 l 513 1147 l 592 1311 l 882 1150 l 828 1039 z "},"X":{"ha":982,"x_min":-1,"x_max":982,"o":"m 693 0 l 393 435 l 6 972 l 294 972 l 589 543 l 982 0 l 693 0 m -1 0 l 369 531 l 560 418 l 274 0 l -1 0 m 611 450 l 422 558 l 693 972 l 968 972 l 611 450 z "},"Y":{"ha":958,"x_min":-10,"x_max":968,"o":"m 374 0 l 374 485 l 383 417 l -10 972 l 260 972 l 558 544 l 438 549 l 706 972 l 968 972 l 592 401 l 613 497 l 613 0 l 374 0 z "},"Ý":{"ha":958,"x_min":-10,"x_max":968,"o":"m 374 0 l 374 485 l 383 417 l -10 972 l 260 972 l 558 544 l 438 549 l 706 972 l 968 972 l 592 401 l 613 497 l 613 0 l 374 0 m 356 1039 l 304 1150 l 594 1311 l 671 1147 l 356 1039 z "},"Ŷ":{"ha":958,"x_min":-10,"x_max":968,"o":"m 374 0 l 374 485 l 383 417 l -10 972 l 260 972 l 558 544 l 438 549 l 706 972 l 968 972 l 592 401 l 613 497 l 613 0 l 374 0 m 297 1046 l 226 1126 l 417 1275 l 543 1275 l 732 1126 l 663 1046 l 460 1144 l 500 1144 l 297 1046 z "},"Ÿ":{"ha":958,"x_min":-10,"x_max":968,"o":"m 374 0 l 374 485 l 383 417 l -10 972 l 260 972 l 558 544 l 438 549 l 706 972 l 968 972 l 592 401 l 613 497 l 613 0 l 374 0 m 649 1047 q 558 1078 589 1047 q 528 1165 528 1108 q 559 1249 528 1214 q 649 1283 590 1283 q 740 1252 710 1283 q 769 1165 769 1221 q 738 1081 769 1115 q 649 1047 707 1047 m 310 1047 q 219 1078 250 1047 q 189 1165 189 1108 q 220 1249 189 1214 q 310 1283 251 1283 q 401 1252 371 1283 q 432 1165 432 1221 q 400 1081 432 1115 q 310 1047 368 1047 z "},"Ẏ":{"ha":958,"x_min":-10,"x_max":968,"o":"m 374 0 l 374 485 l 383 417 l -10 972 l 260 972 l 558 544 l 438 549 l 706 972 l 968 972 l 592 401 l 613 497 l 613 0 l 374 0 m 479 1050 q 381 1081 415 1050 q 346 1165 346 1111 q 381 1247 346 1214 q 479 1281 415 1281 q 578 1250 544 1281 q 613 1165 613 1219 q 577 1083 613 1117 q 479 1050 542 1050 z "},"Ỵ":{"ha":958,"x_min":-10,"x_max":968,"o":"m 374 0 l 374 485 l 383 417 l -10 972 l 260 972 l 558 544 l 438 549 l 706 972 l 968 972 l 592 401 l 613 497 l 613 0 l 374 0 m 479 -312 q 380 -281 415 -312 q 344 -194 344 -250 q 380 -108 344 -142 q 479 -75 415 -75 q 581 -106 544 -75 q 617 -194 617 -137 q 580 -280 617 -247 q 479 -312 543 -312 z "},"Ỳ":{"ha":958,"x_min":-10,"x_max":968,"o":"m 374 0 l 374 485 l 383 417 l -10 972 l 260 972 l 558 544 l 438 549 l 706 972 l 968 972 l 592 401 l 613 497 l 613 0 l 374 0 m 615 1039 l 300 1147 l 379 1311 l 669 1150 l 615 1039 z "},"Ỷ":{"ha":958,"x_min":-10,"x_max":968,"o":"m 374 0 l 374 485 l 383 417 l -10 972 l 260 972 l 558 544 l 438 549 l 706 972 l 968 972 l 592 401 l 613 497 l 613 0 l 374 0 m 444 1036 q 426 1065 433 1050 q 418 1097 418 1079 q 426 1129 418 1114 q 461 1163 435 1144 q 491 1185 479 1176 q 503 1207 503 1194 q 491 1226 503 1219 q 460 1232 479 1232 q 403 1224 433 1232 q 343 1204 372 1215 l 310 1321 q 385 1351 340 1339 q 478 1363 431 1363 q 602 1328 556 1363 q 649 1236 649 1293 q 630 1167 649 1190 q 590 1129 611 1143 q 552 1103 568 1115 q 536 1076 536 1090 q 538 1067 536 1072 q 540 1058 539 1063 l 444 1036 z "},"Ȳ":{"ha":958,"x_min":-10,"x_max":968,"o":"m 374 0 l 374 485 l 383 417 l -10 972 l 260 972 l 558 544 l 438 549 l 706 972 l 968 972 l 592 401 l 613 497 l 613 0 l 374 0 m 228 1093 l 228 1236 l 729 1236 l 729 1093 l 228 1093 z "},"Ỹ":{"ha":958,"x_min":-10,"x_max":968,"o":"m 374 0 l 374 485 l 383 417 l -10 972 l 260 972 l 558 544 l 438 549 l 706 972 l 968 972 l 592 401 l 613 497 l 613 0 l 374 0 m 586 1065 q 530 1074 558 1065 q 468 1097 501 1083 q 426 1114 443 1108 q 396 1119 410 1119 q 365 1106 376 1119 q 353 1065 353 1092 l 214 1065 q 265 1211 214 1158 q 393 1264 315 1264 q 442 1257 418 1264 q 503 1233 467 1250 q 541 1217 525 1224 q 569 1211 557 1211 q 597 1226 588 1211 q 606 1264 607 1240 l 743 1264 q 724 1165 743 1210 q 669 1092 704 1119 q 586 1065 633 1065 z "},"Z":{"ha":949,"x_min":83,"x_max":868,"o":"m 83 0 l 83 158 l 603 849 l 683 756 l 119 756 l 119 972 l 853 972 l 853 815 l 338 124 l 254 208 l 868 208 l 868 0 l 83 0 z "},"Ź":{"ha":949,"x_min":83,"x_max":868,"o":"m 83 0 l 83 158 l 603 849 l 683 756 l 119 756 l 119 972 l 853 972 l 853 815 l 338 124 l 254 208 l 868 208 l 868 0 l 83 0 m 353 1039 l 301 1150 l 592 1311 l 668 1147 l 353 1039 z "},"Ž":{"ha":949,"x_min":83,"x_max":868,"o":"m 83 0 l 83 158 l 603 849 l 683 756 l 119 756 l 119 972 l 853 972 l 853 815 l 338 124 l 254 208 l 868 208 l 868 0 l 83 0 m 408 1047 l 222 1199 l 292 1276 l 496 1178 l 454 1178 l 658 1276 l 728 1199 l 542 1047 l 408 1047 z "},"Ż":{"ha":949,"x_min":83,"x_max":868,"o":"m 83 0 l 83 158 l 603 849 l 683 756 l 119 756 l 119 972 l 853 972 l 853 815 l 338 124 l 254 208 l 868 208 l 868 0 l 83 0 m 475 1050 q 376 1081 411 1050 q 342 1165 342 1111 q 376 1247 342 1214 q 475 1281 411 1281 q 574 1250 540 1281 q 608 1165 608 1219 q 573 1083 608 1117 q 475 1050 538 1050 z "},"Ẓ":{"ha":949,"x_min":83,"x_max":868,"o":"m 83 0 l 83 158 l 603 849 l 683 756 l 119 756 l 119 972 l 853 972 l 853 815 l 338 124 l 254 208 l 868 208 l 868 0 l 83 0 m 475 -312 q 376 -281 411 -312 q 340 -194 340 -250 q 376 -108 340 -142 q 475 -75 411 -75 q 576 -106 540 -75 q 613 -194 613 -137 q 576 -280 613 -247 q 475 -312 539 -312 z "},"a":{"ha":786,"x_min":53,"x_max":707,"o":"m 492 0 l 492 453 q 460 537 492 510 q 374 564 429 564 q 277 544 319 564 q 196 478 235 524 l 63 607 q 215 714 129 675 q 403 753 301 753 q 564 725 496 753 q 669 640 632 697 q 707 496 707 583 l 707 0 l 492 0 m 300 -14 q 174 14 231 -14 q 85 91 118 42 q 53 207 53 140 q 74 307 53 264 q 135 378 94 350 q 238 422 176 407 q 382 436 300 436 l 606 436 l 593 296 l 388 296 q 336 291 358 296 q 299 276 314 286 q 276 251 283 265 q 268 218 268 238 q 279 182 268 197 q 309 158 290 167 q 353 150 328 150 q 422 162 389 150 q 480 196 454 174 q 521 247 506 218 l 560 147 q 490 64 531 100 q 401 7 449 28 q 300 -14 353 -14 z "},"á":{"ha":786,"x_min":53,"x_max":707,"o":"m 492 0 l 492 453 q 460 537 492 510 q 374 564 429 564 q 277 544 319 564 q 196 478 235 524 l 63 607 q 215 714 129 675 q 403 753 301 753 q 564 725 496 753 q 669 640 632 697 q 707 496 707 583 l 707 0 l 492 0 m 300 -14 q 174 14 231 -14 q 85 91 118 42 q 53 207 53 140 q 74 307 53 264 q 135 378 94 350 q 238 422 176 407 q 382 436 300 436 l 606 436 l 593 296 l 388 296 q 336 291 358 296 q 299 276 314 286 q 276 251 283 265 q 268 218 268 238 q 279 182 268 197 q 309 158 290 167 q 353 150 328 150 q 422 162 389 150 q 480 196 454 174 q 521 247 506 218 l 560 147 q 490 64 531 100 q 401 7 449 28 q 300 -14 353 -14 m 283 818 l 217 921 l 464 1117 l 567 971 l 283 818 z "},"ă":{"ha":786,"x_min":53,"x_max":707,"o":"m 492 0 l 492 453 q 460 537 492 510 q 374 564 429 564 q 277 544 319 564 q 196 478 235 524 l 63 607 q 215 714 129 675 q 403 753 301 753 q 564 725 496 753 q 669 640 632 697 q 707 496 707 583 l 707 0 l 492 0 m 300 -14 q 174 14 231 -14 q 85 91 118 42 q 53 207 53 140 q 74 307 53 264 q 135 378 94 350 q 238 422 176 407 q 382 436 300 436 l 606 436 l 593 296 l 388 296 q 336 291 358 296 q 299 276 314 286 q 276 251 283 265 q 268 218 268 238 q 279 182 268 197 q 309 158 290 167 q 353 150 328 150 q 422 162 389 150 q 480 196 454 174 q 521 247 506 218 l 560 147 q 490 64 531 100 q 401 7 449 28 q 300 -14 353 -14 m 393 833 q 231 892 297 833 q 143 1057 164 951 l 288 1074 q 331 1005 303 1031 q 393 979 358 979 q 456 1005 428 979 q 499 1074 485 1031 l 643 1057 q 556 892 622 951 q 393 833 489 833 z "},"ắ":{"ha":786,"x_min":53,"x_max":707,"o":"m 492 0 l 492 453 q 460 537 492 510 q 374 564 429 564 q 277 544 319 564 q 196 478 235 524 l 63 607 q 215 714 129 675 q 403 753 301 753 q 564 725 496 753 q 669 640 632 697 q 707 496 707 583 l 707 0 l 492 0 m 300 -14 q 174 14 231 -14 q 85 91 118 42 q 53 207 53 140 q 74 307 53 264 q 135 378 94 350 q 238 422 176 407 q 382 436 300 436 l 606 436 l 593 296 l 388 296 q 336 291 358 296 q 299 276 314 286 q 276 251 283 265 q 268 218 268 238 q 279 182 268 197 q 309 158 290 167 q 353 150 328 150 q 422 162 389 150 q 480 196 454 174 q 521 247 506 218 l 560 147 q 490 64 531 100 q 401 7 449 28 q 300 -14 353 -14 m 393 824 q 231 876 297 824 q 143 1022 164 929 l 281 1039 q 328 981 297 999 q 393 963 358 963 q 458 981 428 963 q 506 1039 489 999 l 643 1022 q 556 876 622 929 q 393 824 489 824 m 407 1071 l 317 1132 l 449 1361 l 589 1261 l 407 1071 z "},"ặ":{"ha":786,"x_min":53,"x_max":707,"o":"m 492 0 l 492 453 q 460 537 492 510 q 374 564 429 564 q 277 544 319 564 q 196 478 235 524 l 63 607 q 215 714 129 675 q 403 753 301 753 q 564 725 496 753 q 669 640 632 697 q 707 496 707 583 l 707 0 l 492 0 m 300 -14 q 174 14 231 -14 q 85 91 118 42 q 53 207 53 140 q 74 307 53 264 q 135 378 94 350 q 238 422 176 407 q 382 436 300 436 l 606 436 l 593 296 l 388 296 q 336 291 358 296 q 299 276 314 286 q 276 251 283 265 q 268 218 268 238 q 279 182 268 197 q 309 158 290 167 q 353 150 328 150 q 422 162 389 150 q 480 196 454 174 q 521 247 506 218 l 560 147 q 490 64 531 100 q 401 7 449 28 q 300 -14 353 -14 m 393 -312 q 294 -281 329 -312 q 258 -194 258 -250 q 294 -108 258 -142 q 393 -75 329 -75 q 494 -106 458 -75 q 531 -194 531 -137 q 494 -280 531 -247 q 393 -312 457 -312 m 393 833 q 231 892 297 833 q 143 1057 164 951 l 288 1074 q 331 1005 303 1031 q 393 979 358 979 q 456 1005 428 979 q 499 1074 485 1031 l 643 1057 q 556 892 622 951 q 393 833 489 833 z "},"ằ":{"ha":786,"x_min":53,"x_max":707,"o":"m 492 0 l 492 453 q 460 537 492 510 q 374 564 429 564 q 277 544 319 564 q 196 478 235 524 l 63 607 q 215 714 129 675 q 403 753 301 753 q 564 725 496 753 q 669 640 632 697 q 707 496 707 583 l 707 0 l 492 0 m 300 -14 q 174 14 231 -14 q 85 91 118 42 q 53 207 53 140 q 74 307 53 264 q 135 378 94 350 q 238 422 176 407 q 382 436 300 436 l 606 436 l 593 296 l 388 296 q 336 291 358 296 q 299 276 314 286 q 276 251 283 265 q 268 218 268 238 q 279 182 268 197 q 309 158 290 167 q 353 150 328 150 q 422 162 389 150 q 480 196 454 174 q 521 247 506 218 l 560 147 q 490 64 531 100 q 401 7 449 28 q 300 -14 353 -14 m 393 824 q 231 878 297 824 q 143 1029 164 933 l 281 1046 q 328 983 297 1003 q 393 963 358 963 q 458 983 428 963 q 506 1046 489 1003 l 643 1029 q 556 878 624 933 q 393 824 489 824 m 392 1069 l 207 1260 l 349 1361 l 479 1132 l 392 1069 z "},"ẳ":{"ha":786,"x_min":53,"x_max":707,"o":"m 492 0 l 492 453 q 460 537 492 510 q 374 564 429 564 q 277 544 319 564 q 196 478 235 524 l 63 607 q 215 714 129 675 q 403 753 301 753 q 564 725 496 753 q 669 640 632 697 q 707 496 707 583 l 707 0 l 492 0 m 300 -14 q 174 14 231 -14 q 85 91 118 42 q 53 207 53 140 q 74 307 53 264 q 135 378 94 350 q 238 422 176 407 q 382 436 300 436 l 606 436 l 593 296 l 388 296 q 336 291 358 296 q 299 276 314 286 q 276 251 283 265 q 268 218 268 238 q 279 182 268 197 q 309 158 290 167 q 353 150 328 150 q 422 162 389 150 q 480 196 454 174 q 521 247 506 218 l 560 147 q 490 64 531 100 q 401 7 449 28 q 300 -14 353 -14 m 393 824 q 231 878 297 824 q 143 1029 164 933 l 281 1046 q 328 983 297 1003 q 393 963 358 963 q 458 983 428 963 q 506 1046 489 1003 l 643 1029 q 556 878 624 933 q 393 824 489 824 m 357 1068 q 338 1095 344 1081 q 332 1124 332 1110 q 338 1152 332 1139 q 367 1181 344 1165 q 394 1201 383 1192 q 406 1221 404 1211 q 392 1241 406 1235 q 360 1247 379 1247 q 303 1239 333 1247 q 246 1219 274 1231 l 215 1339 q 287 1365 244 1354 q 375 1376 329 1376 q 506 1341 457 1376 q 554 1247 554 1306 q 533 1182 554 1204 q 489 1147 513 1160 q 452 1125 467 1136 q 438 1099 438 1114 q 438 1094 438 1097 q 439 1088 438 1090 l 357 1068 z "},"ẵ":{"ha":786,"x_min":53,"x_max":707,"o":"m 492 0 l 492 453 q 460 537 492 510 q 374 564 429 564 q 277 544 319 564 q 196 478 235 524 l 63 607 q 215 714 129 675 q 403 753 301 753 q 564 725 496 753 q 669 640 632 697 q 707 496 707 583 l 707 0 l 492 0 m 300 -14 q 174 14 231 -14 q 85 91 118 42 q 53 207 53 140 q 74 307 53 264 q 135 378 94 350 q 238 422 176 407 q 382 436 300 436 l 606 436 l 593 296 l 388 296 q 336 291 358 296 q 299 276 314 286 q 276 251 283 265 q 268 218 268 238 q 279 182 268 197 q 309 158 290 167 q 353 150 328 150 q 422 162 389 150 q 480 196 454 174 q 521 247 506 218 l 560 147 q 490 64 531 100 q 401 7 449 28 q 300 -14 353 -14 m 393 824 q 231 878 299 824 q 144 1029 164 932 l 283 1046 q 329 982 300 1001 q 393 963 358 963 q 459 982 429 963 q 506 1046 489 1001 l 643 1029 q 558 878 624 932 q 393 824 492 824 m 503 1153 q 444 1161 472 1153 q 385 1183 417 1169 q 349 1198 365 1193 q 319 1203 333 1203 q 284 1190 299 1203 q 267 1153 269 1176 l 142 1171 q 184 1292 142 1242 q 293 1342 226 1342 q 346 1333 319 1342 q 401 1313 372 1325 q 438 1298 421 1304 q 471 1292 454 1292 q 503 1305 490 1292 q 521 1343 517 1318 l 646 1325 q 626 1241 644 1281 q 577 1177 608 1201 q 503 1153 546 1153 z "},"ǎ":{"ha":786,"x_min":53,"x_max":707,"o":"m 492 0 l 492 453 q 460 537 492 510 q 374 564 429 564 q 277 544 319 564 q 196 478 235 524 l 63 607 q 215 714 129 675 q 403 753 301 753 q 564 725 496 753 q 669 640 632 697 q 707 496 707 583 l 707 0 l 492 0 m 300 -14 q 174 14 231 -14 q 85 91 118 42 q 53 207 53 140 q 74 307 53 264 q 135 378 94 350 q 238 422 176 407 q 382 436 300 436 l 606 436 l 593 296 l 388 296 q 336 291 358 296 q 299 276 314 286 q 276 251 283 265 q 268 218 268 238 q 279 182 268 197 q 309 158 290 167 q 353 150 328 150 q 422 162 389 150 q 480 196 454 174 q 521 247 506 218 l 560 147 q 490 64 531 100 q 401 7 449 28 q 300 -14 353 -14 m 326 843 l 133 1022 l 214 1092 l 414 974 l 372 974 l 572 1092 l 653 1022 l 460 843 l 326 843 z "},"â":{"ha":786,"x_min":53,"x_max":707,"o":"m 492 0 l 492 453 q 460 537 492 510 q 374 564 429 564 q 277 544 319 564 q 196 478 235 524 l 63 607 q 215 714 129 675 q 403 753 301 753 q 564 725 496 753 q 669 640 632 697 q 707 496 707 583 l 707 0 l 492 0 m 300 -14 q 174 14 231 -14 q 85 91 118 42 q 53 207 53 140 q 74 307 53 264 q 135 378 94 350 q 238 422 176 407 q 382 436 300 436 l 606 436 l 593 296 l 388 296 q 336 291 358 296 q 299 276 314 286 q 276 251 283 265 q 268 218 268 238 q 279 182 268 197 q 309 158 290 167 q 353 150 328 150 q 422 162 389 150 q 480 196 454 174 q 521 247 506 218 l 560 147 q 490 64 531 100 q 401 7 449 28 q 300 -14 353 -14 m 207 835 l 126 904 l 326 1083 l 460 1083 l 660 904 l 579 835 l 372 953 l 414 953 l 207 835 z "},"ấ":{"ha":786,"x_min":53,"x_max":846,"o":"m 492 0 l 492 453 q 460 537 492 510 q 374 564 429 564 q 277 544 319 564 q 196 478 235 524 l 63 607 q 215 714 129 675 q 403 753 301 753 q 564 725 496 753 q 669 640 632 697 q 707 496 707 583 l 707 0 l 492 0 m 300 -14 q 174 14 231 -14 q 85 91 118 42 q 53 207 53 140 q 74 307 53 264 q 135 378 94 350 q 238 422 176 407 q 382 436 300 436 l 606 436 l 593 296 l 388 296 q 336 291 358 296 q 299 276 314 286 q 276 251 283 265 q 268 218 268 238 q 279 182 268 197 q 309 158 290 167 q 353 150 328 150 q 422 162 389 150 q 480 196 454 174 q 521 247 506 218 l 560 147 q 490 64 531 100 q 401 7 449 28 q 300 -14 353 -14 m 210 835 l 143 910 l 326 1060 l 461 1060 l 643 910 l 576 835 l 372 929 l 415 929 l 210 835 m 663 1049 l 574 1111 l 704 1340 l 846 1239 l 663 1049 z "},"ậ":{"ha":786,"x_min":53,"x_max":707,"o":"m 492 0 l 492 453 q 460 537 492 510 q 374 564 429 564 q 277 544 319 564 q 196 478 235 524 l 63 607 q 215 714 129 675 q 403 753 301 753 q 564 725 496 753 q 669 640 632 697 q 707 496 707 583 l 707 0 l 492 0 m 300 -14 q 174 14 231 -14 q 85 91 118 42 q 53 207 53 140 q 74 307 53 264 q 135 378 94 350 q 238 422 176 407 q 382 436 300 436 l 606 436 l 593 296 l 388 296 q 336 291 358 296 q 299 276 314 286 q 276 251 283 265 q 268 218 268 238 q 279 182 268 197 q 309 158 290 167 q 353 150 328 150 q 422 162 389 150 q 480 196 454 174 q 521 247 506 218 l 560 147 q 490 64 531 100 q 401 7 449 28 q 300 -14 353 -14 m 393 -312 q 294 -281 329 -312 q 258 -194 258 -250 q 294 -108 258 -142 q 393 -75 329 -75 q 494 -106 458 -75 q 531 -194 531 -137 q 494 -280 531 -247 q 393 -312 457 -312 m 207 835 l 126 904 l 326 1083 l 460 1083 l 660 904 l 579 835 l 372 953 l 414 953 l 207 835 z "},"ầ":{"ha":786,"x_min":53,"x_max":717,"o":"m 492 0 l 492 453 q 460 537 492 510 q 374 564 429 564 q 277 544 319 564 q 196 478 235 524 l 63 607 q 215 714 129 675 q 403 753 301 753 q 564 725 496 753 q 669 640 632 697 q 707 496 707 583 l 707 0 l 492 0 m 300 -14 q 174 14 231 -14 q 85 91 118 42 q 53 207 53 140 q 74 307 53 264 q 135 378 94 350 q 238 422 176 407 q 382 436 300 436 l 606 436 l 593 296 l 388 296 q 336 291 358 296 q 299 276 314 286 q 276 251 283 265 q 268 218 268 238 q 279 182 268 197 q 309 158 290 167 q 353 150 328 150 q 422 162 389 150 q 480 196 454 174 q 521 247 506 218 l 560 147 q 490 64 531 100 q 401 7 449 28 q 300 -14 353 -14 m 210 835 l 143 908 l 326 1060 l 460 1060 l 643 908 l 576 835 l 372 929 l 415 929 l 210 835 m 629 1046 l 443 1238 l 583 1339 l 717 1111 l 629 1046 z "},"ẩ":{"ha":786,"x_min":53,"x_max":808,"o":"m 492 0 l 492 453 q 460 537 492 510 q 374 564 429 564 q 277 544 319 564 q 196 478 235 524 l 63 607 q 215 714 129 675 q 403 753 301 753 q 564 725 496 753 q 669 640 632 697 q 707 496 707 583 l 707 0 l 492 0 m 300 -14 q 174 14 231 -14 q 85 91 118 42 q 53 207 53 140 q 74 307 53 264 q 135 378 94 350 q 238 422 176 407 q 382 436 300 436 l 606 436 l 593 296 l 388 296 q 336 291 358 296 q 299 276 314 286 q 276 251 283 265 q 268 218 268 238 q 279 182 268 197 q 309 158 290 167 q 353 150 328 150 q 422 162 389 150 q 480 196 454 174 q 521 247 506 218 l 560 147 q 490 64 531 100 q 401 7 449 28 q 300 -14 353 -14 m 210 835 l 142 910 l 328 1060 l 463 1060 l 644 910 l 578 835 l 374 929 l 415 929 l 210 835 m 610 1036 q 590 1064 597 1049 q 583 1093 583 1079 q 592 1122 586 1108 q 619 1150 597 1135 q 648 1170 638 1161 q 660 1189 658 1179 q 647 1209 660 1203 q 614 1215 633 1215 q 558 1208 588 1215 q 500 1189 528 1201 l 469 1307 q 541 1333 499 1322 q 629 1344 583 1344 q 760 1310 711 1344 q 808 1217 808 1275 q 788 1151 808 1174 q 743 1115 767 1129 q 706 1094 721 1104 q 692 1068 692 1083 q 692 1062 692 1065 q 693 1056 692 1058 l 610 1036 z "},"ẫ":{"ha":786,"x_min":53,"x_max":707,"o":"m 492 0 l 492 453 q 460 537 492 510 q 374 564 429 564 q 277 544 319 564 q 196 478 235 524 l 63 607 q 215 714 129 675 q 403 753 301 753 q 564 725 496 753 q 669 640 632 697 q 707 496 707 583 l 707 0 l 492 0 m 300 -14 q 174 14 231 -14 q 85 91 118 42 q 53 207 53 140 q 74 307 53 264 q 135 378 94 350 q 238 422 176 407 q 382 436 300 436 l 606 436 l 593 296 l 388 296 q 336 291 358 296 q 299 276 314 286 q 276 251 283 265 q 268 218 268 238 q 279 182 268 197 q 309 158 290 167 q 353 150 328 150 q 422 162 389 150 q 480 196 454 174 q 521 247 506 218 l 560 147 q 490 64 531 100 q 401 7 449 28 q 300 -14 353 -14 m 208 835 l 143 910 l 326 1060 l 460 1060 l 643 910 l 576 835 l 371 929 l 413 929 l 208 835 m 501 1147 q 444 1156 472 1147 q 383 1176 415 1164 q 348 1192 364 1186 q 318 1197 332 1197 q 283 1184 297 1197 q 265 1147 268 1171 l 140 1165 q 183 1286 140 1236 q 292 1336 225 1336 q 344 1328 318 1336 q 400 1307 371 1319 q 436 1292 419 1297 q 469 1286 453 1286 q 503 1299 489 1286 q 519 1336 517 1313 l 644 1318 q 625 1235 643 1275 q 576 1172 607 1196 q 501 1147 544 1147 z "},"ȁ":{"ha":786,"x_min":-10,"x_max":707,"o":"m 492 0 l 492 453 q 460 537 492 510 q 374 564 429 564 q 277 544 319 564 q 196 478 235 524 l 63 607 q 215 714 129 675 q 403 753 301 753 q 564 725 496 753 q 669 640 632 697 q 707 496 707 583 l 707 0 l 492 0 m 300 -14 q 174 14 231 -14 q 85 91 118 42 q 53 207 53 140 q 74 307 53 264 q 135 378 94 350 q 238 422 176 407 q 382 436 300 436 l 606 436 l 593 296 l 388 296 q 336 291 358 296 q 299 276 314 286 q 276 251 283 265 q 268 218 268 238 q 279 182 268 197 q 309 158 290 167 q 353 150 328 150 q 422 162 389 150 q 480 196 454 174 q 521 247 506 218 l 560 147 q 490 64 531 100 q 401 7 449 28 q 300 -14 353 -14 m 528 817 l 292 1008 l 425 1128 l 622 885 l 528 817 m 240 819 l -10 999 l 117 1126 l 328 892 l 240 819 z "},"ä":{"ha":786,"x_min":53,"x_max":707,"o":"m 492 0 l 492 453 q 460 537 492 510 q 374 564 429 564 q 277 544 319 564 q 196 478 235 524 l 63 607 q 215 714 129 675 q 403 753 301 753 q 564 725 496 753 q 669 640 632 697 q 707 496 707 583 l 707 0 l 492 0 m 300 -14 q 174 14 231 -14 q 85 91 118 42 q 53 207 53 140 q 74 307 53 264 q 135 378 94 350 q 238 422 176 407 q 382 436 300 436 l 606 436 l 593 296 l 388 296 q 336 291 358 296 q 299 276 314 286 q 276 251 283 265 q 268 218 268 238 q 279 182 268 197 q 309 158 290 167 q 353 150 328 150 q 422 162 389 150 q 480 196 454 174 q 521 247 506 218 l 560 147 q 490 64 531 100 q 401 7 449 28 q 300 -14 353 -14 m 561 876 q 471 908 503 876 q 439 996 439 940 q 472 1082 439 1049 q 561 1115 506 1115 q 650 1084 618 1115 q 682 996 682 1053 q 649 910 682 944 q 561 876 617 876 m 226 876 q 137 908 168 876 q 106 996 106 940 q 138 1082 106 1049 q 226 1115 171 1115 q 316 1084 285 1115 q 347 996 347 1053 q 315 910 347 944 q 226 876 282 876 z "},"ạ":{"ha":786,"x_min":53,"x_max":707,"o":"m 492 0 l 492 453 q 460 537 492 510 q 374 564 429 564 q 277 544 319 564 q 196 478 235 524 l 63 607 q 215 714 129 675 q 403 753 301 753 q 564 725 496 753 q 669 640 632 697 q 707 496 707 583 l 707 0 l 492 0 m 300 -14 q 174 14 231 -14 q 85 91 118 42 q 53 207 53 140 q 74 307 53 264 q 135 378 94 350 q 238 422 176 407 q 382 436 300 436 l 606 436 l 593 296 l 388 296 q 336 291 358 296 q 299 276 314 286 q 276 251 283 265 q 268 218 268 238 q 279 182 268 197 q 309 158 290 167 q 353 150 328 150 q 422 162 389 150 q 480 196 454 174 q 521 247 506 218 l 560 147 q 490 64 531 100 q 401 7 449 28 q 300 -14 353 -14 m 393 -312 q 294 -281 329 -312 q 258 -194 258 -250 q 294 -108 258 -142 q 393 -75 329 -75 q 494 -106 458 -75 q 531 -194 531 -137 q 494 -280 531 -247 q 393 -312 457 -312 z "},"à":{"ha":786,"x_min":53,"x_max":707,"o":"m 492 0 l 492 453 q 460 537 492 510 q 374 564 429 564 q 277 544 319 564 q 196 478 235 524 l 63 607 q 215 714 129 675 q 403 753 301 753 q 564 725 496 753 q 669 640 632 697 q 707 496 707 583 l 707 0 l 492 0 m 300 -14 q 174 14 231 -14 q 85 91 118 42 q 53 207 53 140 q 74 307 53 264 q 135 378 94 350 q 238 422 176 407 q 382 436 300 436 l 606 436 l 593 296 l 388 296 q 336 291 358 296 q 299 276 314 286 q 276 251 283 265 q 268 218 268 238 q 279 182 268 197 q 309 158 290 167 q 353 150 328 150 q 422 162 389 150 q 480 196 454 174 q 521 247 506 218 l 560 147 q 490 64 531 100 q 401 7 449 28 q 300 -14 353 -14 m 474 819 l 190 972 l 293 1118 l 540 922 l 474 819 z "},"ả":{"ha":786,"x_min":53,"x_max":707,"o":"m 492 0 l 492 453 q 460 537 492 510 q 374 564 429 564 q 277 544 319 564 q 196 478 235 524 l 63 607 q 215 714 129 675 q 403 753 301 753 q 564 725 496 753 q 669 640 632 697 q 707 496 707 583 l 707 0 l 492 0 m 300 -14 q 174 14 231 -14 q 85 91 118 42 q 53 207 53 140 q 74 307 53 264 q 135 378 94 350 q 238 422 176 407 q 382 436 300 436 l 606 436 l 593 296 l 388 296 q 336 291 358 296 q 299 276 314 286 q 276 251 283 265 q 268 218 268 238 q 279 182 268 197 q 309 158 290 167 q 353 150 328 150 q 422 162 389 150 q 480 196 454 174 q 521 247 506 218 l 560 147 q 490 64 531 100 q 401 7 449 28 q 300 -14 353 -14 m 358 822 q 340 849 347 835 q 332 882 332 864 q 340 914 332 897 q 375 949 349 931 q 405 970 393 961 q 417 993 417 979 q 405 1010 417 1004 q 374 1017 393 1017 q 317 1008 347 1017 q 257 988 286 1000 l 224 1107 q 299 1135 254 1124 q 392 1146 344 1146 q 516 1112 469 1146 q 563 1021 563 1078 q 544 952 563 975 q 504 914 525 929 q 466 888 482 900 q 450 861 450 875 q 451 852 450 857 q 454 843 453 847 l 358 822 z "},"ȃ":{"ha":786,"x_min":53,"x_max":707,"o":"m 492 0 l 492 453 q 460 537 492 510 q 374 564 429 564 q 277 544 319 564 q 196 478 235 524 l 63 607 q 215 714 129 675 q 403 753 301 753 q 564 725 496 753 q 669 640 632 697 q 707 496 707 583 l 707 0 l 492 0 m 300 -14 q 174 14 231 -14 q 85 91 118 42 q 53 207 53 140 q 74 307 53 264 q 135 378 94 350 q 238 422 176 407 q 382 436 300 436 l 606 436 l 593 296 l 388 296 q 336 291 358 296 q 299 276 314 286 q 276 251 283 265 q 268 218 268 238 q 279 182 268 197 q 309 158 290 167 q 353 150 328 150 q 422 162 389 150 q 480 196 454 174 q 521 247 506 218 l 560 147 q 490 64 531 100 q 401 7 449 28 q 300 -14 353 -14 m 288 847 l 143 864 q 231 1028 164 968 q 393 1088 297 1088 q 556 1028 489 1088 q 643 864 622 968 l 499 847 q 456 917 485 892 q 393 943 428 943 q 331 917 358 943 q 288 847 303 892 z "},"ā":{"ha":786,"x_min":53,"x_max":707,"o":"m 492 0 l 492 453 q 460 537 492 510 q 374 564 429 564 q 277 544 319 564 q 196 478 235 524 l 63 607 q 215 714 129 675 q 403 753 301 753 q 564 725 496 753 q 669 640 632 697 q 707 496 707 583 l 707 0 l 492 0 m 300 -14 q 174 14 231 -14 q 85 91 118 42 q 53 207 53 140 q 74 307 53 264 q 135 378 94 350 q 238 422 176 407 q 382 436 300 436 l 606 436 l 593 296 l 388 296 q 336 291 358 296 q 299 276 314 286 q 276 251 283 265 q 268 218 268 238 q 279 182 268 197 q 309 158 290 167 q 353 150 328 150 q 422 162 389 150 q 480 196 454 174 q 521 247 506 218 l 560 147 q 490 64 531 100 q 401 7 449 28 q 300 -14 353 -14 m 161 888 l 161 1029 l 625 1029 l 625 888 l 161 888 z "},"ą":{"ha":786,"x_min":53,"x_max":717,"o":"m 492 0 l 492 453 q 460 537 492 510 q 374 564 429 564 q 277 544 319 564 q 196 478 235 524 l 63 607 q 215 714 129 675 q 403 753 301 753 q 564 725 496 753 q 669 640 632 697 q 707 496 707 583 l 707 0 l 492 0 m 300 -14 q 174 14 231 -14 q 85 91 118 42 q 53 207 53 140 q 74 307 53 264 q 135 378 94 350 q 238 422 176 407 q 382 436 300 436 l 606 436 l 593 296 l 388 296 q 336 291 358 296 q 299 276 314 286 q 276 251 283 265 q 268 218 268 238 q 279 182 268 197 q 309 158 290 167 q 353 150 328 150 q 422 162 389 150 q 480 196 454 174 q 521 247 506 218 l 560 147 q 490 64 531 100 q 401 7 449 28 q 300 -14 353 -14 m 549 -290 q 465 -270 503 -290 q 403 -215 426 -250 q 381 -136 381 -179 q 395 -71 381 -100 q 440 -17 410 -42 q 516 28 471 8 q 621 64 561 47 l 676 0 q 607 -26 639 -8 q 556 -65 575 -43 q 538 -110 538 -86 q 547 -137 538 -126 q 575 -147 557 -147 q 597 -139 588 -147 q 618 -114 607 -131 l 717 -185 q 652 -257 696 -224 q 549 -290 608 -290 z "},"å":{"ha":786,"x_min":53,"x_max":707,"o":"m 492 0 l 492 453 q 460 537 492 510 q 374 564 429 564 q 277 544 319 564 q 196 478 235 524 l 63 607 q 215 714 129 675 q 403 753 301 753 q 564 725 496 753 q 669 640 632 697 q 707 496 707 583 l 707 0 l 492 0 m 300 -14 q 174 14 231 -14 q 85 91 118 42 q 53 207 53 140 q 74 307 53 264 q 135 378 94 350 q 238 422 176 407 q 382 436 300 436 l 606 436 l 593 296 l 388 296 q 336 291 358 296 q 299 276 314 286 q 276 251 283 265 q 268 218 268 238 q 279 182 268 197 q 309 158 290 167 q 353 150 328 150 q 422 162 389 150 q 480 196 454 174 q 521 247 506 218 l 560 147 q 490 64 531 100 q 401 7 449 28 q 300 -14 353 -14 m 393 840 q 310 863 349 840 q 249 921 272 885 q 225 1000 225 957 q 248 1082 225 1044 q 309 1142 271 1119 q 393 1164 347 1164 q 477 1142 439 1164 q 538 1082 515 1119 q 561 1000 561 1044 q 538 921 561 957 q 477 863 515 885 q 393 840 439 840 m 393 951 q 430 966 415 951 q 444 1000 444 981 q 430 1038 444 1024 q 393 1053 415 1053 q 356 1038 371 1053 q 342 1001 342 1024 q 356 966 342 981 q 393 951 371 951 z "},"ǻ":{"ha":786,"x_min":53,"x_max":707,"o":"m 492 0 l 492 453 q 460 537 492 510 q 374 564 429 564 q 277 544 319 564 q 196 478 235 524 l 63 607 q 215 714 129 675 q 403 753 301 753 q 564 725 496 753 q 669 640 632 697 q 707 496 707 583 l 707 0 l 492 0 m 300 -14 q 174 14 231 -14 q 85 91 118 42 q 53 207 53 140 q 74 307 53 264 q 135 378 94 350 q 238 422 176 407 q 382 436 300 436 l 606 436 l 593 296 l 388 296 q 336 291 358 296 q 299 276 314 286 q 276 251 283 265 q 268 218 268 238 q 279 182 268 197 q 309 158 290 167 q 353 150 328 150 q 422 162 389 150 q 480 196 454 174 q 521 247 506 218 l 560 147 q 490 64 531 100 q 401 7 449 28 q 300 -14 353 -14 m 393 840 q 310 863 349 840 q 249 921 272 885 q 225 1000 225 957 q 248 1082 225 1044 q 309 1142 271 1119 q 393 1164 347 1164 q 477 1142 439 1164 q 538 1082 515 1119 q 561 1000 561 1044 q 538 921 561 957 q 477 863 515 885 q 393 840 439 840 m 393 951 q 430 966 415 951 q 444 1000 444 981 q 430 1038 444 1024 q 393 1053 415 1053 q 356 1038 371 1053 q 342 1001 342 1024 q 356 966 342 981 q 393 951 371 951 m 283 1200 l 217 1303 l 464 1499 l 567 1353 l 283 1200 z "},"ã":{"ha":786,"x_min":53,"x_max":707,"o":"m 492 0 l 492 453 q 460 537 492 510 q 374 564 429 564 q 277 544 319 564 q 196 478 235 524 l 63 607 q 215 714 129 675 q 403 753 301 753 q 564 725 496 753 q 669 640 632 697 q 707 496 707 583 l 707 0 l 492 0 m 300 -14 q 174 14 231 -14 q 85 91 118 42 q 53 207 53 140 q 74 307 53 264 q 135 378 94 350 q 238 422 176 407 q 382 436 300 436 l 606 436 l 593 296 l 388 296 q 336 291 358 296 q 299 276 314 286 q 276 251 283 265 q 268 218 268 238 q 279 182 268 197 q 309 158 290 167 q 353 150 328 150 q 422 162 389 150 q 480 196 454 174 q 521 247 506 218 l 560 147 q 490 64 531 100 q 401 7 449 28 q 300 -14 353 -14 m 486 853 q 440 861 464 853 q 383 890 415 869 q 344 918 358 910 q 319 926 329 926 q 285 910 299 926 q 267 860 271 894 l 142 875 q 185 1010 142 954 q 303 1067 229 1067 q 349 1059 326 1067 q 404 1029 372 1051 q 440 1004 424 1015 q 471 993 456 993 q 503 1010 490 993 q 522 1060 517 1028 l 646 1043 q 624 949 644 993 q 569 879 604 906 q 486 853 535 853 z "},"æ":{"ha":1256,"x_min":53,"x_max":1214,"o":"m 306 -14 q 177 14 235 -14 q 86 91 119 42 q 53 207 53 140 q 74 307 53 264 q 138 379 96 350 q 243 422 181 408 q 388 436 306 436 l 1018 436 l 1004 421 l 1004 450 q 983 510 1001 483 q 936 551 965 536 q 869 565 907 565 q 777 544 815 565 q 719 482 739 522 q 700 382 700 442 q 728 278 700 324 q 807 206 756 232 q 928 181 858 181 q 1015 194 976 181 q 1097 242 1054 208 l 1194 93 q 1103 33 1151 57 q 1003 -3 1054 8 q 903 -14 953 -14 q 692 34 782 -14 q 553 167 603 82 q 504 364 504 253 q 531 520 504 449 q 608 644 558 592 q 723 724 657 696 q 867 753 789 753 q 1047 704 968 753 q 1169 572 1125 656 q 1213 381 1214 488 l 1211 313 l 390 313 q 340 306 361 313 q 303 289 318 300 q 281 261 289 278 q 274 224 274 244 q 284 186 274 203 q 313 160 294 169 q 357 150 332 150 q 427 162 394 150 q 485 196 460 174 q 526 247 511 218 l 599 131 q 523 53 569 86 q 420 3 476 21 q 306 -14 364 -14 m 500 344 l 500 463 q 491 508 500 489 q 466 539 482 526 q 427 558 450 551 q 375 564 404 564 q 283 544 321 564 q 213 478 244 524 l 79 608 q 217 713 132 674 q 407 753 303 753 q 527 738 474 753 q 619 694 581 724 q 677 618 657 664 q 697 511 697 572 l 697 349 l 500 344 z "},"ǽ":{"ha":1249,"x_min":53,"x_max":1214,"o":"m 306 -14 q 177 14 235 -14 q 86 91 119 42 q 53 207 53 140 q 74 307 53 264 q 138 379 96 350 q 243 422 181 408 q 388 436 306 436 l 1018 436 l 1004 421 l 1004 450 q 983 510 1001 483 q 936 551 965 536 q 869 565 907 565 q 777 544 815 565 q 719 482 739 522 q 700 382 700 442 q 728 278 700 324 q 807 206 756 232 q 928 181 858 181 q 1015 194 976 181 q 1097 242 1054 208 l 1194 93 q 1103 33 1151 57 q 1003 -3 1054 8 q 903 -14 953 -14 q 692 34 782 -14 q 553 167 603 82 q 504 364 504 253 q 531 520 504 449 q 608 644 558 592 q 723 724 657 696 q 867 753 789 753 q 1047 704 968 753 q 1169 572 1125 656 q 1213 381 1214 488 l 1211 313 l 390 313 q 340 306 361 313 q 303 289 318 300 q 281 261 289 278 q 274 224 274 244 q 284 186 274 203 q 313 160 294 169 q 357 150 332 150 q 427 162 394 150 q 485 196 460 174 q 526 247 511 218 l 599 131 q 523 53 569 86 q 420 3 476 21 q 306 -14 364 -14 m 500 344 l 500 463 q 491 508 500 489 q 466 539 482 526 q 427 558 450 551 q 375 564 404 564 q 283 544 321 564 q 213 478 244 524 l 79 608 q 217 713 132 674 q 407 753 303 753 q 527 738 474 753 q 619 694 581 724 q 677 618 657 664 q 697 511 697 572 l 697 349 l 500 344 m 524 818 l 457 921 l 704 1117 l 807 971 l 524 818 z "},"b":{"ha":914,"x_min":99,"x_max":867,"o":"m 542 -14 q 447 0 492 -14 q 364 37 401 14 q 302 90 326 60 q 271 154 278 121 l 319 171 l 307 3 l 99 3 l 99 1028 l 324 1028 l 324 565 l 278 581 q 310 646 286 615 q 369 701 333 676 q 447 739 404 725 q 536 753 490 753 q 706 703 632 753 q 824 566 781 653 q 867 368 867 479 q 824 171 867 257 q 708 35 782 85 q 542 -14 635 -14 m 483 174 q 570 198 533 174 q 628 266 607 222 q 649 368 649 310 q 628 472 649 428 q 571 540 608 515 q 483 564 533 564 q 396 540 433 564 q 338 472 358 515 q 317 368 317 428 q 338 266 317 310 q 396 198 358 222 q 483 174 433 174 z "},"c":{"ha":757,"x_min":47,"x_max":733,"o":"m 422 -14 q 230 36 315 -14 q 96 173 144 86 q 47 368 47 260 q 96 566 47 479 q 230 703 144 653 q 422 753 315 753 q 603 717 521 753 q 733 621 686 682 l 613 474 q 568 517 594 497 q 510 547 542 536 q 443 558 478 558 q 350 534 390 558 q 288 467 310 510 q 265 369 265 424 q 288 274 265 317 q 351 207 311 232 q 442 182 392 182 q 508 192 478 182 q 565 219 539 201 q 613 263 590 238 l 733 115 q 601 22 686 57 q 422 -14 517 -14 z "},"ć":{"ha":757,"x_min":47,"x_max":733,"o":"m 422 -14 q 230 36 315 -14 q 96 173 144 86 q 47 368 47 260 q 96 566 47 479 q 230 703 144 653 q 422 753 315 753 q 603 717 521 753 q 733 621 686 682 l 613 474 q 568 517 594 497 q 510 547 542 536 q 443 558 478 558 q 350 534 390 558 q 288 467 310 510 q 265 369 265 424 q 288 274 265 317 q 351 207 311 232 q 442 182 392 182 q 508 192 478 182 q 565 219 539 201 q 613 263 590 238 l 733 115 q 601 22 686 57 q 422 -14 517 -14 m 313 818 l 246 921 l 493 1117 l 596 971 l 313 818 z "},"č":{"ha":757,"x_min":47,"x_max":733,"o":"m 422 -14 q 230 36 315 -14 q 96 173 144 86 q 47 368 47 260 q 96 566 47 479 q 230 703 144 653 q 422 753 315 753 q 603 717 521 753 q 733 621 686 682 l 613 474 q 568 517 594 497 q 510 547 542 536 q 443 558 478 558 q 350 534 390 558 q 288 467 310 510 q 265 369 265 424 q 288 274 265 317 q 351 207 311 232 q 442 182 392 182 q 508 192 478 182 q 565 219 539 201 q 613 263 590 238 l 733 115 q 601 22 686 57 q 422 -14 517 -14 m 356 843 l 163 1022 l 243 1092 l 443 974 l 401 974 l 601 1092 l 682 1022 l 489 843 l 356 843 z "},"ç":{"ha":757,"x_min":47,"x_max":733,"o":"m 422 -14 q 230 36 315 -14 q 96 173 144 86 q 47 368 47 260 q 96 566 47 479 q 230 703 144 653 q 422 753 315 753 q 603 717 521 753 q 733 621 686 682 l 613 474 q 568 517 594 497 q 510 547 542 536 q 443 558 478 558 q 350 534 390 558 q 288 467 310 510 q 265 369 265 424 q 288 274 265 317 q 351 207 311 232 q 442 182 392 182 q 508 192 478 182 q 565 219 539 201 q 613 263 590 238 l 733 115 q 601 22 686 57 q 422 -14 517 -14 m 286 -342 l 272 -237 q 333 -231 301 -237 q 385 -210 364 -224 q 407 -182 407 -197 q 391 -156 407 -165 q 351 -141 375 -146 q 307 -136 328 -136 l 283 -118 l 381 35 l 494 35 l 432 -58 q 539 -104 504 -68 q 574 -193 574 -140 q 547 -264 574 -235 q 478 -311 521 -293 q 384 -336 435 -329 q 286 -342 333 -343 z "},"ḉ":{"ha":757,"x_min":47,"x_max":733,"o":"m 422 -14 q 230 36 315 -14 q 96 173 144 86 q 47 368 47 260 q 96 566 47 479 q 230 703 144 653 q 422 753 315 753 q 603 717 521 753 q 733 621 686 682 l 613 474 q 568 517 594 497 q 510 547 542 536 q 443 558 478 558 q 350 534 390 558 q 288 467 310 510 q 265 369 265 424 q 288 274 265 317 q 351 207 311 232 q 442 182 392 182 q 508 192 478 182 q 565 219 539 201 q 613 263 590 238 l 733 115 q 601 22 686 57 q 422 -14 517 -14 m 286 -342 l 272 -237 q 333 -231 301 -237 q 385 -210 364 -224 q 407 -182 407 -197 q 391 -156 407 -165 q 351 -141 375 -146 q 307 -136 328 -136 l 283 -118 l 381 35 l 494 35 l 432 -58 q 539 -104 504 -68 q 574 -193 574 -140 q 547 -264 574 -235 q 478 -311 521 -293 q 384 -336 435 -329 q 286 -342 333 -343 m 313 818 l 246 921 l 493 1117 l 596 971 l 313 818 z "},"ĉ":{"ha":757,"x_min":47,"x_max":733,"o":"m 422 -14 q 230 36 315 -14 q 96 173 144 86 q 47 368 47 260 q 96 566 47 479 q 230 703 144 653 q 422 753 315 753 q 603 717 521 753 q 733 621 686 682 l 613 474 q 568 517 594 497 q 510 547 542 536 q 443 558 478 558 q 350 534 390 558 q 288 467 310 510 q 265 369 265 424 q 288 274 265 317 q 351 207 311 232 q 442 182 392 182 q 508 192 478 182 q 565 219 539 201 q 613 263 590 238 l 733 115 q 601 22 686 57 q 422 -14 517 -14 m 236 835 l 156 904 l 356 1083 l 489 1083 l 689 904 l 608 835 l 401 953 l 443 953 l 236 835 z "},"ċ":{"ha":757,"x_min":47,"x_max":733,"o":"m 422 -14 q 230 36 315 -14 q 96 173 144 86 q 47 368 47 260 q 96 566 47 479 q 230 703 144 653 q 422 753 315 753 q 603 717 521 753 q 733 621 686 682 l 613 474 q 568 517 594 497 q 510 547 542 536 q 443 558 478 558 q 350 534 390 558 q 288 467 310 510 q 265 369 265 424 q 288 274 265 317 q 351 207 311 232 q 442 182 392 182 q 508 192 478 182 q 565 219 539 201 q 613 263 590 238 l 733 115 q 601 22 686 57 q 422 -14 517 -14 m 422 883 q 324 913 358 883 q 289 999 289 943 q 324 1082 289 1050 q 422 1114 360 1114 q 521 1084 486 1114 q 556 999 556 1054 q 520 915 556 947 q 422 883 485 883 z "},"d":{"ha":908,"x_min":47,"x_max":819,"o":"m 379 -14 q 209 35 285 -14 q 90 170 133 83 q 47 368 47 257 q 90 566 47 479 q 209 703 133 653 q 381 753 285 753 q 477 738 431 753 q 560 696 524 722 q 621 636 597 669 q 650 565 644 603 l 596 553 l 596 1028 l 819 1028 l 819 0 l 611 0 l 599 167 l 643 158 q 618 94 640 125 q 559 38 596 63 q 476 0 522 14 q 379 -14 431 -14 m 435 171 q 523 195 486 171 q 581 264 560 219 q 601 368 601 308 q 581 474 601 429 q 523 542 560 518 q 435 567 486 567 q 348 542 385 567 q 290 474 311 518 q 269 368 269 429 q 290 264 269 308 q 348 195 311 219 q 435 171 385 171 z "},"ð":{"ha":828,"x_min":47,"x_max":781,"o":"m 413 -10 q 224 39 307 -10 q 94 171 142 88 q 47 356 47 254 q 76 494 47 429 q 153 610 104 560 q 265 689 201 660 q 397 718 328 718 q 522 690 467 718 q 613 608 576 661 q 664 482 650 556 l 532 526 q 510 660 528 603 q 457 762 492 718 q 367 838 422 806 q 233 893 313 869 l 301 1036 q 463 974 389 1014 q 596 878 538 935 q 696 748 654 821 q 759 588 738 675 q 781 400 781 501 q 734 187 781 279 q 605 42 688 94 q 413 -10 522 -10 m 414 181 q 494 205 458 181 q 551 271 531 229 q 572 364 572 313 q 551 455 572 414 q 494 519 531 496 q 414 543 458 543 q 333 519 369 543 q 276 456 297 496 q 256 364 256 415 q 276 271 256 313 q 333 205 297 229 q 414 181 369 181 m 208 717 l 190 810 l 408 865 l 489 903 l 693 949 l 719 856 l 561 819 l 500 785 l 208 717 z "},"ď":{"ha":1044,"x_min":47,"x_max":1163,"o":"m 379 -14 q 209 35 285 -14 q 90 170 133 83 q 47 368 47 257 q 90 566 47 479 q 209 703 133 653 q 381 753 285 753 q 477 738 431 753 q 560 696 524 722 q 621 636 597 669 q 650 565 644 603 l 596 553 l 596 1028 l 819 1028 l 819 0 l 611 0 l 599 167 l 643 158 q 618 94 640 125 q 559 38 596 63 q 476 0 522 14 q 379 -14 431 -14 m 435 171 q 523 195 486 171 q 581 264 560 219 q 601 368 601 308 q 581 474 601 429 q 523 542 560 518 q 435 567 486 567 q 348 542 385 567 q 290 474 311 518 q 269 368 269 429 q 290 264 269 308 q 348 195 311 219 q 435 171 385 171 m 951 676 l 896 753 q 939 771 915 758 q 980 799 963 783 q 997 833 997 815 q 989 851 997 844 q 963 863 981 857 q 922 892 933 875 q 910 938 910 910 q 942 1005 910 982 q 1022 1028 974 1028 q 1122 994 1081 1028 q 1163 893 1163 960 q 1148 819 1163 853 q 1105 758 1133 785 q 1038 710 1076 731 q 951 676 1000 690 z "},"đ":{"ha":908,"x_min":47,"x_max":892,"o":"m 442 797 l 442 964 l 892 964 l 892 797 l 442 797 m 379 -14 q 209 35 285 -14 q 90 170 133 83 q 47 368 47 257 q 90 566 47 479 q 209 703 133 653 q 381 753 285 753 q 477 738 431 753 q 560 696 524 722 q 621 636 597 669 q 650 565 644 603 l 596 553 l 596 1028 l 819 1028 l 819 0 l 611 0 l 599 167 l 643 158 q 618 94 640 125 q 559 38 596 63 q 476 0 522 14 q 379 -14 431 -14 m 435 171 q 523 195 486 171 q 581 264 560 219 q 601 368 601 308 q 581 474 601 429 q 523 542 560 518 q 435 567 486 567 q 348 542 385 567 q 290 474 311 518 q 269 368 269 429 q 290 264 269 308 q 348 195 311 219 q 435 171 385 171 z "},"ḍ":{"ha":908,"x_min":47,"x_max":819,"o":"m 379 -14 q 209 35 285 -14 q 90 170 133 83 q 47 368 47 257 q 90 566 47 479 q 209 703 133 653 q 381 753 285 753 q 477 738 431 753 q 560 696 524 722 q 621 636 597 669 q 650 565 644 603 l 596 553 l 596 1028 l 819 1028 l 819 0 l 611 0 l 599 167 l 643 158 q 618 94 640 125 q 559 38 596 63 q 476 0 522 14 q 379 -14 431 -14 m 435 171 q 523 195 486 171 q 581 264 560 219 q 601 368 601 308 q 581 474 601 429 q 523 542 560 518 q 435 567 486 567 q 348 542 385 567 q 290 474 311 518 q 269 368 269 429 q 290 264 269 308 q 348 195 311 219 q 435 171 385 171 m 456 -312 q 356 -281 392 -312 q 321 -194 321 -250 q 356 -108 321 -142 q 456 -75 392 -75 q 557 -106 521 -75 q 593 -194 593 -137 q 556 -280 593 -247 q 456 -312 519 -312 z "},"ḏ":{"ha":908,"x_min":47,"x_max":819,"o":"m 379 -14 q 209 35 285 -14 q 90 170 133 83 q 47 368 47 257 q 90 566 47 479 q 209 703 133 653 q 381 753 285 753 q 477 738 431 753 q 560 696 524 722 q 621 636 597 669 q 650 565 644 603 l 596 553 l 596 1028 l 819 1028 l 819 0 l 611 0 l 599 167 l 643 158 q 618 94 640 125 q 559 38 596 63 q 476 0 522 14 q 379 -14 431 -14 m 435 171 q 523 195 486 171 q 581 264 560 219 q 601 368 601 308 q 581 474 601 429 q 523 542 560 518 q 435 567 486 567 q 348 542 385 567 q 290 474 311 518 q 269 368 269 429 q 290 264 269 308 q 348 195 311 219 q 435 171 385 171 m 242 -276 l 242 -112 l 667 -112 l 667 -276 l 242 -276 z "},"ǆ":{"ha":1672,"x_min":47,"x_max":1600,"o":"m 379 -14 q 209 35 285 -14 q 90 170 133 83 q 47 368 47 257 q 90 566 47 479 q 209 703 133 653 q 381 753 285 753 q 477 738 431 753 q 560 696 524 722 q 621 636 597 669 q 650 565 644 603 l 596 553 l 596 1028 l 819 1028 l 819 0 l 611 0 l 599 167 l 643 158 q 618 94 640 125 q 559 38 596 63 q 476 0 522 14 q 379 -14 431 -14 m 435 171 q 523 195 486 171 q 581 264 560 219 q 601 368 601 308 q 581 474 601 429 q 523 542 560 518 q 435 567 486 567 q 348 542 385 567 q 290 474 311 518 q 269 368 269 429 q 290 264 269 308 q 348 195 311 219 q 435 171 385 171 m 978 0 l 978 131 l 1368 626 l 1368 556 l 978 556 l 978 738 l 1589 738 l 1589 603 l 1221 119 l 1215 182 l 1600 182 l 1600 0 l 978 0 m 1224 843 l 1031 1022 l 1111 1092 l 1311 974 l 1269 974 l 1469 1092 l 1550 1022 l 1357 843 l 1224 843 z "},"e":{"ha":815,"x_min":47,"x_max":774,"o":"m 450 -14 q 237 35 328 -14 q 97 169 146 83 q 47 364 47 254 q 75 522 47 450 q 153 644 103 593 q 273 724 204 696 q 424 753 342 753 q 565 725 501 753 q 676 647 629 697 q 749 529 724 597 q 772 381 774 461 l 771 319 l 185 319 l 151 446 l 589 446 l 565 421 l 565 449 q 544 509 563 483 q 495 550 525 535 q 428 565 465 565 q 334 544 372 565 q 276 482 296 522 q 257 382 257 442 q 283 276 257 322 q 358 206 308 231 q 475 181 407 181 q 558 194 521 181 q 639 242 596 208 l 743 94 q 651 34 700 58 q 552 -2 603 10 q 450 -14 501 -14 z "},"é":{"ha":815,"x_min":47,"x_max":774,"o":"m 450 -14 q 237 35 328 -14 q 97 169 146 83 q 47 364 47 254 q 75 522 47 450 q 153 644 103 593 q 273 724 204 696 q 424 753 342 753 q 565 725 501 753 q 676 647 629 697 q 749 529 724 597 q 772 381 774 461 l 771 319 l 185 319 l 151 446 l 589 446 l 565 421 l 565 449 q 544 509 563 483 q 495 550 525 535 q 428 565 465 565 q 334 544 372 565 q 276 482 296 522 q 257 382 257 442 q 283 276 257 322 q 358 206 308 231 q 475 181 407 181 q 558 194 521 181 q 639 242 596 208 l 743 94 q 651 34 700 58 q 552 -2 603 10 q 450 -14 501 -14 m 315 818 l 249 921 l 496 1117 l 599 971 l 315 818 z "},"ĕ":{"ha":815,"x_min":47,"x_max":774,"o":"m 450 -14 q 237 35 328 -14 q 97 169 146 83 q 47 364 47 254 q 75 522 47 450 q 153 644 103 593 q 273 724 204 696 q 424 753 342 753 q 565 725 501 753 q 676 647 629 697 q 749 529 724 597 q 772 381 774 461 l 771 319 l 185 319 l 151 446 l 589 446 l 565 421 l 565 449 q 544 509 563 483 q 495 550 525 535 q 428 565 465 565 q 334 544 372 565 q 276 482 296 522 q 257 382 257 442 q 283 276 257 322 q 358 206 308 231 q 475 181 407 181 q 558 194 521 181 q 639 242 596 208 l 743 94 q 651 34 700 58 q 552 -2 603 10 q 450 -14 501 -14 m 424 833 q 261 892 328 833 q 174 1057 194 951 l 318 1074 q 361 1005 333 1031 q 424 979 389 979 q 487 1005 458 979 q 529 1074 515 1031 l 674 1057 q 586 892 653 951 q 424 833 519 833 z "},"ě":{"ha":815,"x_min":47,"x_max":774,"o":"m 450 -14 q 237 35 328 -14 q 97 169 146 83 q 47 364 47 254 q 75 522 47 450 q 153 644 103 593 q 273 724 204 696 q 424 753 342 753 q 565 725 501 753 q 676 647 629 697 q 749 529 724 597 q 772 381 774 461 l 771 319 l 185 319 l 151 446 l 589 446 l 565 421 l 565 449 q 544 509 563 483 q 495 550 525 535 q 428 565 465 565 q 334 544 372 565 q 276 482 296 522 q 257 382 257 442 q 283 276 257 322 q 358 206 308 231 q 475 181 407 181 q 558 194 521 181 q 639 242 596 208 l 743 94 q 651 34 700 58 q 552 -2 603 10 q 450 -14 501 -14 m 357 843 l 164 1022 l 244 1092 l 444 974 l 403 974 l 603 1092 l 683 1022 l 490 843 l 357 843 z "},"ḝ":{"ha":815,"x_min":47,"x_max":774,"o":"m 450 -14 q 237 35 328 -14 q 97 169 146 83 q 47 364 47 254 q 75 522 47 450 q 153 644 103 593 q 273 724 204 696 q 424 753 342 753 q 565 725 501 753 q 676 647 629 697 q 749 529 724 597 q 772 381 774 461 l 771 319 l 185 319 l 151 446 l 589 446 l 565 421 l 565 449 q 544 509 563 483 q 495 550 525 535 q 428 565 465 565 q 334 544 372 565 q 276 482 296 522 q 257 382 257 442 q 283 276 257 322 q 358 206 308 231 q 475 181 407 181 q 558 194 521 181 q 639 242 596 208 l 743 94 q 651 34 700 58 q 552 -2 603 10 q 450 -14 501 -14 m 314 -342 l 300 -237 q 360 -231 329 -237 q 413 -210 392 -224 q 435 -182 435 -197 q 419 -156 435 -165 q 379 -141 403 -146 q 335 -136 356 -136 l 311 -118 l 408 35 l 522 35 l 460 -58 q 567 -104 532 -68 q 601 -193 601 -140 q 575 -264 601 -235 q 506 -311 549 -293 q 412 -336 463 -329 q 314 -342 361 -343 m 424 833 q 261 892 328 833 q 174 1057 194 951 l 318 1074 q 361 1005 333 1031 q 424 979 389 979 q 487 1005 458 979 q 529 1074 515 1031 l 674 1057 q 586 892 653 951 q 424 833 519 833 z "},"ê":{"ha":815,"x_min":47,"x_max":774,"o":"m 450 -14 q 237 35 328 -14 q 97 169 146 83 q 47 364 47 254 q 75 522 47 450 q 153 644 103 593 q 273 724 204 696 q 424 753 342 753 q 565 725 501 753 q 676 647 629 697 q 749 529 724 597 q 772 381 774 461 l 771 319 l 185 319 l 151 446 l 589 446 l 565 421 l 565 449 q 544 509 563 483 q 495 550 525 535 q 428 565 465 565 q 334 544 372 565 q 276 482 296 522 q 257 382 257 442 q 283 276 257 322 q 358 206 308 231 q 475 181 407 181 q 558 194 521 181 q 639 242 596 208 l 743 94 q 651 34 700 58 q 552 -2 603 10 q 450 -14 501 -14 m 238 835 l 157 904 l 357 1083 l 490 1083 l 690 904 l 610 835 l 403 953 l 444 953 l 238 835 z "},"ế":{"ha":815,"x_min":47,"x_max":876,"o":"m 450 -14 q 237 35 328 -14 q 97 169 146 83 q 47 364 47 254 q 75 522 47 450 q 153 644 103 593 q 273 724 204 696 q 424 753 342 753 q 565 725 501 753 q 676 647 629 697 q 749 529 724 597 q 772 381 774 461 l 771 319 l 185 319 l 151 446 l 589 446 l 565 421 l 565 449 q 544 509 563 483 q 495 550 525 535 q 428 565 465 565 q 334 544 372 565 q 276 482 296 522 q 257 382 257 442 q 283 276 257 322 q 358 206 308 231 q 475 181 407 181 q 558 194 521 181 q 639 242 596 208 l 743 94 q 651 34 700 58 q 552 -2 603 10 q 450 -14 501 -14 m 240 835 l 174 910 l 357 1060 l 492 1060 l 674 910 l 607 835 l 403 929 l 446 929 l 240 835 m 693 1049 l 604 1111 l 735 1340 l 876 1239 l 693 1049 z "},"ệ":{"ha":815,"x_min":47,"x_max":774,"o":"m 450 -14 q 237 35 328 -14 q 97 169 146 83 q 47 364 47 254 q 75 522 47 450 q 153 644 103 593 q 273 724 204 696 q 424 753 342 753 q 565 725 501 753 q 676 647 629 697 q 749 529 724 597 q 772 381 774 461 l 771 319 l 185 319 l 151 446 l 589 446 l 565 421 l 565 449 q 544 509 563 483 q 495 550 525 535 q 428 565 465 565 q 334 544 372 565 q 276 482 296 522 q 257 382 257 442 q 283 276 257 322 q 358 206 308 231 q 475 181 407 181 q 558 194 521 181 q 639 242 596 208 l 743 94 q 651 34 700 58 q 552 -2 603 10 q 450 -14 501 -14 m 450 -312 q 351 -281 386 -312 q 315 -194 315 -250 q 351 -108 315 -142 q 450 -75 386 -75 q 551 -106 515 -75 q 588 -194 588 -137 q 551 -280 588 -247 q 450 -312 514 -312 m 238 835 l 157 904 l 357 1083 l 490 1083 l 690 904 l 610 835 l 403 953 l 444 953 l 238 835 z "},"ề":{"ha":815,"x_min":47,"x_max":774,"o":"m 450 -14 q 237 35 328 -14 q 97 169 146 83 q 47 364 47 254 q 75 522 47 450 q 153 644 103 593 q 273 724 204 696 q 424 753 342 753 q 565 725 501 753 q 676 647 629 697 q 749 529 724 597 q 772 381 774 461 l 771 319 l 185 319 l 151 446 l 589 446 l 565 421 l 565 449 q 544 509 563 483 q 495 550 525 535 q 428 565 465 565 q 334 544 372 565 q 276 482 296 522 q 257 382 257 442 q 283 276 257 322 q 358 206 308 231 q 475 181 407 181 q 558 194 521 181 q 639 242 596 208 l 743 94 q 651 34 700 58 q 552 -2 603 10 q 450 -14 501 -14 m 240 835 l 174 908 l 357 1060 l 490 1060 l 674 908 l 607 835 l 403 929 l 446 929 l 240 835 m 660 1046 l 474 1238 l 614 1339 l 747 1111 l 660 1046 z "},"ể":{"ha":815,"x_min":47,"x_max":838,"o":"m 450 -14 q 237 35 328 -14 q 97 169 146 83 q 47 364 47 254 q 75 522 47 450 q 153 644 103 593 q 273 724 204 696 q 424 753 342 753 q 565 725 501 753 q 676 647 629 697 q 749 529 724 597 q 772 381 774 461 l 771 319 l 185 319 l 151 446 l 589 446 l 565 421 l 565 449 q 544 509 563 483 q 495 550 525 535 q 428 565 465 565 q 334 544 372 565 q 276 482 296 522 q 257 382 257 442 q 283 276 257 322 q 358 206 308 231 q 475 181 407 181 q 558 194 521 181 q 639 242 596 208 l 743 94 q 651 34 700 58 q 552 -2 603 10 q 450 -14 501 -14 m 239 835 l 171 910 l 357 1060 l 492 1060 l 674 910 l 607 835 l 403 929 l 444 929 l 239 835 m 639 1036 q 619 1064 626 1049 q 613 1093 613 1079 q 621 1122 615 1108 q 649 1150 626 1135 q 677 1170 667 1161 q 689 1189 688 1179 q 676 1209 689 1203 q 643 1215 663 1215 q 587 1208 617 1215 q 529 1189 557 1201 l 499 1307 q 570 1333 528 1322 q 658 1344 613 1344 q 789 1310 740 1344 q 838 1217 838 1275 q 817 1151 838 1174 q 772 1115 796 1129 q 735 1094 750 1104 q 721 1068 721 1083 q 721 1062 721 1065 q 722 1056 721 1058 l 639 1036 z "},"ễ":{"ha":815,"x_min":47,"x_max":774,"o":"m 450 -14 q 237 35 328 -14 q 97 169 146 83 q 47 364 47 254 q 75 522 47 450 q 153 644 103 593 q 273 724 204 696 q 424 753 342 753 q 565 725 501 753 q 676 647 629 697 q 749 529 724 597 q 772 381 774 461 l 771 319 l 185 319 l 151 446 l 589 446 l 565 421 l 565 449 q 544 509 563 483 q 495 550 525 535 q 428 565 465 565 q 334 544 372 565 q 276 482 296 522 q 257 382 257 442 q 283 276 257 322 q 358 206 308 231 q 475 181 407 181 q 558 194 521 181 q 639 242 596 208 l 743 94 q 651 34 700 58 q 552 -2 603 10 q 450 -14 501 -14 m 239 835 l 174 910 l 357 1060 l 490 1060 l 674 910 l 607 835 l 401 929 l 443 929 l 239 835 m 532 1147 q 474 1156 503 1147 q 414 1176 446 1164 q 378 1192 394 1186 q 349 1197 363 1197 q 313 1184 328 1197 q 296 1147 299 1171 l 171 1165 q 213 1286 171 1236 q 322 1336 256 1336 q 375 1328 349 1336 q 431 1307 401 1319 q 467 1292 450 1297 q 500 1286 483 1286 q 533 1299 519 1286 q 550 1336 547 1313 l 675 1318 q 656 1235 674 1275 q 606 1172 638 1196 q 532 1147 575 1147 z "},"ȅ":{"ha":815,"x_min":19,"x_max":774,"o":"m 450 -14 q 237 35 328 -14 q 97 169 146 83 q 47 364 47 254 q 75 522 47 450 q 153 644 103 593 q 273 724 204 696 q 424 753 342 753 q 565 725 501 753 q 676 647 629 697 q 749 529 724 597 q 772 381 774 461 l 771 319 l 185 319 l 151 446 l 589 446 l 565 421 l 565 449 q 544 509 563 483 q 495 550 525 535 q 428 565 465 565 q 334 544 372 565 q 276 482 296 522 q 257 382 257 442 q 283 276 257 322 q 358 206 308 231 q 475 181 407 181 q 558 194 521 181 q 639 242 596 208 l 743 94 q 651 34 700 58 q 552 -2 603 10 q 450 -14 501 -14 m 557 817 l 321 1008 l 454 1128 l 651 885 l 557 817 m 269 819 l 19 999 l 146 1126 l 357 892 l 269 819 z "},"ë":{"ha":815,"x_min":47,"x_max":774,"o":"m 450 -14 q 237 35 328 -14 q 97 169 146 83 q 47 364 47 254 q 75 522 47 450 q 153 644 103 593 q 273 724 204 696 q 424 753 342 753 q 565 725 501 753 q 676 647 629 697 q 749 529 724 597 q 772 381 774 461 l 771 319 l 185 319 l 151 446 l 589 446 l 565 421 l 565 449 q 544 509 563 483 q 495 550 525 535 q 428 565 465 565 q 334 544 372 565 q 276 482 296 522 q 257 382 257 442 q 283 276 257 322 q 358 206 308 231 q 475 181 407 181 q 558 194 521 181 q 639 242 596 208 l 743 94 q 651 34 700 58 q 552 -2 603 10 q 450 -14 501 -14 m 590 876 q 500 908 532 876 q 468 996 468 940 q 501 1082 468 1049 q 590 1115 535 1115 q 679 1084 647 1115 q 711 996 711 1053 q 678 910 711 944 q 590 876 646 876 m 256 876 q 166 908 197 876 q 135 996 135 940 q 167 1082 135 1049 q 256 1115 200 1115 q 345 1084 314 1115 q 376 996 376 1053 q 344 910 376 944 q 256 876 311 876 z "},"ė":{"ha":815,"x_min":47,"x_max":774,"o":"m 450 -14 q 237 35 328 -14 q 97 169 146 83 q 47 364 47 254 q 75 522 47 450 q 153 644 103 593 q 273 724 204 696 q 424 753 342 753 q 565 725 501 753 q 676 647 629 697 q 749 529 724 597 q 772 381 774 461 l 771 319 l 185 319 l 151 446 l 589 446 l 565 421 l 565 449 q 544 509 563 483 q 495 550 525 535 q 428 565 465 565 q 334 544 372 565 q 276 482 296 522 q 257 382 257 442 q 283 276 257 322 q 358 206 308 231 q 475 181 407 181 q 558 194 521 181 q 639 242 596 208 l 743 94 q 651 34 700 58 q 552 -2 603 10 q 450 -14 501 -14 m 424 883 q 325 913 360 883 q 290 999 290 943 q 326 1082 290 1050 q 424 1114 361 1114 q 522 1084 488 1114 q 557 999 557 1054 q 522 915 557 947 q 424 883 486 883 z "},"ẹ":{"ha":815,"x_min":47,"x_max":774,"o":"m 450 -14 q 237 35 328 -14 q 97 169 146 83 q 47 364 47 254 q 75 522 47 450 q 153 644 103 593 q 273 724 204 696 q 424 753 342 753 q 565 725 501 753 q 676 647 629 697 q 749 529 724 597 q 772 381 774 461 l 771 319 l 185 319 l 151 446 l 589 446 l 565 421 l 565 449 q 544 509 563 483 q 495 550 525 535 q 428 565 465 565 q 334 544 372 565 q 276 482 296 522 q 257 382 257 442 q 283 276 257 322 q 358 206 308 231 q 475 181 407 181 q 558 194 521 181 q 639 242 596 208 l 743 94 q 651 34 700 58 q 552 -2 603 10 q 450 -14 501 -14 m 450 -312 q 351 -281 386 -312 q 315 -194 315 -250 q 351 -108 315 -142 q 450 -75 386 -75 q 551 -106 515 -75 q 588 -194 588 -137 q 551 -280 588 -247 q 450 -312 514 -312 z "},"è":{"ha":815,"x_min":47,"x_max":774,"o":"m 450 -14 q 237 35 328 -14 q 97 169 146 83 q 47 364 47 254 q 75 522 47 450 q 153 644 103 593 q 273 724 204 696 q 424 753 342 753 q 565 725 501 753 q 676 647 629 697 q 749 529 724 597 q 772 381 774 461 l 771 319 l 185 319 l 151 446 l 589 446 l 565 421 l 565 449 q 544 509 563 483 q 495 550 525 535 q 428 565 465 565 q 334 544 372 565 q 276 482 296 522 q 257 382 257 442 q 283 276 257 322 q 358 206 308 231 q 475 181 407 181 q 558 194 521 181 q 639 242 596 208 l 743 94 q 651 34 700 58 q 552 -2 603 10 q 450 -14 501 -14 m 504 819 l 221 972 l 324 1118 l 571 922 l 504 819 z "},"ẻ":{"ha":815,"x_min":47,"x_max":774,"o":"m 450 -14 q 237 35 328 -14 q 97 169 146 83 q 47 364 47 254 q 75 522 47 450 q 153 644 103 593 q 273 724 204 696 q 424 753 342 753 q 565 725 501 753 q 676 647 629 697 q 749 529 724 597 q 772 381 774 461 l 771 319 l 185 319 l 151 446 l 589 446 l 565 421 l 565 449 q 544 509 563 483 q 495 550 525 535 q 428 565 465 565 q 334 544 372 565 q 276 482 296 522 q 257 382 257 442 q 283 276 257 322 q 358 206 308 231 q 475 181 407 181 q 558 194 521 181 q 639 242 596 208 l 743 94 q 651 34 700 58 q 552 -2 603 10 q 450 -14 501 -14 m 388 822 q 369 849 376 835 q 361 882 361 864 q 369 914 361 897 q 404 949 378 931 q 434 970 422 961 q 446 993 446 979 q 434 1010 446 1004 q 403 1017 422 1017 q 346 1008 376 1017 q 286 988 315 1000 l 253 1107 q 328 1135 283 1124 q 421 1146 374 1146 q 545 1112 499 1146 q 592 1021 592 1078 q 573 952 592 975 q 533 914 554 929 q 495 888 511 900 q 479 861 479 875 q 481 852 479 857 q 483 843 482 847 l 388 822 z "},"ȇ":{"ha":815,"x_min":47,"x_max":774,"o":"m 450 -14 q 237 35 328 -14 q 97 169 146 83 q 47 364 47 254 q 75 522 47 450 q 153 644 103 593 q 273 724 204 696 q 424 753 342 753 q 565 725 501 753 q 676 647 629 697 q 749 529 724 597 q 772 381 774 461 l 771 319 l 185 319 l 151 446 l 589 446 l 565 421 l 565 449 q 544 509 563 483 q 495 550 525 535 q 428 565 465 565 q 334 544 372 565 q 276 482 296 522 q 257 382 257 442 q 283 276 257 322 q 358 206 308 231 q 475 181 407 181 q 558 194 521 181 q 639 242 596 208 l 743 94 q 651 34 700 58 q 552 -2 603 10 q 450 -14 501 -14 m 318 847 l 174 864 q 261 1028 194 968 q 424 1088 328 1088 q 586 1028 519 1088 q 674 864 653 968 l 529 847 q 487 917 515 892 q 424 943 458 943 q 361 917 389 943 q 318 847 333 892 z "},"ē":{"ha":815,"x_min":47,"x_max":774,"o":"m 450 -14 q 237 35 328 -14 q 97 169 146 83 q 47 364 47 254 q 75 522 47 450 q 153 644 103 593 q 273 724 204 696 q 424 753 342 753 q 565 725 501 753 q 676 647 629 697 q 749 529 724 597 q 772 381 774 461 l 771 319 l 185 319 l 151 446 l 589 446 l 565 421 l 565 449 q 544 509 563 483 q 495 550 525 535 q 428 565 465 565 q 334 544 372 565 q 276 482 296 522 q 257 382 257 442 q 283 276 257 322 q 358 206 308 231 q 475 181 407 181 q 558 194 521 181 q 639 242 596 208 l 743 94 q 651 34 700 58 q 552 -2 603 10 q 450 -14 501 -14 m 192 888 l 192 1029 l 656 1029 l 656 888 l 192 888 z "},"ḗ":{"ha":815,"x_min":47,"x_max":774,"o":"m 450 -14 q 237 35 328 -14 q 97 169 146 83 q 47 364 47 254 q 75 522 47 450 q 153 644 103 593 q 273 724 204 696 q 424 753 342 753 q 565 725 501 753 q 676 647 629 697 q 749 529 724 597 q 772 381 774 461 l 771 319 l 185 319 l 151 446 l 589 446 l 565 421 l 565 449 q 544 509 563 483 q 495 550 525 535 q 428 565 465 565 q 334 544 372 565 q 276 482 296 522 q 257 382 257 442 q 283 276 257 322 q 358 206 308 231 q 475 181 407 181 q 558 194 521 181 q 639 242 596 208 l 743 94 q 651 34 700 58 q 552 -2 603 10 q 450 -14 501 -14 m 192 874 l 192 1015 l 656 1015 l 656 874 l 192 874 m 432 1079 l 338 1140 l 469 1371 l 610 1268 l 432 1079 z "},"ḕ":{"ha":815,"x_min":47,"x_max":774,"o":"m 450 -14 q 237 35 328 -14 q 97 169 146 83 q 47 364 47 254 q 75 522 47 450 q 153 644 103 593 q 273 724 204 696 q 424 753 342 753 q 565 725 501 753 q 676 647 629 697 q 749 529 724 597 q 772 381 774 461 l 771 319 l 185 319 l 151 446 l 589 446 l 565 421 l 565 449 q 544 509 563 483 q 495 550 525 535 q 428 565 465 565 q 334 544 372 565 q 276 482 296 522 q 257 382 257 442 q 283 276 257 322 q 358 206 308 231 q 475 181 407 181 q 558 194 521 181 q 639 242 596 208 l 743 94 q 651 34 700 58 q 552 -2 603 10 q 450 -14 501 -14 m 438 1079 l 260 1268 l 403 1371 l 532 1140 l 438 1079 m 192 874 l 192 1015 l 656 1015 l 656 874 l 192 874 z "},"ę":{"ha":815,"x_min":47,"x_max":774,"o":"m 531 -283 q 415 -240 457 -283 q 372 -136 372 -196 q 408 -33 372 -78 q 506 49 443 11 q 653 126 569 88 l 693 58 q 569 -21 613 14 q 526 -94 526 -56 q 538 -127 526 -115 q 567 -139 549 -139 q 592 -131 582 -139 q 615 -107 603 -122 l 711 -178 q 644 -250 689 -217 q 531 -283 599 -283 m 450 -14 q 237 35 328 -14 q 97 169 146 83 q 47 364 47 254 q 75 522 47 450 q 153 644 103 593 q 273 724 204 696 q 424 753 342 753 q 565 725 501 753 q 676 647 629 697 q 749 529 724 597 q 772 381 774 461 l 771 319 l 185 319 l 151 446 l 589 446 l 565 421 l 565 449 q 544 509 563 483 q 495 550 525 535 q 428 565 465 565 q 334 544 372 565 q 276 482 296 522 q 257 382 257 442 q 283 276 257 322 q 358 206 308 231 q 475 181 407 181 q 558 194 521 181 q 639 242 596 208 l 743 94 q 651 34 700 58 q 552 -2 603 10 q 450 -14 501 -14 z "},"ẽ":{"ha":815,"x_min":47,"x_max":774,"o":"m 450 -14 q 237 35 328 -14 q 97 169 146 83 q 47 364 47 254 q 75 522 47 450 q 153 644 103 593 q 273 724 204 696 q 424 753 342 753 q 565 725 501 753 q 676 647 629 697 q 749 529 724 597 q 772 381 774 461 l 771 319 l 185 319 l 151 446 l 589 446 l 565 421 l 565 449 q 544 509 563 483 q 495 550 525 535 q 428 565 465 565 q 334 544 372 565 q 276 482 296 522 q 257 382 257 442 q 283 276 257 322 q 358 206 308 231 q 475 181 407 181 q 558 194 521 181 q 639 242 596 208 l 743 94 q 651 34 700 58 q 552 -2 603 10 q 450 -14 501 -14 m 515 853 q 469 861 493 853 q 413 890 444 869 q 373 918 388 910 q 349 926 358 926 q 314 910 328 926 q 296 860 300 894 l 171 875 q 215 1010 171 954 q 332 1067 258 1067 q 378 1059 356 1067 q 433 1029 401 1051 q 469 1004 453 1015 q 500 993 485 993 q 533 1010 519 993 q 551 1060 546 1028 l 675 1043 q 653 949 674 993 q 599 879 633 906 q 515 853 564 853 z "},"ə":{"ha":815,"x_min":43,"x_max":768,"o":"m 392 -17 q 211 33 290 -15 q 88 165 132 81 q 43 357 43 250 l 44 417 l 632 417 l 664 290 l 226 290 l 251 317 l 251 288 q 272 228 254 254 q 321 188 290 203 q 389 172 351 172 q 482 194 444 172 q 539 256 519 215 q 558 354 558 296 q 533 460 558 415 q 459 531 507 506 q 342 556 411 556 q 258 542 294 556 q 178 493 221 529 l 72 643 q 165 704 117 681 q 265 740 214 728 q 365 751 315 751 q 579 702 489 751 q 719 567 669 653 q 768 372 768 482 q 740 216 768 288 q 662 93 713 144 q 542 13 611 42 q 392 -17 474 -17 z "},"f":{"ha":549,"x_min":38,"x_max":572,"o":"m 146 0 l 146 774 q 177 903 146 846 q 265 996 208 961 q 397 1031 322 1031 q 493 1015 449 1031 q 572 971 538 999 l 508 808 q 474 824 490 818 q 443 829 457 829 q 401 821 418 829 q 377 796 385 813 q 369 754 369 779 l 369 0 l 257 0 q 192 0 221 0 q 146 0 164 0 m 38 531 l 38 717 l 521 717 l 521 531 l 38 531 z "},"g":{"ha":931,"x_min":47,"x_max":836,"o":"m 436 -319 q 258 -294 347 -319 q 113 -226 168 -268 l 190 -68 q 291 -116 235 -99 q 408 -133 347 -133 q 524 -112 479 -133 q 590 -50 568 -92 q 611 54 611 -8 l 611 176 l 653 168 q 606 88 644 125 q 513 28 568 50 q 396 6 457 6 q 217 52 296 6 q 92 181 138 99 q 47 372 47 264 q 92 569 47 483 q 215 704 138 656 q 390 753 293 753 q 469 744 431 753 q 540 718 507 735 q 598 681 572 701 q 640 635 624 660 q 661 585 657 610 l 615 571 l 624 738 l 836 738 l 836 61 q 809 -100 836 -29 q 730 -219 782 -171 q 604 -294 678 -268 q 436 -319 531 -319 m 442 179 q 535 203 496 179 q 597 269 575 226 q 618 369 618 313 q 597 472 618 429 q 535 540 575 515 q 442 564 496 564 q 351 540 390 564 q 291 472 313 515 q 269 371 269 429 q 291 269 269 313 q 351 203 313 226 q 442 179 390 179 z "},"ğ":{"ha":931,"x_min":47,"x_max":836,"o":"m 436 -319 q 258 -294 347 -319 q 113 -226 168 -268 l 190 -68 q 291 -116 235 -99 q 408 -133 347 -133 q 524 -112 479 -133 q 590 -50 568 -92 q 611 54 611 -8 l 611 176 l 653 168 q 606 88 644 125 q 513 28 568 50 q 396 6 457 6 q 217 52 296 6 q 92 181 138 99 q 47 372 47 264 q 92 569 47 483 q 215 704 138 656 q 390 753 293 753 q 469 744 431 753 q 540 718 507 735 q 598 681 572 701 q 640 635 624 660 q 661 585 657 610 l 615 571 l 624 738 l 836 738 l 836 61 q 809 -100 836 -29 q 730 -219 782 -171 q 604 -294 678 -268 q 436 -319 531 -319 m 442 179 q 535 203 496 179 q 597 269 575 226 q 618 369 618 313 q 597 472 618 429 q 535 540 575 515 q 442 564 496 564 q 351 540 390 564 q 291 472 313 515 q 269 371 269 429 q 291 269 269 313 q 351 203 313 226 q 442 179 390 179 m 465 833 q 303 892 369 833 q 215 1057 236 951 l 360 1074 q 403 1005 375 1031 q 465 979 431 979 q 528 1005 500 979 q 571 1074 557 1031 l 715 1057 q 628 892 694 951 q 465 833 561 833 z "},"ǧ":{"ha":931,"x_min":47,"x_max":836,"o":"m 436 -319 q 258 -294 347 -319 q 113 -226 168 -268 l 190 -68 q 291 -116 235 -99 q 408 -133 347 -133 q 524 -112 479 -133 q 590 -50 568 -92 q 611 54 611 -8 l 611 176 l 653 168 q 606 88 644 125 q 513 28 568 50 q 396 6 457 6 q 217 52 296 6 q 92 181 138 99 q 47 372 47 264 q 92 569 47 483 q 215 704 138 656 q 390 753 293 753 q 469 744 431 753 q 540 718 507 735 q 598 681 572 701 q 640 635 624 660 q 661 585 657 610 l 615 571 l 624 738 l 836 738 l 836 61 q 809 -100 836 -29 q 730 -219 782 -171 q 604 -294 678 -268 q 436 -319 531 -319 m 442 179 q 535 203 496 179 q 597 269 575 226 q 618 369 618 313 q 597 472 618 429 q 535 540 575 515 q 442 564 496 564 q 351 540 390 564 q 291 472 313 515 q 269 371 269 429 q 291 269 269 313 q 351 203 313 226 q 442 179 390 179 m 399 843 l 206 1022 l 286 1092 l 486 974 l 444 974 l 644 1092 l 725 1022 l 532 843 l 399 843 z "},"ĝ":{"ha":931,"x_min":47,"x_max":836,"o":"m 436 -319 q 258 -294 347 -319 q 113 -226 168 -268 l 190 -68 q 291 -116 235 -99 q 408 -133 347 -133 q 524 -112 479 -133 q 590 -50 568 -92 q 611 54 611 -8 l 611 176 l 653 168 q 606 88 644 125 q 513 28 568 50 q 396 6 457 6 q 217 52 296 6 q 92 181 138 99 q 47 372 47 264 q 92 569 47 483 q 215 704 138 656 q 390 753 293 753 q 469 744 431 753 q 540 718 507 735 q 598 681 572 701 q 640 635 624 660 q 661 585 657 610 l 615 571 l 624 738 l 836 738 l 836 61 q 809 -100 836 -29 q 730 -219 782 -171 q 604 -294 678 -268 q 436 -319 531 -319 m 442 179 q 535 203 496 179 q 597 269 575 226 q 618 369 618 313 q 597 472 618 429 q 535 540 575 515 q 442 564 496 564 q 351 540 390 564 q 291 472 313 515 q 269 371 269 429 q 291 269 269 313 q 351 203 313 226 q 442 179 390 179 m 279 835 l 199 904 l 399 1083 l 532 1083 l 732 904 l 651 835 l 444 953 l 486 953 l 279 835 z "},"ģ":{"ha":931,"x_min":47,"x_max":836,"o":"m 436 -319 q 258 -294 347 -319 q 113 -226 168 -268 l 190 -68 q 291 -116 235 -99 q 408 -133 347 -133 q 524 -112 479 -133 q 590 -50 568 -92 q 611 54 611 -8 l 611 176 l 653 168 q 606 88 644 125 q 513 28 568 50 q 396 6 457 6 q 217 52 296 6 q 92 181 138 99 q 47 372 47 264 q 92 569 47 483 q 215 704 138 656 q 390 753 293 753 q 469 744 431 753 q 540 718 507 735 q 598 681 572 701 q 640 635 624 660 q 661 585 657 610 l 615 571 l 624 738 l 836 738 l 836 61 q 809 -100 836 -29 q 730 -219 782 -171 q 604 -294 678 -268 q 436 -319 531 -319 m 442 179 q 535 203 496 179 q 597 269 575 226 q 618 369 618 313 q 597 472 618 429 q 535 540 575 515 q 442 564 496 564 q 351 540 390 564 q 291 472 313 515 q 269 371 269 429 q 291 269 269 313 q 351 203 313 226 q 442 179 390 179 m 469 828 q 374 862 415 828 q 332 968 332 896 q 350 1042 332 1008 q 399 1101 368 1075 q 467 1147 429 1128 q 543 1181 504 1167 l 599 1104 q 556 1088 581 1100 q 515 1059 532 1075 q 497 1024 497 1043 q 508 1005 497 1010 q 533 993 518 1000 q 571 967 557 982 q 585 919 585 951 q 551 851 585 874 q 469 828 518 828 z "},"ġ":{"ha":931,"x_min":47,"x_max":836,"o":"m 436 -319 q 258 -294 347 -319 q 113 -226 168 -268 l 190 -68 q 291 -116 235 -99 q 408 -133 347 -133 q 524 -112 479 -133 q 590 -50 568 -92 q 611 54 611 -8 l 611 176 l 653 168 q 606 88 644 125 q 513 28 568 50 q 396 6 457 6 q 217 52 296 6 q 92 181 138 99 q 47 372 47 264 q 92 569 47 483 q 215 704 138 656 q 390 753 293 753 q 469 744 431 753 q 540 718 507 735 q 598 681 572 701 q 640 635 624 660 q 661 585 657 610 l 615 571 l 624 738 l 836 738 l 836 61 q 809 -100 836 -29 q 730 -219 782 -171 q 604 -294 678 -268 q 436 -319 531 -319 m 442 179 q 535 203 496 179 q 597 269 575 226 q 618 369 618 313 q 597 472 618 429 q 535 540 575 515 q 442 564 496 564 q 351 540 390 564 q 291 472 313 515 q 269 371 269 429 q 291 269 269 313 q 351 203 313 226 q 442 179 390 179 m 465 883 q 367 913 401 883 q 332 999 332 943 q 367 1082 332 1050 q 465 1114 403 1114 q 564 1084 529 1114 q 599 999 599 1054 q 563 915 599 947 q 465 883 528 883 z "},"ḡ":{"ha":931,"x_min":47,"x_max":836,"o":"m 436 -319 q 258 -294 347 -319 q 113 -226 168 -268 l 190 -68 q 291 -116 235 -99 q 408 -133 347 -133 q 524 -112 479 -133 q 590 -50 568 -92 q 611 54 611 -8 l 611 176 l 653 168 q 606 88 644 125 q 513 28 568 50 q 396 6 457 6 q 217 52 296 6 q 92 181 138 99 q 47 372 47 264 q 92 569 47 483 q 215 704 138 656 q 390 753 293 753 q 469 744 431 753 q 540 718 507 735 q 598 681 572 701 q 640 635 624 660 q 661 585 657 610 l 615 571 l 624 738 l 836 738 l 836 61 q 809 -100 836 -29 q 730 -219 782 -171 q 604 -294 678 -268 q 436 -319 531 -319 m 442 179 q 535 203 496 179 q 597 269 575 226 q 618 369 618 313 q 597 472 618 429 q 535 540 575 515 q 442 564 496 564 q 351 540 390 564 q 291 472 313 515 q 269 371 269 429 q 291 269 269 313 q 351 203 313 226 q 442 179 390 179 m 233 888 l 233 1029 l 697 1029 l 697 888 l 233 888 z "},"h":{"ha":883,"x_min":99,"x_max":794,"o":"m 99 0 l 99 1028 l 319 1028 l 319 588 l 274 571 q 328 662 289 621 q 424 728 368 703 q 540 753 479 753 q 681 719 624 753 q 766 617 738 685 q 794 451 794 550 l 794 0 l 571 0 l 571 435 q 558 508 571 479 q 521 551 546 538 q 458 564 496 565 q 404 555 429 564 q 360 528 379 546 q 332 489 342 511 q 322 439 322 467 l 322 0 l 210 0 q 145 0 174 0 q 99 0 117 0 z "}}}
